<svg width="15" height="15" viewBox="0 0 15 15" fill="none" xmlns="http://www.w3.org/2000/svg">
<path d="M7.25029 6.06559e-07C3.24449 -0.00161921 0 3.24125 0 7.24381C0 10.4089 2.02963 13.0994 4.8562 14.0875C5.23686 14.1831 5.17855 13.9126 5.17855 13.7279V12.4726C2.98046 12.7301 2.89137 11.2755 2.74397 11.0326C2.44592 10.5239 1.7413 10.3943 1.95188 10.1514C2.4524 9.89382 2.96264 10.2162 3.55387 11.0892C3.9815 11.7226 4.81571 11.6157 5.23848 11.5104C5.33081 11.1297 5.52843 10.7896 5.80055 10.5256C3.5231 10.1174 2.57388 8.72756 2.57388 7.07535C2.57388 6.27354 2.83791 5.53653 3.35626 4.94205C3.02581 3.96207 3.38703 3.123 3.43563 2.99828C4.37674 2.91405 5.35511 3.67212 5.43124 3.73205C5.96578 3.58789 6.57645 3.51176 7.26001 3.51176C7.94681 3.51176 8.5591 3.59113 9.0985 3.73691C9.28154 3.59761 10.1886 2.94644 11.0633 3.02581C11.1103 3.15054 11.4634 3.97017 11.1524 4.93719C11.6772 5.53329 11.9445 6.27678 11.9445 7.08021C11.9445 8.73566 10.9888 10.1271 8.70488 10.5288C8.90051 10.7212 9.05584 10.9506 9.1618 11.2037C9.26776 11.4568 9.32223 11.7284 9.32203 12.0028V13.8251C9.33499 13.9709 9.32203 14.1151 9.565 14.1151C12.4337 13.148 14.499 10.4381 14.499 7.24543C14.499 3.24125 11.2528 6.06559e-07 7.25029 6.06559e-07Z" fill="#512DA8"/>
</svg>
