<svg width="17" height="13" viewBox="0 0 17 13" fill="none" xmlns="http://www.w3.org/2000/svg">
<path d="M0.256759 6.04699C1.99591 5.1625 3.93728 4.42422 5.75118 3.68221C8.87182 2.46686 12.0048 1.27256 15.1695 0.160691C15.7852 -0.0287501 16.8915 -0.21399 17 0.628496C16.9406 1.82107 16.6962 3.00668 16.5286 4.19225C16.1032 6.79949 15.6115 9.3978 15.132 11.9964C14.9668 12.8621 13.7924 13.3101 13.041 12.7562C11.2352 11.6299 9.41545 10.5146 7.63265 9.36218C7.04865 8.81429 7.59021 8.02743 8.11176 7.63615C9.5991 6.28275 11.1765 5.13287 12.5861 3.70951C12.9663 2.86172 11.8428 3.57623 11.4723 3.79517C9.43606 5.09078 7.44969 6.46546 5.30291 7.60412C4.20633 8.16147 2.92825 7.68518 1.83216 7.37419C0.849407 6.99846 -0.590724 6.61994 0.25666 6.04711L0.256759 6.04699Z" fill="#512DA8"/>
</svg>
