<svg width="100" height="100" viewBox="0 0 100 100" fill="none" xmlns="http://www.w3.org/2000/svg">
<g clip-path="url(#clip0)">
<path d="M88.8889 13.8889H11.1111C8.16426 13.8889 5.33811 15.0595 3.25437 17.1433C1.17063 19.227 0 22.0532 0 25L0 75C0 77.9469 1.17063 80.773 3.25437 82.8568C5.33811 84.9405 8.16426 86.1111 11.1111 86.1111H88.8889C91.8357 86.1111 94.6619 84.9405 96.7456 82.8568C98.8294 80.773 100 77.9469 100 75V25C100 22.0532 98.8294 19.227 96.7456 17.1433C94.6619 15.0595 91.8357 13.8889 88.8889 13.8889V13.8889Z" fill="#D1C4E9" fill-opacity="0.8"/>
<path d="M24.775 39.0277C26.5305 39.1943 25.5611 36.0582 26.1972 35.4888C26.3166 35.2082 26.5389 35.2054 26.5555 35.561V38.2221C26.5389 39.0888 27.1083 39.3416 27.55 39.5221C28.0111 39.486 28.3166 39.5027 28.4972 39.9499L28.7139 44.5554C28.7139 44.5554 29.7805 44.861 29.8305 41.9638C29.8833 40.2638 29.4916 38.8416 29.7222 38.511C29.7305 38.186 30.1444 38.1666 30.4333 38.3249C30.8916 38.6471 31.0972 39.0471 31.8083 38.8888C32.8944 38.5916 33.5444 38.0638 33.5611 37.2304C33.4972 36.4388 33.4083 35.6471 33.0666 34.8554C33.1139 34.711 32.8583 34.3388 32.9055 34.1943C33.1 34.4999 33.3972 34.4749 33.4639 34.1943C33.2805 33.586 32.9944 33.0027 32.5278 32.7499C32.1444 32.411 31.5833 32.4804 31.3778 33.186C31.2833 33.9971 31.6722 34.9638 32.2611 35.7499C32.3861 36.0582 32.5639 36.5693 32.4861 37.0304C32.1722 37.2082 31.8555 37.136 31.5944 36.8582C31.5944 36.8582 30.7305 36.211 30.7305 36.0666C30.9611 34.5999 30.7833 34.4332 30.6555 34.0277C30.5666 33.4666 30.3 33.286 30.0833 32.9027C29.8666 32.6749 29.575 32.6749 29.4361 32.9027C29.0528 33.5638 29.2305 34.986 29.5083 35.6221C29.7055 36.2054 30.0111 36.5749 29.8666 36.5749C29.7472 36.9054 29.5028 36.8277 29.325 36.4471C29.0694 35.6582 29.0194 34.4832 29.0194 33.9527C28.9416 33.2971 28.8583 31.8943 28.4278 31.5388C28.1639 31.1804 27.7722 31.3527 27.6361 31.6832C27.6083 32.3332 27.6028 32.986 27.6778 33.5888C27.9722 34.6416 28.0666 35.5693 28.2111 36.6499C28.25 38.0971 27.375 37.2777 27.4139 36.561C27.6166 35.6304 27.5639 34.1638 27.3833 33.7916C27.2416 33.4221 27.0722 33.3277 26.7278 33.3888C26.4555 33.3666 25.75 34.1388 25.55 35.4166C25.55 35.4166 25.3805 36.0749 25.3083 36.661C25.2111 37.3221 24.7778 37.7888 24.4722 36.5693C24.2083 35.6832 24.0472 33.4971 23.6055 34.0082C23.4778 35.7166 23.325 38.7221 24.775 39.0277V39.0277Z" fill="#673AB7" fill-opacity="0.8"/>
<path d="M27.4167 40.2748C25.9722 40.3026 23.8583 42.172 23.8 43.2081C25.3222 42.4748 26.8194 41.7692 28.3694 41.0137C28.1194 40.6387 28.3555 40.3026 27.4167 40.2748Z" fill="#673AB7" fill-opacity="0.8"/>
<path d="M35.3805 45.8776C36.05 43.647 35.2722 42.0026 35.6361 42.0109C36.4055 42.8415 37.4833 42.122 37.7194 41.8332C37.8222 41.6887 38.075 41.5943 38.2527 41.7832C38.8555 42.2165 39.9166 42.0109 40.1361 41.2498C40.2748 40.4854 40.3602 39.7122 40.3916 38.9359C39.9 39.0887 39.5333 39.1915 39.5 39.3943L39.3972 40.0554C39.3555 40.2693 38.9305 40.2776 38.9139 40.0054C38.7277 39.1582 37.9555 39.047 37.4889 40.3609C37.175 40.6165 36.6083 40.6665 36.5472 40.2859C36.6222 39.4054 36.2666 39.2859 35.5555 39.6998C35.3277 37.9526 35.0972 36.2832 34.8694 34.5359C35.1666 34.5276 35.4389 34.747 35.7083 34.4082C35.4111 33.4832 34.7833 31.5943 34.4361 31.4582C34.2666 31.2526 34.1222 31.3804 33.9027 31.4332C33.5305 31.5526 33.1833 31.8748 33.2916 32.4998C33.7333 35.1804 34.0222 37.222 34.4611 39.9026C34.5277 40.2165 34.2666 40.6304 33.9277 40.5887C33.3527 40.1998 33.2083 39.4109 32.225 39.4443C31.5111 39.4526 30.6972 40.2248 30.5972 40.972C30.4777 41.5637 30.4361 42.2082 30.5972 42.7276C31.0972 43.3276 31.7 43.2693 32.225 43.1332C32.6555 42.9554 33.0139 42.522 33.1639 42.6248C33.2666 42.7498 33.1889 44.1748 31.1305 45.2693C29.8833 45.8276 28.8916 45.9554 28.3583 44.9387C28.0277 44.3026 28.3833 41.8859 27.5694 42.447C25.1611 48.6554 33.2083 49.5165 34.1083 42.7026C34.1944 42.422 34.5333 42.1415 34.5916 42.5998C34.4055 48.772 28.3666 49.197 27.3416 47.2554C27.0861 46.797 27.0111 45.7804 26.9861 45.1693C26.8333 43.9554 26.1972 44.422 26.0972 45.6248C25.9944 46.2943 26.0222 46.4832 26.0222 47.1248C26.3416 51.9998 34.1194 49.9054 35.3805 45.8776V45.8776ZM32.3805 41.6609C32.3305 41.7554 32.1111 41.7165 31.95 41.7165C31.7666 41.7082 31.6805 41.6776 31.5694 41.5304C31.5194 41.3637 31.675 41.2054 31.7444 41.0804C31.8305 40.9332 32.2944 40.7804 32.4583 41.1915C32.4886 41.2695 32.4974 41.3543 32.4837 41.4369C32.4701 41.5195 32.4344 41.5969 32.3805 41.6609V41.6609Z" fill="#673AB7" fill-opacity="0.8"/>
<path d="M37.7833 36.1361C38.2666 35.9583 40.5583 33.3389 40.5583 33.3389C40.4389 33.2361 40.3333 33.1611 40.2139 33.0583C40.0861 32.9472 40.1 32.8361 40.2139 32.7277C40.7805 32.3972 40.6 31.6722 40.3027 31.3416C40.1105 31.2473 39.8989 31.1992 39.6848 31.2011C39.4706 31.2031 39.2599 31.255 39.0694 31.3527C38.6722 31.7333 38.5777 32.3444 38.8916 32.7277C39.1972 32.8722 39.5027 33.1805 39.3 33.35C38.3639 34.35 35.7972 36.075 36.0944 36.1361C36.1583 36.2194 37.7333 36.2166 37.7833 36.1361V36.1361ZM39.4805 32.0222C39.6277 31.9861 39.8166 32.1166 39.9055 32.3111C39.9944 32.5055 39.9472 32.6916 39.8027 32.7277H39.7972C39.6527 32.7639 39.4639 32.6333 39.375 32.4389C39.2889 32.2416 39.3361 32.0583 39.4805 32.0222ZM24.6166 47.9389C24.2389 48.7083 24.0805 48.1805 24.0472 47.75C24.0038 47.0269 24.0401 46.3012 24.1555 45.5861C24.25 44.975 24.1555 45.1611 23.9611 45.4083C23.1027 46.775 23.0277 48.8194 23.5027 49.4277C23.7527 49.7166 24.1666 49.8444 24.475 49.75C25.0139 49.5166 25.25 48.4222 25.1222 48.025C24.9389 47.7444 24.7972 47.7 24.6166 47.9389ZM52.8972 33.4722C53.8861 34.8 54.825 36.1527 55.7444 37.5305C55.925 38.725 56.0555 39.8916 56.1333 41.05C56.2861 43.2833 56.3305 45.7 56.1916 48.0527C56.6083 48.0694 57.2833 47.375 57.5166 46.3611C57.6694 44.9583 57.4611 42.4611 57.4472 41.6333C57.4288 41.1145 57.4038 40.5959 57.3722 40.0777C58.4666 41.8666 59.5333 43.7389 60.575 45.8194C60.9555 45.6416 60.8722 43.5139 60.65 43.2139C59.8166 41.4277 58.6694 39.6611 58.3027 38.9833C58.1666 38.7333 57.7027 38.0222 57.15 37.2083C57.1025 36.5587 57.0246 35.9117 56.9166 35.2694C56.7444 34.0805 57.4083 35.4 57.3166 34.7083C57.1027 33.5194 56.4416 32.7166 55.6694 31.6277C55.4194 31.275 55.4277 31.2027 55.0416 31.7139C54.9052 32.0201 54.8424 32.354 54.8583 32.6889C54.7377 32.5116 54.6089 32.3401 54.4722 32.175C54.053 31.8133 53.6317 31.454 53.2083 31.0972C52.9277 30.8972 52.2444 30.5361 52.1222 31.1361C52.0653 31.5566 52.086 31.9841 52.1833 32.3972C52.2555 32.6944 52.6861 33.1889 52.8972 33.4722V33.4722ZM54.9527 33.4055C55.0055 33.6361 55.0611 33.8666 55.0972 34.1027L55.1389 34.3277C55.0223 34.1649 54.901 34.0056 54.775 33.85C54.3194 33.3111 54.6972 33.4277 54.9527 33.4055V33.4055Z" fill="#673AB7" fill-opacity="0.8"/>
<path d="M60.8861 46.3693C59.9194 47.3776 58.525 48.6193 57.0083 49.1943C56.8444 49.3776 57.4139 50.1637 58.1472 50.1637C59.3777 50.0193 60.4611 49.3276 61.4639 47.5082C61.7333 47.0859 62.2055 46.1776 62.2166 45.472C62.3083 41.3443 62.0111 38.1304 61.3916 35.147C61.3502 34.9077 61.3616 34.6621 61.425 34.4276C61.5027 34.3332 61.775 34.4276 61.9194 34.1943C62.1277 33.9776 61.3611 32.1998 60.9222 31.5165C60.7666 31.2109 60.7139 31.0054 60.4555 31.5526C60.1833 31.997 60.0027 32.772 60.025 33.4943C60.6111 37.5582 60.7916 41.1165 61.175 45.1804C61.2055 45.572 61.1472 46.1443 60.8861 46.3693V46.3693ZM77.0805 36.0637C77.0389 35.7748 76.9111 35.1026 76.9611 35.0165C77.0389 34.8109 77.4416 35.0387 77.5861 34.8026C77.7972 34.5887 76.5472 32.9832 76.1111 32.2998C75.9527 31.9943 75.9 31.7887 75.6416 32.3359C75.3694 32.7804 75.275 33.5776 75.3833 34.2776C76.0361 38.6915 76.5222 42.0082 76.6222 45.922C76.5639 46.2943 76.5527 46.4943 76.3777 46.9609C75.9916 47.4554 75.5666 48.072 75.1639 48.372C74.7639 48.6693 73.9111 48.9554 73.6305 49.1748C72.75 49.6887 72.7472 50.2748 73.4639 50.2943C74.6916 50.1498 76.1472 50.0498 77.15 48.5332C77.4194 48.1109 77.7389 46.9637 77.7527 46.2582C77.8444 42.1304 77.7 39.047 77.0805 36.0637V36.0637ZM67.7722 39.4998C67.7833 38.9332 67.8361 38.1832 67.8666 37.7137C67.8805 37.5387 67.9222 37.3415 68.0889 37.297C68.2583 37.2526 68.5583 37.4693 68.5611 37.2859C68.5277 36.9276 68.4555 36.3943 68.2527 36.1415C67.975 35.7304 67.2389 35.8304 67.1083 36.4748C67.1111 36.7137 67.2194 36.8415 67.2 37.0582C67.1666 37.1804 67.0389 37.2637 66.7361 37.1193C66.7861 37.0748 66.5389 36.7332 66.5389 36.7332C66.3027 36.5887 65.9861 36.7415 65.7833 36.872C65.7099 37.0121 65.6661 37.1657 65.6547 37.3234C65.6432 37.4811 65.6643 37.6395 65.7166 37.7887C66.05 38.4193 67.2139 39.4887 67.7722 39.4998V39.4998Z" fill="#673AB7" fill-opacity="0.8"/>
<path d="M67.3805 34.6692C68.1944 35.6664 69.025 36.6776 69.8611 37.7053C70.0416 39.9998 70.0889 41.8776 70.2666 44.172C70.2416 45.1442 69.9416 45.9914 69.6555 46.1137C69.6555 46.1137 69.225 46.3637 68.9361 46.0887C68.725 46.0025 67.8833 44.6859 67.8833 44.6859C67.4527 44.2914 67.1694 44.4026 66.8638 44.6859C66.0194 45.4998 65.6389 47.0276 65.0666 48.0776C64.9166 48.3137 64.5 48.5137 64.0361 48.0609C62.8611 46.4526 63.55 44.1664 63.4055 44.7553C62.3583 45.9359 62.8194 47.8887 63.0555 48.3109C63.4 48.9998 63.6805 49.4442 64.3527 49.7859C64.9639 50.2359 65.4416 49.9526 65.7027 49.6387C66.3194 48.997 66.3277 47.372 66.6166 47.0442C66.8166 46.4526 67.3305 46.5526 67.5777 46.8164C67.8041 47.1359 68.1043 47.3961 68.4527 47.5748C69.0277 48.0831 69.7139 48.1748 70.3889 47.7109C70.85 47.4526 71.1527 47.1164 71.4222 46.4526C71.7222 45.6526 71.5583 41.9748 71.4972 39.7692C71.9277 40.3248 72.3472 40.9053 72.7722 41.4859C72.9583 43.3276 73.0639 45.1609 73.0027 47.0331C72.9583 47.4081 74.3083 45.922 74.2972 45.2164C74.2916 44.647 74.2972 44.1303 74.2972 43.6442C74.9472 44.622 75.5805 45.6303 76.175 46.697C76.5472 46.5026 76.425 44.4053 76.1889 44.1164C75.5027 42.9664 74.5889 41.7692 73.9583 40.9137C73.9166 40.8053 73.8944 40.6831 73.8444 40.5803C73.5916 39.9942 73.75 39.522 73.6305 38.8998C73.5139 38.2748 73.5444 37.3414 73.3639 36.5998C73.3139 36.3109 73.1639 35.3831 73.2083 35.297C73.2805 35.0887 73.5583 35.3026 73.6944 35.0637C73.8972 34.8414 72.9916 32.4942 72.5305 31.822C72.3639 31.522 72.0639 31.6248 71.6916 32.1137C71.35 32.4359 71.4777 33.1692 71.6083 33.8664C71.9333 35.5553 72.2055 37.1748 72.4389 38.7776C71.9393 38.1135 71.4347 37.4533 70.925 36.797L70.9027 36.6748C70.9027 36.6442 70.8277 35.2192 70.7611 34.8803C70.75 34.7442 70.7166 34.7026 70.8611 34.7192C71.0139 34.847 71.0333 34.8553 71.1305 34.8998C71.2861 34.9276 71.4222 34.6637 71.3305 34.422L69.8944 31.7776C69.7805 31.6637 69.6305 31.5414 69.45 31.8081C69.3378 31.906 69.2481 32.0269 69.1867 32.1625C69.1254 32.2981 69.0939 32.4454 69.0944 32.5942C69.1389 33.2192 69.2472 33.8581 69.2889 34.4859L69.35 34.8248C69.2861 34.7498 69.2083 34.6553 69.175 34.622C67.9555 33.3387 69.7361 34.4137 68.9416 33.422C68.2694 32.6831 68.075 32.4526 67.4972 32.0081C67.2083 31.822 67.0333 31.4664 66.9389 32.072C66.8913 32.603 66.8774 33.1365 66.8972 33.6692C66.8972 33.9248 67.1555 34.3914 67.3805 34.6692V34.6692ZM42.6555 37.6664C43.3555 37.9553 43.8027 36.622 44.0916 35.1609C44.2861 34.7498 44.4361 34.7053 44.5361 34.9164C44.5111 36.8609 44.675 37.2914 45.175 37.8831C46.2888 38.7442 47.2111 37.9914 47.2861 37.9192L48.1527 37.0526C48.3444 36.8498 48.6027 36.8359 48.875 37.0164C49.1416 37.2553 49.1055 37.672 49.6722 37.9609C50.15 38.1526 51.1722 38.0053 51.4083 37.5942C51.7277 37.0498 51.8055 36.8609 51.95 36.6553C52.1777 36.3526 52.5666 36.4887 52.5666 36.5831C52.5305 36.7526 52.3027 36.922 52.4583 37.2248C52.7305 37.4276 52.7916 37.297 52.9527 37.2526C53.5194 36.9803 53.9416 35.7526 53.9416 35.7526C53.9666 35.2942 53.7111 35.3331 53.5444 35.4276C53.3277 35.5581 53.3138 35.6026 53.0972 35.7359C52.8194 35.7776 52.2833 35.9609 52.0194 35.5498C51.7472 35.0553 51.7416 34.3664 51.5361 33.8692C51.5361 33.8331 51.175 33.0831 51.5111 33.0359C51.6805 33.0664 52.0388 33.1609 52.0972 32.8609C52.2722 32.5664 51.7166 31.7276 51.3388 31.3026C51.0083 30.9414 50.55 30.897 50.1083 31.2664C49.7972 31.5526 49.8416 31.8692 49.7805 32.172C49.7301 32.3857 49.7301 32.6082 49.7808 32.8218C49.8314 33.0354 49.9312 33.2343 50.0722 33.4026C50.3805 34.0109 50.9444 34.797 50.7583 35.897C50.7583 35.897 50.4305 36.4192 49.8555 36.3526C49.6166 36.2998 49.2277 36.197 49.0222 34.6692C48.8666 33.5109 49.0611 31.8914 48.5694 31.1331C48.3916 30.6748 48.2638 30.2331 47.8305 31.0164C47.7138 31.3248 47.2138 31.7914 47.5777 32.7553C47.875 33.3637 47.9944 34.3553 47.8611 35.4609C47.6555 35.7748 47.6111 35.8803 47.3416 36.1942C46.9638 36.5998 46.5555 36.497 46.2416 36.3442C45.9472 36.147 45.7194 36.0442 45.5861 35.4164C45.6111 34.4164 45.6666 32.7776 45.4833 32.4303C45.2138 31.8914 44.7694 32.0859 44.5777 32.2498C43.6638 33.0859 43.2138 34.4942 42.9388 35.6137C42.6861 36.4303 42.4166 36.197 42.2277 35.8664C41.7666 35.4331 41.7361 32.0526 41.1777 32.6109C40.2805 35.1498 41.6833 37.9387 42.6555 37.6664V37.6664Z" fill="#673AB7" fill-opacity="0.8"/>
<path d="M55.9361 43.1221L55.6694 42.9693L50.4444 42.9443C50.175 42.8415 50.2555 42.7526 50.4444 42.6804C51.6916 42.5109 53.9111 42.1498 54.0583 40.0193C54.0333 38.9109 53.5805 38.1832 52.2194 37.9832C51.2222 38.0609 50.5083 39.0304 50.6222 40.0943C50.575 40.3832 50.7166 40.9443 50.425 41.0082C48.5055 41.1832 46.4139 42.3832 46.3444 43.2443C46.2277 43.3248 45.9666 43.0915 46 42.7248C45.9075 41.1564 45.4561 39.6301 44.6805 38.2637C44.075 37.6582 44.2639 37.8582 43.8583 38.1443C43.5972 38.4443 43.55 38.6498 43.5639 39.2471C43.5639 39.2693 44.0527 40.6332 44.4666 41.5887C44.7416 42.5693 45 43.6887 44.8139 44.7471C44.1694 46.1471 42.8722 47.4026 41.6222 48.0832C40.9777 48.2915 40.425 48.2165 40.2889 48.0721C39.8916 47.8054 39.9111 47.3137 39.9416 47.3054C40.9944 46.5693 42.2 45.9776 43.1444 43.9971C43.4222 43.2415 43.5055 42.7832 43.2305 41.6137C43.1541 41.2016 42.9647 40.8188 42.6833 40.5082C42.8527 40.3971 43.3389 40.7665 43.4139 40.5471C43.273 39.9069 42.9543 39.3196 42.4944 38.8526C42.1194 38.5109 41.7111 38.4721 41.3666 38.7859C40.9777 39.0026 40.8944 39.7748 41.0805 40.4526C41.2861 40.9637 41.8444 41.0498 42.2444 42.0748C42.2444 42.0971 42.3889 42.8415 42.1833 43.1332C42.0194 43.6443 39.8944 45.3137 39.7777 45.3887C39.7194 45.4609 39.7444 45.3526 39.7361 45.0748C39.7222 44.7359 39.8722 43.9359 39.8305 43.9304C39.1389 44.3776 38.9083 45.7471 38.7833 46.1526C37.0333 47.3609 35.0527 48.2609 33.9083 49.4887C33.3111 50.4193 38.0139 48.4193 38.5611 48.1776C38.6833 48.2665 38.6694 48.686 38.9972 49.061C39.4861 49.7221 40.5194 50.1304 41.5333 49.8776C43.2277 49.2637 44.2083 48.1082 45.2028 46.8276C45.3444 46.6193 45.5666 46.461 45.7722 46.6193C46.4555 48.1498 48.4305 49.2332 50.9777 49.3471C51.5694 48.6276 51.2833 48.2804 51.0444 48.1304C51.0444 48.1082 49.7861 47.6304 49.5944 47.1526C49.4777 46.7193 49.7611 46.3387 50.3277 46.0498C51.9639 45.8526 53.5722 45.6332 55.1305 45.1332C55.1472 44.6109 55.45 43.8276 55.6583 43.4887C55.8583 43.1443 55.9666 43.2471 55.9361 43.1221V43.1221ZM51.6389 39.8665C51.7166 39.7359 51.975 39.7415 52.2166 39.8832C52.4583 40.0221 52.5944 40.2443 52.5139 40.3748C52.4361 40.5082 52.175 40.4998 51.9333 40.3582C51.6916 40.2193 51.5611 39.9998 51.6389 39.8665V39.8665ZM49.5361 45.1443C48.975 45.336 48.4361 45.4859 48.4361 46.2971C48.6444 47.4248 48.15 47.0387 47.8583 46.8832C47.5139 46.636 46.5444 46.0387 46.4055 44.7498C46.3833 44.4415 46.625 44.1832 47.0111 44.1832C47.5916 44.3415 48.45 44.3526 49.1944 44.4304C49.8027 44.4693 50.1055 44.9471 49.5361 45.1443V45.1443ZM30.1833 32.6304C30.7833 32.9193 31.9166 32.7971 31.8666 31.8248C31.8666 31.7387 31.8444 31.4498 31.8361 31.3721C31.7139 31.0859 31.3805 31.1554 31.3027 31.4526C31.2777 31.5498 31.3444 31.7054 31.2583 31.7554C31.2083 31.8054 31.0166 31.7748 31.025 31.5082C31.025 31.4221 30.9611 31.3304 30.925 31.2776C30.8861 31.2526 30.8639 31.2443 30.7944 31.2443C30.7111 31.2471 30.7111 31.2693 30.6666 31.3415C30.6472 31.4109 30.6194 31.4832 30.6194 31.5637C30.6083 31.6582 30.5722 31.6915 30.5027 31.7082C30.425 31.7082 30.4416 31.7165 30.3805 31.6748C30.3416 31.6332 30.2944 31.6165 30.2944 31.5471C30.2942 31.4659 30.2811 31.3852 30.2555 31.3082C30.2222 31.2637 30.1694 31.2443 30.1083 31.2276C29.7805 31.2276 29.7583 31.6026 29.7777 31.7471C29.7472 31.7721 29.7361 32.4443 30.1833 32.6304V32.6304Z" fill="#673AB7" fill-opacity="0.8"/>
<path d="M48.6444 38.9637C48.6444 38.8776 48.5805 38.7887 48.5444 38.7332C48.5055 38.7082 48.4833 38.6999 48.4138 38.6999C48.3305 38.7026 48.3333 38.7249 48.286 38.7971C48.2666 38.8693 48.2388 38.9387 48.2388 39.0193C48.2305 39.1165 48.1916 39.1499 48.1221 39.1637C48.0444 39.1637 48.061 39.1721 47.9971 39.1332C47.9583 39.0915 47.911 39.0749 47.911 39.0054C47.911 38.9242 47.8979 38.8435 47.8721 38.7665C47.8388 38.7221 47.786 38.7026 47.7249 38.6887C47.3971 38.6887 47.3749 39.0637 47.3916 39.2054C47.3666 39.2332 47.3527 39.9026 47.7999 40.0915C48.4027 40.3776 49.8333 40.211 49.4833 39.286C49.4774 39.1339 49.4672 38.9819 49.4527 38.8304C49.3305 38.5443 48.9944 38.6165 48.9194 38.911C48.8971 39.0082 48.9638 39.1637 48.8749 39.2137C48.8305 39.2637 48.636 39.2332 48.6444 38.9637V38.9637ZM58.0805 36.9999C58.6805 37.2887 59.811 37.1665 59.761 36.1971C59.7552 36.045 59.745 35.8931 59.7305 35.7415C59.6083 35.4554 59.2749 35.5276 59.1999 35.8221C59.1749 35.9193 59.2416 36.0749 59.1527 36.1249C59.1027 36.1749 58.911 36.1471 58.9194 35.8776C58.9194 35.7915 58.8555 35.6999 58.8194 35.6471C58.7805 35.6221 58.7583 35.6137 58.686 35.6137C58.6027 35.6193 58.6055 35.6387 58.5583 35.711C58.5388 35.7832 58.511 35.8526 58.511 35.9332C58.4999 36.0304 58.4638 36.0637 58.3944 36.0776C58.3166 36.0776 58.3333 36.086 58.2694 36.0471C58.2305 36.0054 58.186 35.9887 58.186 35.9193C58.1858 35.8372 58.1727 35.7557 58.1472 35.6776C58.111 35.6332 58.061 35.6137 57.9971 35.5999C57.6694 35.5999 57.6471 35.9749 57.6666 36.1165C57.6471 36.1443 57.6333 36.8137 58.0805 36.9999V36.9999ZM58.486 33.2443C58.6999 33.8443 58.3221 34.4165 58.5471 34.4999C58.7499 34.5943 59.0388 33.8804 59.1444 33.2221C59.2694 32.6887 58.8888 31.5971 58.3499 31.3721C58.0222 31.2943 57.5555 31.4887 57.7055 31.9276C57.6305 32.1387 58.3666 32.8554 58.486 33.2443V33.2443ZM64.0277 47.311C64.4471 47.3137 64.9305 46.3526 65.136 45.3999C65.2499 44.0887 65.0583 43.2915 65.0249 42.5193C64.9888 41.7499 64.1555 35.8749 63.9833 35.2915C63.7805 34.1887 64.7972 35.1443 64.686 34.5026C64.3333 33.6943 63.4583 32.5193 63.1805 31.8165C63.0138 31.5165 63.086 31.2499 62.7138 31.7387C62.3721 32.8637 62.2527 33.7804 62.3833 34.4804C63.2666 39.0915 64.1721 42.9249 64.0277 47.311ZM74.461 35.2554C74.5583 35.5554 74.3138 36.5249 74.5166 36.6137C74.7027 36.7137 74.9638 35.9443 75.061 35.2304C75.1138 34.8387 74.8277 33.4721 74.336 33.2276C74.036 33.1443 73.611 33.3526 73.7499 33.8304C73.6805 34.061 74.3527 34.8332 74.461 35.2554V35.2554ZM38.0194 45.411C38.1999 45.486 38.4471 44.9193 38.5416 44.3943C38.5944 44.1054 38.3166 43.1026 37.8471 42.9221C37.5583 42.861 37.1638 42.9387 37.286 43.3665C37.2722 43.5971 37.9249 43.8749 37.9638 44.411C38.0583 44.6332 37.8249 45.3471 38.0194 45.411ZM25.3638 32.5915C25.4555 32.8221 25.2722 33.5582 25.4638 33.6276C25.6388 33.7054 25.886 33.1165 25.9777 32.5749C26.0305 32.2749 25.9888 31.2582 25.2944 31.0499C25.0083 30.986 24.611 31.1443 24.7416 31.5082C24.6749 31.6804 25.261 32.2693 25.3638 32.5915ZM38.9805 35.8499C38.4499 36.1387 38.2416 36.9943 38.5749 37.4915C38.8833 37.9332 39.3721 37.7693 39.4388 37.7693C39.961 37.8332 40.2694 36.7915 40.2694 36.7915C40.2694 36.7915 40.286 36.4999 39.6666 37.0526C39.4055 37.1026 39.3721 37.0054 39.3083 36.8554C39.245 36.5836 39.2733 36.2984 39.3888 36.0443C39.4777 35.786 39.2777 35.6721 38.9805 35.8499V35.8499ZM42.986 32.6471C43.0717 32.5942 43.1451 32.5238 43.2016 32.4405C43.2581 32.3572 43.2963 32.2629 43.3138 32.1637C43.3944 31.7582 42.8833 32.3554 42.8194 31.9026C42.7055 31.4832 43.0333 31.311 43.3444 30.9054C43.3555 30.6249 43.3499 30.4276 42.9694 30.6554C42.7027 30.836 42.1694 31.386 42.1527 32.0193C42.136 32.3776 42.0694 32.3749 42.3055 32.6026C42.4749 32.8499 42.6444 32.8249 42.986 32.6471V32.6471ZM46.5944 32.8637C46.9388 31.9304 46.9388 31.536 46.9638 31.1387C46.8583 30.536 46.4499 30.5554 46.1805 31.2249C46.0638 31.4776 45.9277 32.8082 45.9499 32.8082C45.8583 33.2054 46.3638 33.3749 46.5944 32.8637ZM69.2888 39.4832C69.2888 39.4832 66.5027 41.4637 66.436 41.5332C66.1583 41.7776 66.2971 42.6443 66.436 42.5443C66.6333 42.6221 69.436 40.7193 69.3805 40.4971C69.511 40.5026 69.5749 39.3832 69.2888 39.4832V39.4832ZM68.9471 44.8554C69.1333 44.9554 69.6249 44.3471 69.6055 43.5887C69.661 43.1971 69.4638 41.761 68.9749 41.5165C68.6749 41.4332 68.2749 41.6887 68.4138 42.1637C68.3444 42.3915 68.7583 43.1887 68.8666 43.611C68.9638 43.9137 68.7444 44.7665 68.9471 44.8554V44.8554ZM53.1694 49.011C53.1694 49.036 53.4055 49.2387 53.6833 49.0776C54.2666 48.8526 54.6333 48.636 55.4499 48.4554C55.6638 48.4526 55.6499 47.8776 55.311 47.8582C54.8694 47.8804 54.4583 47.9026 54.0166 48.2526C53.7444 48.3137 53.6999 48.1499 53.6388 47.9999C53.5721 47.6304 53.7916 47.3749 53.7444 47.0999C53.761 47.1165 53.4916 46.8693 53.2166 47.0082C53.2027 47.0082 52.6027 47.4137 52.411 47.6971C52.2916 47.7887 52.3055 47.8665 52.3416 48.0193C52.4333 48.2304 52.5971 48.1665 52.7805 48.0665C53.0249 48.0332 53.1416 48.1943 53.1222 48.486C53.0055 48.8554 53.1694 48.9915 53.1694 49.011V49.011ZM71.3666 49.4721C71.2749 49.6304 71.2138 49.8693 71.4971 49.9443C72.0194 50.0915 73.2222 49.3082 73.2222 49.2943C73.4166 49.1471 73.3527 48.8721 73.336 48.8721C73.2221 48.7415 72.9666 48.8165 72.7944 48.7971C72.7138 48.7971 72.4416 48.7554 72.5721 48.5165C72.664 48.3877 72.7369 48.2465 72.7888 48.0971C72.8694 47.9165 72.7999 47.7971 72.5055 47.6999C72.2083 47.6443 72.0888 47.6721 71.7583 47.6999C71.5805 47.7387 71.5194 47.8165 71.486 48.0332C71.4999 48.361 71.6971 48.3443 71.9027 48.4749C72.0221 48.6276 72.0999 48.7665 71.8944 49.0137C71.6999 49.1943 71.5638 49.2943 71.3666 49.4721V49.4721ZM70.8333 63.8887H66.6666V62.4999C66.6666 62.1315 66.5203 61.7782 66.2598 61.5178C65.9993 61.2573 65.6461 61.111 65.2777 61.111C64.9093 61.111 64.5561 61.2573 64.2956 61.5178C64.0351 61.7782 63.8888 62.1315 63.8888 62.4999V63.8887H30.5555C30.5555 63.8887 30.5555 66.6665 38.8888 66.6665H63.8888V68.0554C63.8888 68.4238 64.0351 68.777 64.2956 69.0375C64.5561 69.298 64.9093 69.4443 65.2777 69.4443C65.6461 69.4443 65.9993 69.298 66.2598 69.0375C66.5203 68.777 66.6666 68.4238 66.6666 68.0554V66.6665H69.4444V68.0554C69.4444 68.4238 69.5907 68.777 69.8512 69.0375C70.1116 69.298 70.4649 69.4443 70.8333 69.4443C71.2016 69.4443 71.5549 69.298 71.8154 69.0375C72.0758 68.777 72.2221 68.4238 72.2221 68.0554V65.2776C72.2221 64.9093 72.0758 64.556 71.8154 64.2955C71.5549 64.0351 71.2016 63.8887 70.8333 63.8887Z" fill="#673AB7" fill-opacity="0.8"/>
</g>
<defs>
<clipPath id="clip0">
<rect width="100" height="100" fill="white"/>
</clipPath>
</defs>
</svg>
