<svg width="73" height="53" viewBox="0 0 73 53" fill="none" xmlns="http://www.w3.org/2000/svg">
<path d="M64.7025 0.752441H8.48751C6.35763 0.752441 4.31498 1.5953 2.80893 3.09559C1.30288 4.59588 0.456787 6.63071 0.456787 8.75244L0.456787 44.7524C0.456787 46.8742 1.30288 48.909 2.80893 50.4093C4.31498 51.9096 6.35763 52.7524 8.48751 52.7524H64.7025C66.8324 52.7524 68.8751 51.9096 70.3811 50.4093C71.8872 48.909 72.7333 46.8742 72.7333 44.7524V8.75244C72.7333 6.63071 71.8872 4.59588 70.3811 3.09559C68.8751 1.5953 66.8324 0.752441 64.7025 0.752441Z" fill="#D1C4E9" fill-opacity="0.8"/>
<path d="M18.3632 18.8525C19.6321 18.9725 18.9314 16.7145 19.3912 16.3045C19.4775 16.1025 19.6381 16.1005 19.6502 16.3565V18.2725C19.6381 18.8965 20.0497 19.0785 20.3689 19.2085C20.7022 19.1825 20.923 19.1945 21.0535 19.5165L21.2101 22.8325C21.2101 22.8325 21.9811 23.0525 22.0172 20.9665C22.0554 19.7425 21.7723 18.7185 21.9389 18.4805C21.9449 18.2465 22.2441 18.2325 22.4529 18.3465C22.7842 18.5785 22.9327 18.8665 23.4467 18.7525C24.2317 18.5385 24.7015 18.1585 24.7135 17.5585C24.6674 16.9885 24.6031 16.4185 24.3562 15.8485C24.3903 15.7445 24.2056 15.4765 24.2397 15.3725C24.3803 15.5925 24.5951 15.5745 24.6433 15.3725C24.5108 14.9345 24.304 14.5145 23.9667 14.3325C23.6896 14.0885 23.2841 14.1385 23.1355 14.6465C23.0672 15.2305 23.3483 15.9265 23.7739 16.4925C23.8643 16.7145 23.9928 17.0825 23.9366 17.4145C23.7097 17.5425 23.4808 17.4905 23.2921 17.2905C23.2921 17.2905 22.6677 16.8245 22.6677 16.7205C22.8343 15.6645 22.7059 15.5445 22.6135 15.2525C22.5493 14.8485 22.3565 14.7185 22.1999 14.4425C22.0433 14.2785 21.8325 14.2785 21.7321 14.4425C21.4551 14.9185 21.5836 15.9425 21.7843 16.4005C21.9269 16.8205 22.1477 17.0865 22.0433 17.0865C21.957 17.3245 21.7803 17.2685 21.6518 16.9945C21.4671 16.4265 21.431 15.5805 21.431 15.1985C21.3748 14.7265 21.3145 13.7165 21.0033 13.4605C20.8126 13.2025 20.5295 13.3265 20.4312 13.5645C20.4111 14.0325 20.4071 14.5025 20.4613 14.9365C20.6741 15.6945 20.7423 16.3625 20.8467 17.1405C20.8748 18.1825 20.2424 17.5925 20.2705 17.0765C20.4171 16.4065 20.379 15.3505 20.2485 15.0825C20.1461 14.8165 20.0236 14.7485 19.7746 14.7925C19.5779 14.7765 19.0679 15.3325 18.9234 16.2525C18.9234 16.2525 18.8009 16.7265 18.7487 17.1485C18.6784 17.6245 18.3653 17.9605 18.1444 17.0825C17.9537 16.4445 17.8372 14.8705 17.518 15.2385C17.4257 16.4685 17.3152 18.6325 18.3632 18.8525Z" fill="#7E57C2" fill-opacity="0.8"/>
<path d="M20.2726 19.7505C19.2286 19.7705 17.7007 21.1165 17.6586 21.8625C18.7588 21.3345 19.8409 20.8265 20.9612 20.2825C20.7805 20.0125 20.9512 19.7705 20.2726 19.7505Z" fill="#7E57C2" fill-opacity="0.8"/>
<path d="M26.0286 23.7844C26.5124 22.1784 25.9503 20.9944 26.2133 21.0004C26.7694 21.5984 27.5484 21.0804 27.719 20.8724C27.7933 20.7684 27.976 20.7004 28.1045 20.8364C28.5402 21.1484 29.3071 21.0004 29.4657 20.4524C29.566 19.902 29.6277 19.3453 29.6504 18.7864C29.295 18.8964 29.03 18.9704 29.0059 19.1164L28.9317 19.5924C28.9015 19.7464 28.5944 19.7524 28.5823 19.5564C28.4478 18.9464 27.8897 18.8664 27.5524 19.8124C27.3255 19.9964 26.9159 20.0324 26.8718 19.7584C26.926 19.1244 26.669 19.0384 26.155 19.3364C25.9904 18.0784 25.8238 16.8764 25.6591 15.6184C25.874 15.6124 26.0707 15.7704 26.2655 15.5264C26.0506 14.8604 25.5969 13.5004 25.3459 13.4024C25.2235 13.2544 25.1191 13.3464 24.9605 13.3844C24.6914 13.4704 24.4405 13.7024 24.5188 14.1524C24.838 16.0824 25.0468 17.5524 25.364 19.4824C25.4122 19.7084 25.2235 20.0064 24.9785 19.9764C24.5629 19.6964 24.4585 19.1284 23.7478 19.1524C23.2319 19.1584 22.6436 19.7144 22.5713 20.2524C22.485 20.6784 22.4549 21.1424 22.5713 21.5164C22.9327 21.9484 23.3684 21.9064 23.7478 21.8084C24.059 21.6804 24.318 21.3684 24.4264 21.4424C24.5007 21.5324 24.4445 22.5584 22.9568 23.3464C22.0554 23.7484 21.3386 23.8404 20.9531 23.1084C20.7142 22.6504 20.9712 20.9104 20.383 21.3144C18.6423 25.7844 24.4585 26.4044 25.109 21.4984C25.1713 21.2964 25.4162 21.0944 25.4584 21.4244C25.3239 25.8684 20.9592 26.1744 20.2183 24.7764C20.0336 24.4464 19.9794 23.7144 19.9613 23.2744C19.8509 22.4004 19.3912 22.7364 19.3189 23.6024C19.2446 24.0844 19.2647 24.2204 19.2647 24.6824C19.4956 28.1924 25.1171 26.6844 26.0286 23.7844ZM23.8603 20.7484C23.8241 20.8164 23.6655 20.7884 23.5491 20.7884C23.4166 20.7824 23.3543 20.7604 23.274 20.6544C23.2379 20.5344 23.3503 20.4204 23.4005 20.3304C23.4627 20.2244 23.798 20.1144 23.9165 20.4104C23.9384 20.4666 23.9448 20.5276 23.9349 20.5871C23.925 20.6466 23.8992 20.7023 23.8603 20.7484Z" fill="#7E57C2" fill-opacity="0.8"/>
<path d="M27.7652 16.7706C28.1145 16.6426 29.7709 14.7566 29.7709 14.7566C29.6845 14.6826 29.6082 14.6286 29.5219 14.5546C29.4296 14.4746 29.4396 14.3946 29.5219 14.3166C29.9315 14.0786 29.801 13.5566 29.5862 13.3186C29.4472 13.2507 29.2943 13.2161 29.1395 13.2174C28.9847 13.2188 28.8324 13.2562 28.6947 13.3266C28.4077 13.6006 28.3394 14.0406 28.5663 14.3166C28.7871 14.4206 29.0079 14.6426 28.8614 14.7646C28.1848 15.4846 26.3297 16.7266 26.5445 16.7706C26.5907 16.8306 27.7291 16.8286 27.7652 16.7706ZM28.9919 13.8086C29.0983 13.7826 29.2348 13.8766 29.2991 14.0166C29.3633 14.1566 29.3292 14.2906 29.2248 14.3166H29.2208C29.1164 14.3426 28.9798 14.2486 28.9156 14.1086C28.8534 13.9666 28.8875 13.8346 28.9919 13.8086ZM18.2488 25.2686C17.9757 25.8226 17.8613 25.4426 17.8372 25.1326C17.8058 24.612 17.8321 24.0895 17.9155 23.5746C17.9838 23.1346 17.9155 23.2686 17.775 23.4466C17.1546 24.4306 17.1004 25.9026 17.4437 26.3406C17.6244 26.5486 17.9235 26.6406 18.1464 26.5726C18.5359 26.4046 18.7065 25.6166 18.6142 25.3306C18.4817 25.1286 18.3793 25.0966 18.2488 25.2686ZM38.689 14.8526C39.4037 15.8086 40.0823 16.7826 40.7469 17.7746C40.8774 18.6346 40.9717 19.4746 41.0279 20.3086C41.1383 21.9166 41.1705 23.6566 41.0701 25.3506C41.3712 25.3626 41.8591 24.8626 42.0278 24.1326C42.1382 23.1226 41.9876 21.3246 41.9776 20.7286C41.9643 20.3551 41.9462 19.9817 41.9233 19.6086C42.7144 20.8966 43.4853 22.2446 44.2382 23.7426C44.5133 23.6146 44.453 22.0826 44.2924 21.8666C43.6901 20.5806 42.8609 19.3086 42.5959 18.8206C42.4975 18.6406 42.1623 18.1286 41.7627 17.5426C41.7284 17.0749 41.6722 16.6091 41.5941 16.1466C41.4696 15.2906 41.9495 16.2406 41.8832 15.7426C41.7286 14.8866 41.2508 14.3086 40.6926 13.5246C40.512 13.2706 40.518 13.2186 40.2389 13.5866C40.1403 13.8071 40.0949 14.0475 40.1064 14.2886C40.0193 14.161 39.9261 14.0375 39.8273 13.9186C39.5244 13.6582 39.2198 13.3995 38.9138 13.1426C38.7111 12.9986 38.2172 12.7386 38.1288 13.1706C38.0877 13.4734 38.1027 13.7812 38.173 14.0786C38.2252 14.2926 38.5364 14.6486 38.689 14.8526ZM40.1747 14.8046C40.2128 14.9706 40.253 15.1366 40.2791 15.3066L40.3092 15.4686C40.225 15.3514 40.1373 15.2366 40.0462 15.1246C39.7169 14.7366 39.99 14.8206 40.1747 14.8046Z" fill="#7E57C2" fill-opacity="0.8"/>
<path d="M44.4631 24.1384C43.7644 24.8644 42.7566 25.7584 41.6604 26.1724C41.5419 26.3044 41.9535 26.8704 42.4835 26.8704C43.3729 26.7664 44.1559 26.2684 44.8807 24.9584C45.0755 24.6544 45.4168 24.0004 45.4248 23.4924C45.491 20.5204 45.2762 18.2064 44.8285 16.0584C44.7985 15.8861 44.8068 15.7093 44.8526 15.5404C44.9088 15.4724 45.1056 15.5404 45.21 15.3724C45.3605 15.2164 44.8064 13.9364 44.4892 13.4444C44.3768 13.2244 44.3386 13.0764 44.1519 13.4704C43.9552 13.7904 43.8247 14.3484 43.8407 14.8684C44.2644 17.7944 44.3949 20.3564 44.6719 23.2824C44.694 23.5644 44.6518 23.9764 44.4631 24.1384ZM56.1679 16.7184C56.1378 16.5104 56.0454 16.0264 56.0816 15.9644C56.1378 15.8164 56.4289 15.9804 56.5333 15.8104C56.6859 15.6564 55.7824 14.5004 55.4672 14.0084C55.3528 13.7884 55.3146 13.6404 55.1279 14.0344C54.9312 14.3544 54.8629 14.9284 54.9412 15.4324C55.413 18.6104 55.7643 20.9984 55.8366 23.8164C55.7945 24.0844 55.7864 24.2284 55.6599 24.5644C55.3809 24.9204 55.0737 25.3644 54.7826 25.5804C54.4935 25.7944 53.8771 26.0004 53.6743 26.1584C53.0379 26.5284 53.0359 26.9504 53.5539 26.9644C54.4413 26.8604 55.4933 26.7884 56.2181 25.6964C56.4128 25.3924 56.6437 24.5664 56.6537 24.0584C56.72 21.0864 56.6156 18.8664 56.1679 16.7184ZM49.4402 19.1924C49.4482 18.7844 49.4863 18.2444 49.5084 17.9064C49.5184 17.7804 49.5486 17.6384 49.669 17.6064C49.7915 17.5744 50.0083 17.7304 50.0103 17.5984C49.9862 17.3404 49.934 16.9564 49.7875 16.7744C49.5867 16.4784 49.0547 16.5504 48.9603 17.0144C48.9623 17.1864 49.0406 17.2784 49.0266 17.4344C49.0025 17.5224 48.9101 17.5824 48.6913 17.4784C48.7274 17.4464 48.5487 17.2004 48.5487 17.2004C48.3781 17.0964 48.1492 17.2064 48.0026 17.3004C47.9496 17.4013 47.918 17.5119 47.9097 17.6254C47.9014 17.739 47.9166 17.853 47.9545 17.9604C48.1954 18.4144 49.0366 19.1844 49.4402 19.1924Z" fill="#7E57C2" fill-opacity="0.8"/>
<path d="M49.157 15.7145C49.7453 16.4325 50.3456 17.1605 50.9499 17.9005C51.0804 19.5525 51.1145 20.9045 51.243 22.5565C51.2249 23.2565 51.0081 23.8665 50.8013 23.9545C50.8013 23.9545 50.4901 24.1345 50.2813 23.9365C50.1288 23.8745 49.5204 22.9265 49.5204 22.9265C49.2092 22.6425 49.0045 22.7225 48.7836 22.9265C48.1733 23.5125 47.8982 24.6125 47.4846 25.3685C47.3762 25.5385 47.0751 25.6825 46.7398 25.3565C45.8905 24.1985 46.3884 22.5525 46.284 22.9765C45.5272 23.8265 45.8604 25.2325 46.0311 25.5365C46.28 26.0325 46.4828 26.3525 46.9687 26.5985C47.4104 26.9225 47.7557 26.7185 47.9444 26.4925C48.3901 26.0305 48.3961 24.8605 48.6049 24.6245C48.7495 24.1985 49.1209 24.2705 49.2996 24.4605C49.4632 24.6905 49.6802 24.8778 49.932 25.0065C50.3476 25.3725 50.8435 25.4385 51.3314 25.1045C51.6646 24.9185 51.8835 24.6765 52.0782 24.1985C52.295 23.6225 52.1766 20.9745 52.1324 19.3865C52.4436 19.7865 52.7468 20.2045 53.0539 20.6225C53.1885 21.9485 53.2648 23.2685 53.2206 24.6165C53.1885 24.8865 54.1642 23.8165 54.1562 23.3085C54.1521 22.8985 54.1562 22.5265 54.1562 22.1765C54.626 22.8805 55.0837 23.6065 55.5134 24.3745C55.7824 24.2345 55.694 22.7245 55.5234 22.5165C55.0275 21.6885 54.367 20.8265 53.9112 20.2105C53.8811 20.1325 53.865 20.0445 53.8289 19.9705C53.6462 19.5485 53.7606 19.2085 53.6743 18.7605C53.59 18.3105 53.6121 17.6385 53.4816 17.1045C53.4454 16.8965 53.337 16.2285 53.3691 16.1665C53.4213 16.0165 53.6221 16.1705 53.7205 15.9985C53.8671 15.8385 53.2126 14.1485 52.8793 13.6645C52.7588 13.4485 52.542 13.5225 52.273 13.8745C52.026 14.1065 52.1184 14.6345 52.2127 15.1365C52.4476 16.3525 52.6444 17.5185 52.813 18.6725C52.452 18.1943 52.0873 17.719 51.7188 17.2465L51.7028 17.1585C51.7028 17.1365 51.6486 16.1105 51.6004 15.8665C51.5924 15.7685 51.5683 15.7385 51.6727 15.7505C51.7831 15.8425 51.7971 15.8485 51.8674 15.8805C51.9798 15.9005 52.0782 15.7105 52.012 15.5365L50.974 13.6325C50.8917 13.5505 50.7833 13.4625 50.6528 13.6545C50.5717 13.725 50.5068 13.812 50.4625 13.9096C50.4182 14.0073 50.3954 14.1133 50.3958 14.2205C50.4279 14.6705 50.5062 15.1305 50.5363 15.5825L50.5805 15.8265C50.5343 15.7725 50.4781 15.7045 50.454 15.6805C49.5726 14.7565 50.8596 15.5305 50.2854 14.8165C49.7995 14.2845 49.659 14.1185 49.2414 13.7985C49.0326 13.6645 48.9061 13.4085 48.8378 13.8445C48.8035 14.2268 48.7934 14.6109 48.8077 14.9945C48.8077 15.1785 48.9944 15.5145 49.157 15.7145ZM31.2867 17.8725C31.7926 18.0805 32.1159 17.1205 32.3247 16.0685C32.4652 15.7725 32.5736 15.7405 32.6459 15.8925C32.6278 17.2925 32.7463 17.6025 33.1076 18.0285C33.9127 18.6485 34.5793 18.1065 34.6335 18.0545L35.2599 17.4305C35.3984 17.2845 35.5851 17.2745 35.7819 17.4045C35.9746 17.5765 35.9485 17.8765 36.3581 18.0845C36.7034 18.2225 37.4422 18.1165 37.6129 17.8205C37.8438 17.4285 37.9 17.2925 38.0044 17.1445C38.169 16.9265 38.4501 17.0245 38.4501 17.0925C38.424 17.2145 38.2594 17.3365 38.3718 17.5545C38.5685 17.7005 38.6127 17.6065 38.7291 17.5745C39.1387 17.3785 39.4439 16.4945 39.4439 16.4945C39.462 16.1645 39.2772 16.1925 39.1568 16.2605C39.0002 16.3545 38.9901 16.3865 38.8335 16.4825C38.6328 16.5125 38.2453 16.6445 38.0546 16.3485C37.8578 15.9925 37.8538 15.4965 37.7052 15.1385C37.7052 15.1125 37.4442 14.5725 37.6872 14.5385C37.8096 14.5605 38.0686 14.6285 38.1108 14.4125C38.2373 14.2005 37.8357 13.5965 37.5627 13.2905C37.3238 13.0305 36.9925 12.9985 36.6733 13.2645C36.4484 13.4705 36.4805 13.6985 36.4364 13.9165C36.3999 14.0703 36.4 14.2305 36.4366 14.3843C36.4732 14.5381 36.5453 14.6813 36.6472 14.8025C36.87 15.2405 37.2776 15.8065 37.1431 16.5985C37.1431 16.5985 36.9062 16.9745 36.4906 16.9265C36.3179 16.8885 36.0369 16.8145 35.8883 15.7145C35.7759 14.8805 35.9164 13.7145 35.561 13.1685C35.4325 12.8385 35.3402 12.5205 35.027 13.0845C34.9427 13.3065 34.5813 13.6425 34.8443 14.3365C35.0591 14.7745 35.1454 15.4885 35.0491 16.2845C34.9005 16.5105 34.8684 16.5865 34.6736 16.8125C34.4006 17.1045 34.1055 17.0305 33.8786 16.9205C33.6658 16.7785 33.5012 16.7045 33.4048 16.2525C33.4229 15.5325 33.463 14.3525 33.3305 14.1025C33.1358 13.7145 32.8145 13.8545 32.676 13.9725C32.0155 14.5745 31.6902 15.5885 31.4915 16.3945C31.3088 16.9825 31.114 16.8145 30.9775 16.5765C30.6442 16.2645 30.6221 13.8305 30.2186 14.2325C29.5701 16.0605 30.584 18.0685 31.2867 17.8725Z" fill="#7E57C2" fill-opacity="0.8"/>
<path d="M40.8854 21.8004L40.6927 21.6904L36.9163 21.6724C36.7215 21.5984 36.7797 21.5344 36.9163 21.4824C37.8177 21.3604 39.4219 21.1004 39.5283 19.5664C39.5102 18.7684 39.1829 18.2444 38.1992 18.1004C37.4784 18.1564 36.9624 18.8544 37.0448 19.6204C37.0106 19.8284 37.113 20.2324 36.9022 20.2784C35.5149 20.4044 34.0031 21.2684 33.9529 21.8884C33.8686 21.9464 33.6799 21.7784 33.704 21.5144C33.6371 20.3851 33.3109 19.2862 32.7503 18.3024C32.3127 17.8664 32.4492 18.0104 32.1561 18.2164C31.9673 18.4324 31.9332 18.5804 31.9432 19.0104C31.9432 19.0264 32.2966 20.0084 32.5957 20.6964C32.7945 21.4024 32.9812 22.2084 32.8467 22.9704C32.3809 23.9784 31.4433 24.8824 30.5399 25.3724C30.0741 25.5224 29.6746 25.4684 29.5762 25.3644C29.2891 25.1724 29.3031 24.8184 29.3252 24.8124C30.0861 24.2824 30.9575 23.8564 31.6401 22.4304C31.8409 21.8864 31.9011 21.5564 31.7023 20.7144C31.6471 20.4177 31.5102 20.1421 31.3068 19.9184C31.4293 19.8384 31.7806 20.1044 31.8348 19.9464C31.733 19.4855 31.5027 19.0627 31.1703 18.7264C30.8993 18.4804 30.6041 18.4524 30.3552 18.6784C30.0741 18.8344 30.0139 19.3904 30.1484 19.8784C30.2969 20.2464 30.7005 20.3084 30.9896 21.0464C30.9896 21.0624 31.094 21.5984 30.9454 21.8084C30.827 22.1764 29.2911 23.3784 29.2068 23.4324C29.1646 23.4844 29.1827 23.4064 29.1767 23.2064C29.1666 22.9624 29.275 22.3864 29.2449 22.3824C28.745 22.7044 28.5784 23.6904 28.488 23.9824C27.2232 24.8524 25.7917 25.5004 24.9645 26.3844C24.5329 27.0544 27.9319 25.6144 28.3274 25.4404C28.4158 25.5044 28.4057 25.8064 28.6426 26.0764C28.996 26.5524 29.7428 26.8464 30.4756 26.6644C31.7003 26.2224 32.409 25.3904 33.1278 24.4684C33.2302 24.3184 33.3908 24.2044 33.5394 24.3184C34.0332 25.4204 35.4607 26.2004 37.3017 26.2824C37.7294 25.7644 37.5226 25.5144 37.3499 25.4064C37.3499 25.3904 36.4404 25.0464 36.3019 24.7024C36.2176 24.3904 36.4224 24.1164 36.8319 23.9084C38.0145 23.7664 39.1769 23.6084 40.3032 23.2484C40.3153 22.8724 40.5341 22.3084 40.6847 22.0644C40.8292 21.8164 40.9075 21.8904 40.8854 21.8004ZM37.7796 19.4564C37.8358 19.3624 38.0225 19.3664 38.1972 19.4684C38.3718 19.5684 38.4702 19.7284 38.412 19.8224C38.3558 19.9184 38.167 19.9124 37.9924 19.8104C37.8177 19.7104 37.7234 19.5524 37.7796 19.4564ZM36.2598 23.2564C35.8542 23.3944 35.4647 23.5024 35.4647 24.0864C35.6153 24.8984 35.2579 24.6204 35.0471 24.5084C34.7982 24.3304 34.0975 23.9004 33.9971 22.9724C33.981 22.7504 34.1557 22.5644 34.4348 22.5644C34.8544 22.6784 35.4748 22.6864 36.0128 22.7424C36.4525 22.7704 36.6713 23.1144 36.2598 23.2564ZM22.2723 14.2464C22.7059 14.4544 23.525 14.3664 23.4889 13.6664C23.4889 13.6044 23.4728 13.3964 23.4668 13.3404C23.3785 13.1344 23.1376 13.1844 23.0813 13.3984C23.0633 13.4684 23.1115 13.5804 23.0492 13.6164C23.0131 13.6524 22.8746 13.6304 22.8806 13.4384C22.8806 13.3764 22.8344 13.3104 22.8083 13.2724C22.7802 13.2544 22.7641 13.2484 22.7139 13.2484C22.6537 13.2504 22.6537 13.2664 22.6216 13.3184C22.6075 13.3684 22.5875 13.4204 22.5875 13.4784C22.5794 13.5464 22.5533 13.5704 22.5031 13.5824C22.4469 13.5824 22.459 13.5884 22.4148 13.5584C22.3867 13.5284 22.3526 13.5164 22.3526 13.4664C22.3524 13.408 22.3429 13.3499 22.3245 13.2944C22.3004 13.2624 22.2622 13.2484 22.218 13.2364C21.9811 13.2364 21.9651 13.5064 21.9791 13.6104C21.957 13.6284 21.949 14.1124 22.2723 14.2464Z" fill="#7E57C2" fill-opacity="0.8"/>
<path d="M35.6152 18.8064C35.6152 18.7444 35.569 18.6804 35.5429 18.6404C35.5148 18.6224 35.4988 18.6164 35.4486 18.6164C35.3884 18.6184 35.3904 18.6344 35.3562 18.6864C35.3422 18.7384 35.3221 18.7884 35.3221 18.8464C35.3161 18.9164 35.288 18.9404 35.2378 18.9504C35.1816 18.9504 35.1936 18.9564 35.1474 18.9284C35.1193 18.8984 35.0852 18.8864 35.0852 18.8364C35.0852 18.7779 35.0757 18.7199 35.0571 18.6644C35.033 18.6324 34.9949 18.6184 34.9507 18.6084C34.7138 18.6084 34.6977 18.8784 34.7098 18.9804C34.6917 19.0004 34.6817 19.4824 35.0049 19.6184C35.4406 19.8244 36.4745 19.7044 36.2215 19.0384C36.2173 18.9289 36.21 18.8195 36.1995 18.7104C36.1111 18.5044 35.8682 18.5564 35.814 18.7684C35.7979 18.8384 35.8461 18.9504 35.7819 18.9864C35.7497 19.0224 35.6092 19.0004 35.6152 18.8064ZM42.4353 17.3924C42.869 17.6004 43.6861 17.5124 43.65 16.8144C43.6457 16.7049 43.6384 16.5955 43.6279 16.4864C43.5395 16.2804 43.2986 16.3324 43.2444 16.5444C43.2263 16.6144 43.2745 16.7264 43.2103 16.7624C43.1741 16.7984 43.0356 16.7784 43.0416 16.5844C43.0416 16.5224 42.9955 16.4564 42.9694 16.4184C42.9412 16.4004 42.9252 16.3944 42.873 16.3944C42.8128 16.3984 42.8148 16.4124 42.7806 16.4644C42.7666 16.5164 42.7465 16.5664 42.7465 16.6244C42.7385 16.6944 42.7124 16.7184 42.6622 16.7284C42.606 16.7284 42.618 16.7344 42.5718 16.7064C42.5437 16.6764 42.5116 16.6644 42.5116 16.6144C42.5114 16.5553 42.5019 16.4966 42.4835 16.4404C42.4574 16.4084 42.4213 16.3944 42.3751 16.3844C42.1382 16.3844 42.1221 16.6544 42.1362 16.7564C42.1221 16.7764 42.1121 17.2584 42.4353 17.3924ZM42.7284 14.6884C42.883 15.1204 42.61 15.5324 42.7726 15.5924C42.9192 15.6604 43.128 15.1464 43.2043 14.6724C43.2946 14.2884 43.0196 13.5024 42.6301 13.3404C42.3932 13.2844 42.0559 13.4244 42.1643 13.7404C42.1101 13.8924 42.6421 14.4084 42.7284 14.6884ZM46.7338 24.8164C47.0369 24.8184 47.3862 24.1264 47.5348 23.4404C47.6171 22.4964 47.4786 21.9224 47.4545 21.3664C47.4284 20.8124 46.8261 16.5824 46.7016 16.1624C46.5551 15.3684 47.2899 16.0564 47.2096 15.5944C46.9546 15.0124 46.3222 14.1664 46.1214 13.6604C46.001 13.4444 46.0532 13.2524 45.7841 13.6044C45.5372 14.4144 45.4508 15.0744 45.5452 15.5784C46.1837 18.8984 46.8382 21.6584 46.7338 24.8164ZM54.2746 16.1364C54.3449 16.3524 54.1682 17.0504 54.3148 17.1144C54.4493 17.1864 54.638 16.6324 54.7083 16.1184C54.7464 15.8364 54.5396 14.8524 54.1843 14.6764C53.9674 14.6164 53.6602 14.7664 53.7606 15.1104C53.7104 15.2764 54.1963 15.8324 54.2746 16.1364ZM27.9359 23.4484C28.0664 23.5024 28.245 23.0944 28.3133 22.7164C28.3514 22.5084 28.1507 21.7864 27.8114 21.6564C27.6026 21.6124 27.3175 21.6684 27.4058 21.9764C27.3958 22.1424 27.8676 22.3424 27.8957 22.7284C27.964 22.8884 27.7953 23.4024 27.9359 23.4484ZM18.7889 14.2184C18.8551 14.3844 18.7226 14.9144 18.8611 14.9644C18.9876 15.0204 19.1663 14.5964 19.2326 14.2064C19.2707 13.9904 19.2406 13.2584 18.7387 13.1084C18.5319 13.0624 18.2448 13.1764 18.3391 13.4384C18.291 13.5624 18.7146 13.9864 18.7889 14.2184ZM28.6305 16.5644C28.247 16.7724 28.0965 17.3884 28.3374 17.7464C28.5602 18.0644 28.9136 17.9464 28.9618 17.9464C29.3392 17.9924 29.5621 17.2424 29.5621 17.2424C29.5621 17.2424 29.5741 17.0324 29.1264 17.4304C28.9377 17.4664 28.9136 17.3964 28.8674 17.2884C28.8217 17.0927 28.8422 16.8874 28.9256 16.7044C28.9899 16.5184 28.8453 16.4364 28.6305 16.5644ZM31.5256 14.2584C31.5875 14.2203 31.6406 14.1696 31.6814 14.1097C31.7222 14.0497 31.7499 13.9818 31.7625 13.9104C31.8207 13.6184 31.4513 14.0484 31.4051 13.7224C31.3228 13.4204 31.5597 13.2964 31.7846 13.0044C31.7926 12.8024 31.7886 12.6604 31.5135 12.8244C31.3208 12.9544 30.9353 13.3504 30.9233 13.8064C30.9112 14.0644 30.863 14.0624 31.0337 14.2264C31.1562 14.4044 31.2786 14.3864 31.5256 14.2584ZM34.1336 14.4144C34.3825 13.7424 34.3825 13.4584 34.4006 13.1724C34.3243 12.7384 34.0292 12.7524 33.8344 13.2344C33.7501 13.4164 33.6517 14.3744 33.6678 14.3744C33.6015 14.6604 33.9669 14.7824 34.1336 14.4144ZM50.5363 19.1804C50.5363 19.1804 48.5226 20.6064 48.4744 20.6564C48.2736 20.8324 48.374 21.4564 48.4744 21.3844C48.617 21.4404 50.6427 20.0704 50.6026 19.9104C50.6969 19.9144 50.7431 19.1084 50.5363 19.1804ZM50.2894 23.0484C50.4239 23.1204 50.7792 22.6824 50.7652 22.1364C50.8053 21.8544 50.6628 20.8204 50.3094 20.6444C50.0926 20.5844 49.8035 20.7684 49.9039 21.1104C49.8537 21.2744 50.1528 21.8484 50.2311 22.1524C50.3014 22.3704 50.1428 22.9844 50.2894 23.0484ZM38.8857 26.0404C38.8857 26.0584 39.0564 26.2044 39.2572 26.0884C39.6788 25.9264 39.9438 25.7704 40.534 25.6404C40.6886 25.6384 40.6786 25.2244 40.4337 25.2104C40.1144 25.2264 39.8173 25.2424 39.4981 25.4944C39.3013 25.5384 39.2692 25.4204 39.225 25.3124C39.1768 25.0464 39.3355 24.8624 39.3013 24.6644C39.3134 24.6764 39.1186 24.4984 38.9199 24.5984C38.9098 24.5984 38.4762 24.8904 38.3376 25.0944C38.2513 25.1604 38.2613 25.2164 38.2874 25.3264C38.3537 25.4784 38.4722 25.4324 38.6047 25.3604C38.7813 25.3364 38.8657 25.4524 38.8516 25.6624C38.7673 25.9284 38.8857 26.0264 38.8857 26.0404ZM52.038 26.3724C51.9718 26.4864 51.9276 26.6584 52.1324 26.7124C52.5098 26.8184 53.3792 26.2544 53.3792 26.2444C53.5197 26.1384 53.4735 25.9404 53.4615 25.9404C53.3792 25.8464 53.1945 25.9004 53.07 25.8864C53.0118 25.8864 52.815 25.8564 52.9094 25.6844C52.9757 25.5917 53.0285 25.49 53.066 25.3824C53.1242 25.2524 53.074 25.1664 52.8612 25.0964C52.6464 25.0564 52.56 25.0764 52.3211 25.0964C52.1926 25.1244 52.1485 25.1804 52.1244 25.3364C52.1344 25.5724 52.277 25.5604 52.4255 25.6544C52.5119 25.7644 52.5681 25.8644 52.4195 26.0424C52.279 26.1724 52.1806 26.2444 52.038 26.3724ZM51.6526 36.7524H48.6411V35.7524C48.6411 35.4872 48.5353 35.2328 48.347 35.0453C48.1588 34.8578 47.9034 34.7524 47.6372 34.7524C47.371 34.7524 47.1156 34.8578 46.9274 35.0453C46.7391 35.2328 46.6334 35.4872 46.6334 35.7524V36.7524H22.5412C22.5412 36.7524 22.5412 38.7524 28.5643 38.7524H46.6334V39.7524C46.6334 40.0176 46.7391 40.272 46.9274 40.4595C47.1156 40.6471 47.371 40.7524 47.6372 40.7524C47.9034 40.7524 48.1588 40.6471 48.347 40.4595C48.5353 40.272 48.6411 40.0176 48.6411 39.7524V38.7524H50.6487V39.7524C50.6487 40.0176 50.7545 40.272 50.9427 40.4595C51.131 40.6471 51.3863 40.7524 51.6526 40.7524C51.9188 40.7524 52.1741 40.6471 52.3624 40.4595C52.5506 40.272 52.6564 40.0176 52.6564 39.7524V37.7524C52.6564 37.4872 52.5506 37.2328 52.3624 37.0453C52.1741 36.8578 51.9188 36.7524 51.6526 36.7524Z" fill="#7E57C2" fill-opacity="0.8"/>
</svg>
