<svg width="70" height="48" viewBox="0 0 70 48" fill="none" xmlns="http://www.w3.org/2000/svg">
<path d="M69.8182 36C69.8182 42.6273 66.1385 48 58.9091 48H10.9091C3.67964 48 0 42.6273 0 36V12C0 5.37273 3.67964 0 10.9091 0H58.9091C66.1385 0 69.8182 5.37273 69.8182 12V36Z" fill="#9575CD" fill-opacity="0.8"/>
<path d="M62.3345 24.8618L35.0727 44.0182L7.80981 24.8618L35.0727 5.70544L62.3345 24.8618Z" fill="#B39DDB" fill-opacity="0.8"/>
<path fill-rule="evenodd" clip-rule="evenodd" d="M45.8291 28.1978C44.5876 32.4163 40.7029 35.628 36.3044 36.0643C30.4276 36.6523 25.2862 32.9171 24.036 27.1429C23.6661 25.446 23.7133 23.6848 24.1734 22.0102C24.3447 21.8247 24.5814 21.78 24.8171 21.7473C26.5359 21.5086 28.2735 21.433 30.0065 21.5214C31.8556 21.6262 33.6894 21.8825 35.472 22.3865C37.3014 22.9047 39.0731 23.5811 40.7454 24.48C42.004 25.1486 43.2061 25.9184 44.34 26.7818C44.724 27.0796 45.1156 27.372 45.4844 27.6894C45.6491 27.8313 45.7778 27.984 45.828 28.1978" fill="#7E57C2" fill-opacity="0.8"/>
<path fill-rule="evenodd" clip-rule="evenodd" d="M24.7898 20.3029C26.1982 17.1556 28.5731 15.06 31.8556 14.076C38.4665 12.0938 45.2487 16.4629 46.2316 23.2767C46.3844 24.3295 46.3909 25.3855 46.2294 26.4404C46.0625 26.5025 45.9382 26.4142 45.8236 26.3193C44.6255 25.3402 43.3472 24.4637 42.0022 23.6989C40.9665 23.1112 39.8903 22.5979 38.7818 22.1629C38.5854 22.0855 38.3389 22.0451 38.2713 21.7822C38.3422 21.6556 38.4316 21.5455 38.5385 21.4429C38.5767 21.4036 38.6324 21.3655 38.5811 21.3C38.5636 21.2793 38.5276 21.2793 38.4971 21.2826C38.4153 21.2913 38.4262 21.348 38.4294 21.408C38.436 21.6033 38.3225 21.7287 38.1731 21.8291C37.908 21.8891 37.6538 21.8095 37.4389 21.6949C36.8236 21.372 36.1429 21.2618 35.4916 21.0818C34.476 20.8058 33.4331 20.6498 32.3924 20.4873C31.5618 20.3547 30.7257 20.2593 29.8865 20.2015C29.1229 20.148 28.3451 20.1556 27.576 20.208C26.7371 20.2669 25.896 20.3258 25.0614 20.4262C25.0091 20.4338 24.9557 20.4263 24.9075 20.4044C24.8594 20.3826 24.8185 20.3473 24.7898 20.3029" fill="#7E57C2" fill-opacity="0.8"/>
<path fill-rule="evenodd" clip-rule="evenodd" d="M38.28 21.7146C38.2757 21.8477 38.3946 21.8302 38.4666 21.8586C41.2837 22.9545 43.9035 24.502 46.2229 26.4404C46.156 27.0389 46.0236 27.6283 45.828 28.1979C44.4633 27.0655 43.0658 25.9866 41.52 25.1052C36.6338 22.3222 31.4018 21.2193 25.8087 21.8106C25.2633 21.8662 24.7178 21.9404 24.1724 22.007C24.3131 21.4168 24.492 20.8375 24.7855 20.3008C28.8687 19.7499 32.8811 20.063 36.8182 21.2815C37.3069 21.4332 37.7727 21.6775 38.2942 21.7233L38.28 21.7113" fill="#D1C4E9" fill-opacity="0.8"/>
<path fill-rule="evenodd" clip-rule="evenodd" d="M43.3636 28.7454C43.0353 28.7105 43.392 29.1131 43.0603 29.1043C42.7713 29.1 42.756 28.8687 42.6142 28.74C42.7233 28.6265 42.9163 28.6036 42.9774 28.4269C43.0189 28.6134 43.1945 28.6527 43.3636 28.7454Z" fill="#D1C4E9" fill-opacity="0.8"/>
<path fill-rule="evenodd" clip-rule="evenodd" d="M30.9752 30.7637C30.6665 30.7997 30.9251 31.1357 30.6665 31.1411C30.4058 31.1466 30.2716 30.9535 30.2192 30.7538C30.2007 30.6971 30.4516 30.5706 30.5749 30.4767C30.5901 30.6742 30.7952 30.6655 30.9752 30.7637Z" fill="#D1C4E9" fill-opacity="0.8"/>
<path fill-rule="evenodd" clip-rule="evenodd" d="M35.0618 30.156C34.6331 30.4331 34.9789 29.8069 34.7269 29.868C34.8087 29.7371 35.04 29.7677 35.0553 29.5669C35.1644 29.6804 35.2571 29.8113 35.4306 29.8353C35.1829 29.8015 35.4524 30.3513 35.0618 30.156" fill="#D1C4E9" fill-opacity="0.8"/>
<path fill-rule="evenodd" clip-rule="evenodd" d="M26.2036 22.8055C26.1011 23.0007 26.0236 23.2189 25.7127 23.088C25.5534 23.0215 25.7236 22.8033 25.5327 22.7826L25.8862 22.4716C25.9102 22.5229 25.9385 22.572 25.9625 22.6233C25.9909 22.7531 26.2494 22.5807 26.2036 22.8055" fill="#D1C4E9" fill-opacity="0.8"/>
<path fill-rule="evenodd" clip-rule="evenodd" d="M27.1931 27.5455C27.0306 27.5968 27.1473 28.0244 26.7982 27.8378C26.7633 27.8204 26.6106 27.9044 26.6389 27.8553C26.7306 27.6764 26.5255 27.5891 26.5571 27.4462C26.748 27.5291 26.7371 27.18 26.9324 27.2738C26.9466 27.2848 26.9466 27.3284 26.9564 27.3568C26.9771 27.492 27.2411 27.3229 27.1931 27.5455Z" fill="#D1C4E9" fill-opacity="0.8"/>
<path fill-rule="evenodd" clip-rule="evenodd" d="M25.4771 28.8087C25.1421 28.9255 25.392 28.5207 25.2 28.524C25.2894 28.4487 25.3898 28.308 25.4792 28.3134C25.5861 28.3189 25.6843 28.4509 25.7825 28.5262C25.6363 28.5753 25.7901 28.9713 25.4771 28.8087" fill="#D1C4E9" fill-opacity="0.8"/>
<path fill-rule="evenodd" clip-rule="evenodd" d="M38.4218 32.6695C38.0673 32.8309 38.412 32.3542 38.1753 32.4164C38.1513 32.2342 38.4469 32.3444 38.4098 32.1524L38.7295 32.4087C38.5996 32.4676 38.7295 32.8386 38.4218 32.6695" fill="#D1C4E9" fill-opacity="0.8"/>
<path fill-rule="evenodd" clip-rule="evenodd" d="M40.6909 32.4065C40.3974 32.5287 40.5774 32.1338 40.4192 32.0945C40.5261 32.0258 40.6385 31.9527 40.7432 31.8818C40.752 32.0433 40.9734 31.9844 40.9974 32.1273C40.8327 32.1371 41.004 32.4927 40.6909 32.4065" fill="#D1C4E9" fill-opacity="0.8"/>
<path fill-rule="evenodd" clip-rule="evenodd" d="M42.7309 30.9382C42.3971 31.1073 42.6436 30.6633 42.4527 30.6819C42.4909 30.5401 42.7101 30.5935 42.7232 30.4299L43.0363 30.6644C42.8454 30.659 43.08 31.127 42.7309 30.9382" fill="#D1C4E9" fill-opacity="0.8"/>
<path fill-rule="evenodd" clip-rule="evenodd" d="M29.2178 28.9015C28.8687 29.099 29.0967 28.6571 28.9353 28.6484C28.9516 28.4859 29.1982 28.5557 29.2091 28.3833C29.2418 28.5426 29.4534 28.4968 29.4993 28.6397C29.2909 28.6091 29.5876 29.1099 29.2178 28.9015" fill="#D1C4E9" fill-opacity="0.8"/>
<path fill-rule="evenodd" clip-rule="evenodd" d="M30.6327 25.5874C30.4353 25.5743 30.6884 25.2633 30.4462 25.283C30.4876 25.1084 30.6742 25.1444 30.7767 25.0539C30.8291 25.1641 30.9775 25.1892 30.9851 25.3473C31.0025 25.6364 30.7462 25.487 30.6327 25.5874" fill="#D1C4E9" fill-opacity="0.8"/>
<path fill-rule="evenodd" clip-rule="evenodd" d="M36.3818 27.8913C36.0796 28.0648 36.2389 27.6775 36.0993 27.6349C36.1942 27.5564 36.2858 27.4768 36.3818 27.396C36.3884 27.5575 36.6971 27.5215 36.6098 27.6458C36.5575 27.72 36.7265 28.0593 36.3818 27.8913Z" fill="#D1C4E9" fill-opacity="0.8"/>
<path fill-rule="evenodd" clip-rule="evenodd" d="M35.0291 26.9193C34.6843 26.9542 35.04 26.6411 34.8163 26.6488C34.9036 26.5669 34.9876 26.4273 35.0858 26.4186C35.1709 26.4098 35.2691 26.5484 35.3618 26.6248C35.2407 26.7415 35.2593 27.0426 35.0291 26.9193" fill="#D1C4E9" fill-opacity="0.8"/>
<path fill-rule="evenodd" clip-rule="evenodd" d="M43.3985 29.4655C43.4694 29.6531 43.6091 29.6782 43.7181 29.7447C43.6069 29.8702 43.5632 30.0622 43.332 30.0622C43.0952 30.0644 43.2556 29.8844 43.2021 29.8004C43.0701 29.5909 43.5578 29.7676 43.3985 29.4655" fill="#D1C4E9" fill-opacity="0.8"/>
<path fill-rule="evenodd" clip-rule="evenodd" d="M40.9287 33.2662C40.8458 33.3895 40.9025 33.5073 40.6822 33.5116C40.4302 33.516 40.5109 33.3316 40.5 33.2749C40.4793 33.1811 40.6233 33.0916 40.7062 33.1102C40.7782 33.1233 40.9178 33.1636 40.9287 33.2662Z" fill="#D1C4E9" fill-opacity="0.8"/>
<path fill-rule="evenodd" clip-rule="evenodd" d="M29.1426 29.771C28.9626 29.7917 29.112 30.0273 28.884 30.0197C28.6756 30.0132 28.7062 29.8724 28.6833 29.7873C28.6473 29.6684 28.8229 29.6717 28.8622 29.5822C28.9451 29.6401 29.0291 29.6979 29.1426 29.771" fill="#D1C4E9" fill-opacity="0.8"/>
<path fill-rule="evenodd" clip-rule="evenodd" d="M40.44 31.0168C40.5175 30.959 40.5949 30.9055 40.6767 30.851C40.6833 30.972 40.944 30.9022 40.8567 31.0571C40.8207 31.1193 40.9091 31.2895 40.6833 31.2742C40.4804 31.26 40.5284 31.1182 40.44 31.0168Z" fill="#D1C4E9" fill-opacity="0.8"/>
<path fill-rule="evenodd" clip-rule="evenodd" d="M39.6109 31.3909C39.5717 31.6058 39.4495 31.6407 39.3153 31.6658C39.0873 31.704 39.2586 31.5327 39.2215 31.4672C39.1255 31.3036 39.3677 31.3352 39.396 31.2283C39.4593 31.3112 39.6044 31.3091 39.6109 31.3909Z" fill="#D1C4E9" fill-opacity="0.8"/>
<path fill-rule="evenodd" clip-rule="evenodd" d="M38.3345 24.3164C38.2582 24.3524 38.3596 24.5345 38.196 24.4822C38.0716 24.4396 37.9189 24.3807 37.9298 24.228C37.9342 24.1691 38.0825 24.12 38.1654 24.0687C38.1796 24.1789 38.4153 24.1429 38.3345 24.3164Z" fill="#D1C4E9" fill-opacity="0.8"/>
<path fill-rule="evenodd" clip-rule="evenodd" d="M44.508 29.1011C44.3029 29.1818 44.3956 29.0127 44.3596 28.9636C44.2222 28.7771 44.4938 28.8044 44.508 28.6931C44.592 28.7487 44.7556 28.812 44.7491 28.86C44.7443 28.9224 44.7174 28.9809 44.6732 29.0252C44.6289 29.0694 44.5703 29.0963 44.508 29.1011" fill="#D1C4E9" fill-opacity="0.8"/>
<path fill-rule="evenodd" clip-rule="evenodd" d="M37.4509 31.3833C37.3505 31.3364 37.3462 31.2044 37.3527 31.1411C37.3636 31.0571 37.476 30.9436 37.572 30.9894C37.6309 31.0178 37.7978 31.0014 37.7574 31.1542C37.7203 31.3004 37.5742 31.3211 37.4509 31.3833Z" fill="#D1C4E9" fill-opacity="0.8"/>
<path fill-rule="evenodd" clip-rule="evenodd" d="M41.6727 31.1912C41.6771 31.1901 41.7535 31.0843 41.8397 31.0822C41.9018 31.08 41.9651 31.2087 42.0317 31.2807C41.9422 31.3058 42.0186 31.4705 41.8418 31.4683C41.6826 31.4651 41.6826 31.3931 41.6727 31.1912Z" fill="#D1C4E9" fill-opacity="0.8"/>
<path fill-rule="evenodd" clip-rule="evenodd" d="M34.6538 28.4291C34.6244 28.5469 34.6244 28.62 34.5197 28.6178C34.4127 28.6156 34.3604 28.5764 34.3626 28.4673C34.3626 28.3811 34.4193 28.3211 34.4837 28.3265C34.5578 28.332 34.6637 28.3527 34.6538 28.4291" fill="#D1C4E9" fill-opacity="0.8"/>
<path fill-rule="evenodd" clip-rule="evenodd" d="M27.9644 26.7317C28.0167 26.7884 28.0767 26.8331 28.0996 26.8909C28.1193 26.9389 28.0887 27.012 28.0211 27.0197C27.9458 27.0262 27.8651 27.024 27.8411 26.9302C27.8193 26.8386 27.8989 26.8058 27.9644 26.7317Z" fill="#D1C4E9" fill-opacity="0.8"/>
<path fill-rule="evenodd" clip-rule="evenodd" d="M27.193 27.5455C27.1636 27.42 26.9694 27.4997 26.9563 27.3557C26.9978 27.4648 27.3218 27.2215 27.193 27.5455Z" fill="#7E57C2" fill-opacity="0.8"/>
<path fill-rule="evenodd" clip-rule="evenodd" d="M26.2036 22.8055C26.1796 22.6713 25.9735 22.7771 25.9626 22.6233C26.0204 22.715 26.3127 22.4979 26.2036 22.8055Z" fill="#7E57C2" fill-opacity="0.8"/>
<path fill-rule="evenodd" clip-rule="evenodd" d="M38.3018 21.7265C38.3225 21.6436 38.3891 21.5084 38.3629 21.4833C38.0073 21.1669 38.4818 21.1134 38.5527 21.0491C38.6825 20.9236 38.6618 21.4527 39.0043 21.1178C38.82 21.5269 38.5734 21.6447 38.2898 21.7145L38.3018 21.7265Z" fill="#D1C4E9" fill-opacity="0.8"/>
<path fill-rule="evenodd" clip-rule="evenodd" d="M27.7865 21.3873C27.4396 21.3535 27.7484 20.9019 27.6731 20.6401C27.5793 20.3019 27.8258 20.3063 28.0658 20.3052C28.4378 20.303 28.6483 20.4601 28.6483 20.8528C28.6473 21.239 28.4684 21.3917 27.7865 21.3873Z" fill="#9575CD" fill-opacity="0.8"/>
<path fill-rule="evenodd" clip-rule="evenodd" d="M41.0411 23.567C40.9647 23.8004 40.6822 23.9466 40.6342 24.2346C40.6298 24.2728 40.5207 24.2652 40.5 24.1539C40.4127 23.6324 40.4084 23.6335 40.0233 23.9128C39.9927 23.9357 39.9393 23.9564 39.9098 23.9466C39.8531 23.9215 39.8302 23.8648 39.864 23.8004C39.9916 23.5517 40.1116 23.2964 40.2545 23.0554C40.3505 22.8961 40.4673 23.0292 40.5611 23.075C40.7673 23.1764 41.0214 23.2343 41.0411 23.567" fill="#9575CD" fill-opacity="0.8"/>
<path fill-rule="evenodd" clip-rule="evenodd" d="M42.0175 24.4157C41.8167 24.4964 41.7196 24.3448 41.5909 24.2902C41.5036 24.2531 41.4218 24.2182 41.3629 24.3153C41.2986 24.4179 41.3629 24.4768 41.4513 24.5226C41.5189 24.5564 41.5909 24.5826 41.6411 24.636C41.7295 24.7288 42.0066 24.7037 41.8942 24.9011C41.8058 25.0582 41.6575 24.8749 41.5593 24.8171C41.3902 24.7135 41.0553 24.6568 41.0913 24.4768C41.1469 24.1877 41.3116 23.8735 41.5309 23.6749C41.7066 23.5157 41.9007 23.8168 42.0982 23.892C42.1833 23.9237 42.3284 23.952 42.3033 24.0862C42.2793 24.2248 42.1767 24.144 42.0982 24.1255C41.9138 24.0829 41.7349 23.7709 41.5898 23.9869C41.5026 24.1157 41.8615 24.1691 41.9749 24.3109C41.9924 24.3317 41.9967 24.36 42.0175 24.4157" fill="#9575CD" fill-opacity="0.8"/>
<path fill-rule="evenodd" clip-rule="evenodd" d="M44.3684 25.9582C44.4011 26.2135 44.2975 26.3869 44.0302 26.3433C43.7531 26.2975 43.5426 26.1284 43.4946 25.8251C43.4902 25.7946 43.5273 25.7324 43.5578 25.7236C43.5754 25.7179 43.594 25.716 43.6124 25.7183C43.6308 25.7205 43.6484 25.7267 43.6641 25.7365C43.6798 25.7462 43.6932 25.7593 43.7033 25.7748C43.7134 25.7903 43.72 25.8079 43.7226 25.8262C43.7575 26.0346 43.8666 26.1273 44.0858 26.1316C44.1284 25.7902 43.512 25.6342 43.8666 25.2796C44.0444 25.1018 44.2615 25.2491 44.4164 25.392C44.5593 25.5218 44.7338 25.6647 44.4731 25.8502C44.436 25.8306 44.3858 25.7989 44.3586 25.8207C44.3029 25.8578 44.3575 25.9113 44.3684 25.9582Z" fill="#9575CD" fill-opacity="0.8"/>
<path fill-rule="evenodd" clip-rule="evenodd" d="M36.8335 22.7094C36.7037 22.6363 36.7102 22.5665 36.7309 22.4901C36.7724 22.3276 36.6884 22.2425 36.54 22.1967C36.3917 22.1487 36.2771 22.1552 36.2367 22.3407C36.2226 22.4236 36.1789 22.4814 36.0884 22.4509C35.9837 22.4127 36.036 22.3276 36.0557 22.2654C36.0971 22.1225 36.1342 21.9785 36.1997 21.8421C36.2586 21.7058 36.2171 21.456 36.432 21.4723C36.66 21.4887 36.9066 21.5432 37.08 21.732C37.1575 21.8149 37.1891 21.9578 37.1258 22.02C36.9415 22.2098 36.9567 22.4781 36.8335 22.7094Z" fill="#9575CD" fill-opacity="0.8"/>
<path fill-rule="evenodd" clip-rule="evenodd" d="M30.1015 21.3207C29.7491 21.4538 29.4709 21.3763 29.1993 21.3818C29.076 21.3851 29.0651 21.2923 29.0651 21.1985C29.0738 21.0949 29.0738 20.9901 29.0738 20.8865C29.0869 20.3116 29.2909 20.1643 29.856 20.3247C29.9193 20.3421 29.9793 20.3531 29.9836 20.424C29.9836 20.5221 29.9127 20.5396 29.8255 20.5374C29.8135 20.5352 29.7993 20.532 29.784 20.5341C29.6149 20.5756 29.3116 20.3847 29.3062 20.6378C29.2996 20.832 29.6302 20.6945 29.7993 20.76C29.8233 20.7698 29.8495 20.7916 29.8865 20.8189C29.7796 21.012 29.6018 20.904 29.4644 20.9269C29.3825 20.94 29.2756 20.904 29.2636 21.0371C29.2484 21.1941 29.3575 21.1865 29.4644 21.1974C29.6465 21.2192 29.844 21.1505 30.1015 21.3207" fill="#9575CD" fill-opacity="0.8"/>
<path fill-rule="evenodd" clip-rule="evenodd" d="M27.2051 21.4037C27.0153 21.3622 27.0415 21.2531 27.0088 21.1768C26.952 21.036 26.8397 21.036 26.7164 21.0458C26.5757 21.0589 26.4993 21.1135 26.5113 21.2695C26.52 21.3458 26.5506 21.4691 26.4088 21.4517C26.2866 21.4364 26.3215 21.3175 26.3149 21.2368C26.304 21.1048 26.2909 20.9695 26.304 20.8386C26.3215 20.6924 26.1818 20.4688 26.3924 20.4164C26.6095 20.3597 26.8604 20.3193 27.0862 20.4273C27.1844 20.4742 27.2618 20.5888 27.2258 20.6815C27.1429 20.9149 27.2084 21.1517 27.2051 21.4037" fill="#9575CD" fill-opacity="0.8"/>
<path fill-rule="evenodd" clip-rule="evenodd" d="M24.9021 21.0328C24.9371 20.7371 25.0669 20.4971 25.3909 20.508C25.7018 20.5179 25.8676 20.7339 25.8676 21.0448C25.8676 21.3535 25.7236 21.5662 25.3952 21.564C25.0614 21.5619 24.948 21.3197 24.9021 21.0328Z" fill="#9575CD" fill-opacity="0.8"/>
<path fill-rule="evenodd" clip-rule="evenodd" d="M45.6698 26.5746C45.6392 26.8681 45.4942 27.0895 45.1592 27.119C44.8505 27.1441 44.6869 26.9673 44.6629 26.6771C44.6356 26.3837 44.9236 26.1033 45.2171 26.1055C45.4745 26.1077 45.6632 26.2942 45.6698 26.5746Z" fill="#9575CD" fill-opacity="0.8"/>
<path fill-rule="evenodd" clip-rule="evenodd" d="M39.5454 23.16C39.792 23.3586 39.4931 23.4895 39.4822 23.6564C39.2771 23.5615 39.0207 23.5997 38.8549 23.4197C38.6782 23.2277 38.7109 23.0106 38.8265 22.799C38.9542 22.5753 39.1505 22.4793 39.3916 22.5644C39.612 22.643 39.7767 22.7913 39.6698 23.0706C39.5007 23.1011 39.3622 22.8786 39.1243 23.028C39.2825 23.1011 39.4723 22.9997 39.5454 23.16" fill="#9575CD" fill-opacity="0.8"/>
<path fill-rule="evenodd" clip-rule="evenodd" d="M33.6109 20.9128C33.4669 21.0819 33.3611 21.0164 33.2618 21.0186C33.1658 21.0186 33.0633 20.939 32.9444 21.0383C33.0513 21.2128 33.3098 21.1004 33.4102 21.2739C33.396 21.299 33.3895 21.3328 33.3709 21.3503C33.2269 21.4637 32.9967 21.1888 32.9073 21.4157C32.8255 21.611 33.0404 21.5433 33.1331 21.5761C33.2378 21.6175 33.3676 21.6023 33.4942 21.7441C33.2007 21.8728 32.8506 21.8128 32.7295 21.671C32.5386 21.4473 32.6727 21.0503 32.8178 20.8517C32.9891 20.6172 33.3022 20.8463 33.6109 20.9128" fill="#9575CD" fill-opacity="0.8"/>
<path fill-rule="evenodd" clip-rule="evenodd" d="M35.4709 21.8618C35.2232 21.8356 34.9418 21.6611 34.8709 22.0691C34.8687 22.0822 34.7825 22.1007 34.7563 22.0832C34.7269 22.0669 34.7105 22.0058 34.716 21.9709C34.7803 21.7123 34.8131 21.4352 34.9276 21.2029C35.0607 20.9411 35.2865 21.1625 35.4731 21.1876C35.6956 21.2171 35.8189 21.3523 35.7949 21.5869C35.7731 21.7887 35.6203 21.8432 35.4709 21.8618" fill="#9575CD" fill-opacity="0.8"/>
<path fill-rule="evenodd" clip-rule="evenodd" d="M38.4218 22.487C38.3978 22.8153 38.2364 23.0423 37.908 23.0521C37.6146 23.063 37.4498 22.8568 37.4564 22.5644C37.4651 22.2481 37.6189 22.019 37.9604 22.0092C38.2735 21.9983 38.3946 22.2088 38.4218 22.487" fill="#9575CD" fill-opacity="0.8"/>
<path fill-rule="evenodd" clip-rule="evenodd" d="M31.068 21.3022C31.032 21.3797 31.0025 21.4899 30.8989 21.4648C30.7189 21.4222 30.7996 21.2488 30.756 21.1353C30.6229 21.0055 30.6578 21.1844 30.6164 21.2171C30.6011 21.2979 30.6382 21.4211 30.5291 21.4375C30.3949 21.4539 30.4265 21.3252 30.4298 21.2488C30.4407 21.0895 30.4429 20.9226 30.4865 20.7699C30.5247 20.639 30.3862 20.3979 30.6469 20.3957C30.8771 20.3946 30.8269 20.6291 30.8564 20.7699C30.8869 20.9313 30.9033 21.0001 31.0353 20.8397C31.1716 20.8037 31.2 20.903 31.2316 20.999C31.2491 21.1386 31.1869 21.2357 31.068 21.3022" fill="#9575CD" fill-opacity="0.8"/>
<path fill-rule="evenodd" clip-rule="evenodd" d="M42.6873 25.3091C42.768 25.3091 42.8498 25.416 42.9284 25.3244C42.9884 25.2556 42.9349 25.188 42.8815 25.1324C42.8422 25.0898 42.8007 25.0495 42.7637 25.0036C42.6524 24.8695 42.4964 24.7407 42.6502 24.5465C42.7898 24.3687 42.9524 24.4124 43.1138 24.5247C43.1433 24.5815 43.1335 24.636 43.1029 24.6873C42.984 24.8738 43.2055 24.9873 43.2011 25.1465C43.2349 25.296 43.2567 25.4465 43.092 25.5327C42.8869 25.6418 42.7287 25.5415 42.5782 25.4105C42.5618 25.3244 42.5935 25.2818 42.6873 25.3091" fill="#9575CD" fill-opacity="0.8"/>
<path fill-rule="evenodd" clip-rule="evenodd" d="M39.5455 23.16C39.4615 23.2189 39.2924 23.028 39.2978 23.172C39.3087 23.4273 39.1811 23.4043 39.0622 23.3291C38.9018 23.2298 38.8931 23.0596 38.9946 22.9025C39.0927 22.7487 39.2313 22.6593 39.3993 22.7847C39.5018 22.86 39.5793 22.9734 39.6676 23.0705L39.5455 23.16" fill="#D1C4E9" fill-opacity="0.8"/>
<path fill-rule="evenodd" clip-rule="evenodd" d="M31.14 21.0436C31.1081 20.9763 31.0731 20.9104 31.0352 20.8462C31.0734 20.7491 31.1083 20.6509 31.1542 20.5571C31.1956 20.4687 31.2676 20.4196 31.3691 20.4524C31.4825 20.4905 31.4738 20.5778 31.4672 20.6694C31.4432 20.9367 31.4214 21.2029 31.4007 21.4702C31.2414 21.5716 31.2011 21.4789 31.1749 21.3414C31.1552 21.2422 31.2065 21.1353 31.14 21.0436Z" fill="#9575CD" fill-opacity="0.8"/>
<path fill-rule="evenodd" clip-rule="evenodd" d="M43.2044 25.1455C43.1062 25.0451 43.0015 24.9502 42.9098 24.8433C42.8029 24.7167 42.8444 24.6393 43.0036 24.6186C43.2338 24.6698 43.3746 24.7811 43.3069 25.0451C43.2753 25.0778 43.2404 25.1127 43.2044 25.1455" fill="#D1C4E9" fill-opacity="0.8"/>
<path fill-rule="evenodd" clip-rule="evenodd" d="M43.3069 25.0451C43.2011 24.9076 43.1727 24.7113 43.0036 24.6185L43.1171 24.5236C43.3003 24.6534 43.6353 24.7276 43.3069 25.0451Z" fill="#9575CD" fill-opacity="0.8"/>
<path fill-rule="evenodd" clip-rule="evenodd" d="M44.3683 25.9582C44.3542 25.9495 44.3356 25.9451 44.3291 25.9331C44.2418 25.7717 43.9527 25.6266 44.0509 25.4837C44.1742 25.3113 44.3029 25.5153 44.3705 25.6626C44.4011 25.7248 44.4382 25.7859 44.4731 25.8502C44.4371 25.8862 44.4011 25.9222 44.3683 25.9582" fill="#D1C4E9" fill-opacity="0.8"/>
<path fill-rule="evenodd" clip-rule="evenodd" d="M42.6873 25.3091C42.6524 25.3429 42.6185 25.3778 42.5782 25.4117C42.5324 25.3789 42.4691 25.356 42.4396 25.3091C42.384 25.2033 42.2247 25.0626 42.4091 24.9797C42.564 24.9055 42.564 25.1029 42.6142 25.1989C42.6349 25.2393 42.6611 25.2731 42.6873 25.3091Z" fill="#9575CD" fill-opacity="0.8"/>
<path fill-rule="evenodd" clip-rule="evenodd" d="M31.14 21.0437C31.2992 21.1059 31.2152 21.2389 31.2174 21.3382C31.2262 21.4746 31.2742 21.5204 31.4018 21.4724C31.1356 21.7299 31.1694 21.3862 31.0669 21.3099C31.0942 21.2193 31.1149 21.1309 31.14 21.0437" fill="#D1C4E9" fill-opacity="0.8"/>
<path fill-rule="evenodd" clip-rule="evenodd" d="M30.6109 21.2182V20.867C30.7614 20.915 30.7658 21.0208 30.7505 21.1364C30.7047 21.1637 30.6567 21.1899 30.6109 21.2182Z" fill="#9575CD" fill-opacity="0.8"/>
<path fill-rule="evenodd" clip-rule="evenodd" d="M27.8923 20.8582C27.9076 20.6989 27.8313 20.4917 28.1029 20.5091C28.3014 20.5211 28.4454 20.6008 28.4563 20.8277C28.4673 21.072 28.3243 21.1713 28.0985 21.1877C27.8116 21.2106 27.9283 20.9848 27.8923 20.8582" fill="#D1C4E9" fill-opacity="0.8"/>
<path fill-rule="evenodd" clip-rule="evenodd" d="M40.4727 23.2581C40.5862 23.3203 40.7596 23.3323 40.7967 23.5003C40.8152 23.5876 40.74 23.6454 40.6625 23.6203C40.5185 23.5767 40.3276 23.5745 40.308 23.3716C40.3025 23.3127 40.3658 23.2385 40.4727 23.2581Z" fill="#D1C4E9" fill-opacity="0.8"/>
<path fill-rule="evenodd" clip-rule="evenodd" d="M36.9349 21.9163C36.9055 22.0298 36.8258 22.0691 36.7342 22.0352C36.6109 21.9905 36.4124 22.0396 36.4102 21.8236C36.4058 21.7112 36.4822 21.6774 36.5847 21.7112C36.72 21.7549 36.8837 21.7494 36.9349 21.9163Z" fill="#D1C4E9" fill-opacity="0.8"/>
<path fill-rule="evenodd" clip-rule="evenodd" d="M26.7436 20.5735C26.8505 20.5865 27.0196 20.5298 27.0087 20.712C26.9978 20.8713 26.8364 20.8462 26.7207 20.8484C26.628 20.8516 26.4949 20.8996 26.4862 20.7327C26.4796 20.5342 26.6345 20.5964 26.7436 20.5735" fill="#D1C4E9" fill-opacity="0.8"/>
<path fill-rule="evenodd" clip-rule="evenodd" d="M25.3636 20.7251C25.5611 20.7382 25.6592 20.856 25.6669 21.0415C25.6778 21.2073 25.596 21.3491 25.4258 21.3644C25.2294 21.3829 25.1411 21.2335 25.1302 21.0513C25.1192 20.8833 25.1847 20.7611 25.3636 20.7251" fill="#D1C4E9" fill-opacity="0.8"/>
<path fill-rule="evenodd" clip-rule="evenodd" d="M45.4527 26.6127C45.4244 26.7938 45.3153 26.9214 45.1047 26.9214C44.9356 26.9193 44.8724 26.796 44.8898 26.6465C44.9062 26.4436 45.0273 26.3127 45.2334 26.316C45.396 26.3203 45.4593 26.4371 45.4527 26.6127" fill="#D1C4E9" fill-opacity="0.8"/>
<path fill-rule="evenodd" clip-rule="evenodd" d="M35.2146 21.3252C35.3247 21.3928 35.5462 21.323 35.5778 21.5412C35.5877 21.6241 35.496 21.6666 35.4229 21.6502C35.28 21.6186 35.0804 21.6699 35.0629 21.4397C35.0597 21.3688 35.0913 21.2924 35.2146 21.3252Z" fill="#D1C4E9" fill-opacity="0.8"/>
<path fill-rule="evenodd" clip-rule="evenodd" d="M38.2036 22.5131C38.1829 22.7018 38.0902 22.8338 37.8993 22.8338C37.7116 22.836 37.6451 22.7051 37.6538 22.5327C37.6691 22.3429 37.7771 22.2163 37.9615 22.2087C38.1447 22.2022 38.2036 22.3483 38.2036 22.5131" fill="#D1C4E9" fill-opacity="0.8"/>
</svg>
