<svg width="100" height="100" viewBox="0 0 100 100" fill="none" xmlns="http://www.w3.org/2000/svg">
<path d="M100 75C100 77.9469 98.8294 80.773 96.7456 82.8568C94.6619 84.9405 91.8357 86.1111 88.8889 86.1111H11.1111C8.16426 86.1111 5.33811 84.9405 3.25437 82.8568C1.17063 80.773 0 77.9469 0 75V25C0 22.0532 1.17063 19.227 3.25437 17.1433C5.33811 15.0595 8.16426 13.8889 11.1111 13.8889H88.8889C91.8357 13.8889 94.6619 15.0595 96.7456 17.1433C98.8294 19.227 100 22.0532 100 25V75Z" fill="#D1C4E9" fill-opacity="0.8"/>
<path d="M90.911 50L49.9999 80.9L9.08881 50L49.9999 19.0972L90.911 50Z" fill="#9575CD" fill-opacity="0.8"/>
<path d="M49.9332 67.7276C59.8406 67.7276 67.8721 59.6961 67.8721 49.7887C67.8721 39.8814 59.8406 31.8499 49.9332 31.8499C40.0258 31.8499 31.9943 39.8814 31.9943 49.7887C31.9943 59.6961 40.0258 67.7276 49.9332 67.7276Z" fill="#673AB7" fill-opacity="0.8"/>
<path d="M34.1028 41.3526C33.1711 43.1084 32.5401 45.0078 32.2361 46.9721C43.3333 46.1665 58.3944 52.2249 64.8583 59.736C65.975 58.0582 66.8027 56.1804 67.3111 54.1693C59.3333 46.3693 45.3194 41.3082 34.1028 41.3526V41.3526Z" fill="#D1C4E9" fill-opacity="0.8"/>
<path d="M33.3333 50.6473H36.1111V53.4251H33.3333V50.6473ZM36.1111 56.2028H38.8889V58.9806H36.1111V56.2028Z" fill="#D1C4E9" fill-opacity="0.8"/>
<path d="M41.6667 50.6473H44.4445V53.4251H41.6667V50.6473ZM47.2222 53.4251H50V56.2028H47.2222V53.4251ZM58.3334 58.9806H61.1111V61.7584H58.3334V58.9806ZM50 61.7584H52.7778V64.5362H50V61.7584ZM58.3334 45.0917H61.1111V47.8695H58.3334V45.0917Z" fill="#D1C4E9" fill-opacity="0.8"/>
<path d="M52.7778 56.2029H55.5555V58.9807H52.7778V56.2029Z" fill="#D1C4E9" fill-opacity="0.8"/>
</svg>
