<svg width="100" height="100" viewBox="0 0 100 100" fill="none" xmlns="http://www.w3.org/2000/svg">
<path d="M100 75C100 77.9469 98.8294 80.773 96.7456 82.8568C94.6619 84.9405 91.8357 86.1111 88.8889 86.1111H11.1111C8.16426 86.1111 5.33811 84.9405 3.25437 82.8568C1.17063 80.773 0 77.9469 0 75V25C0 22.0532 1.17063 19.227 3.25437 17.1433C5.33811 15.0595 8.16426 13.8889 11.1111 13.8889H88.8889C91.8357 13.8889 94.6619 15.0595 96.7456 17.1433C98.8294 19.227 100 22.0532 100 25V75Z" fill="#D1C4E9" fill-opacity="0.8"/>
<path d="M30.9333 24.9361L32.9778 25.9249L34.6139 24.3527L34.3056 26.6027L36.3056 27.6749L34.0722 28.0749L33.6722 30.3083L32.6 28.3083L30.35 28.6166L31.9222 26.9805L30.9333 24.9361ZM43.8917 33.1055L42.9028 35.1472L44.475 36.7861L42.2278 36.4749L41.1556 38.4777L40.7556 36.2416L38.5194 35.8416L40.5222 34.7694L40.2111 32.5222L41.85 34.0944L43.8917 33.1055ZM41.2333 43.6027L41.9778 45.7472L44.2472 45.7944L42.4389 47.1638L43.0972 49.3388L41.2333 48.0416L39.3694 49.3388L40.025 47.1638L38.2167 45.7944L40.4861 45.7472L41.2333 43.6027ZM30.9333 52.7138L32.9778 53.7027L34.6139 52.1305L34.3056 54.3805L36.3056 55.4527L34.0722 55.8527L33.6722 58.0861L32.6 56.0861L30.35 56.3944L31.9222 54.7583L30.9333 52.7138ZM19.4444 30.4194L22.025 37.8388L29.875 37.9999L23.6167 42.7444L25.8917 50.2611L19.4444 45.7749L12.9972 50.2611L15.2722 42.7444L9.01389 37.9999L16.8639 37.8388L19.4444 30.4194Z" fill="#673AB7" fill-opacity="0.8"/>
</svg>
