<svg width="70" height="50" viewBox="0 0 70 50" fill="none" xmlns="http://www.w3.org/2000/svg">
<path d="M69.2308 42.3077C69.2308 44.3478 68.4203 46.3044 66.9777 47.747C65.5352 49.1896 63.5786 50 61.5385 50H7.69231C5.65218 50 3.69561 49.1896 2.25302 47.747C0.810437 46.3044 0 44.3478 0 42.3077V7.69231C0 5.65218 0.810437 3.69561 2.25302 2.25302C3.69561 0.810437 5.65218 0 7.69231 0H61.5385C63.5786 0 65.5352 0.810437 66.9777 2.25302C68.4203 3.69561 69.2308 5.65218 69.2308 7.69231V42.3077Z" fill="#9575CD" fill-opacity="0.8"/>
<path d="M21.4154 7.64814L22.8308 8.33275L23.9635 7.24429L23.75 8.80198L25.1346 9.54429L23.5885 9.82122L23.3115 11.3674L22.5692 9.98275L21.0115 10.1962L22.1 9.06352L21.4154 7.64814ZM30.3865 13.3039L29.7019 14.7174L30.7904 15.852L29.2346 15.6366L28.4923 17.0231L28.2154 15.4751L26.6673 15.1981L28.0538 14.4558L27.8385 12.9001L28.9731 13.9885L30.3865 13.3039ZM28.5462 20.5712L29.0615 22.0558L30.6327 22.0885L29.3808 23.0366L29.8365 24.5424L28.5462 23.6443L27.2558 24.5424L27.7096 23.0366L26.4577 22.0885L28.0288 22.0558L28.5462 20.5712ZM21.4154 26.8789L22.8308 27.5635L23.9635 26.4751L23.75 28.0328L25.1346 28.7751L23.5885 29.052L23.3115 30.5981L22.5692 29.2135L21.0115 29.427L22.1 28.2943L21.4154 26.8789ZM13.4615 11.4443L15.2481 16.5808L20.6827 16.6924L16.35 19.977L17.925 25.1808L13.4615 22.0751L8.99808 25.1808L10.5731 19.977L6.24039 16.6924L11.675 16.5808L13.4615 11.4443Z" fill="#D1C4E9" fill-opacity="0.8"/>
</svg>
