<svg width="75" height="54" viewBox="0 0 75 54" fill="none" xmlns="http://www.w3.org/2000/svg">
<path d="M65.9956 0.149384H8.91865C6.75611 0.149384 4.68215 1.00845 3.15301 2.53759C1.62386 4.06673 0.764801 6.14069 0.764801 8.30323L0.764801 44.9955C0.764801 47.1581 1.62386 49.232 3.15301 50.7612C4.68215 52.2903 6.75611 53.1494 8.91865 53.1494H65.9956C68.1581 53.1494 70.2321 52.2903 71.7612 50.7612C73.2904 49.232 74.1494 47.1581 74.1494 44.9955V8.30323C74.1494 6.14069 73.2904 4.06673 71.7612 2.53759C70.2321 1.00845 68.1581 0.149384 65.9956 0.149384Z" fill="#B39DDB" fill-opacity="0.8"/>
<path d="M43.5725 0.149384H31.3417V20.534H0.764801V32.7648H31.3417V53.1494H43.5725V32.7648H74.1494V20.534H43.5725V0.149384Z" fill="#9575CD" fill-opacity="0.8"/>
</svg>
