<svg width="70" height="48" viewBox="0 0 70 48" fill="none" xmlns="http://www.w3.org/2000/svg">
<path d="M0 16.3636H69.8182V31.6364H0V16.3636Z" fill="#D1C4E9" fill-opacity="0.8"/>
<path d="M58.9091 0H10.9091C3.67964 0 0 5.37273 0 12V16.3636H69.8182V12C69.8182 5.37273 66.1385 0 58.9091 0Z" fill="#B39DDB" fill-opacity="0.8"/>
<path d="M0 36C0 42.6273 3.67964 48 10.9091 48H58.9091C66.1385 48 69.8182 42.6273 69.8182 36V31.6364H0V36Z" fill="#9575CD" fill-opacity="0.8"/>
<path fill-rule="evenodd" clip-rule="evenodd" d="M32.112 18.7637C32.0979 18.7746 32.088 18.7833 32.0804 18.7855C31.3473 19.2001 30.7746 19.7761 30.3142 20.4743C29.8311 21.2191 29.4976 22.051 29.3324 22.9233C29.2172 23.5186 29.1714 24.1252 29.196 24.731C29.2473 25.9004 29.5353 27.0033 30.1179 28.0255C30.2751 28.3062 30.4566 28.5727 30.66 28.8219C30.4331 28.7728 29.5419 28.0146 29.1775 27.5663C28.3446 26.5462 27.9059 25.2609 27.9415 23.9444C28.0168 21.2848 29.9128 19.2732 32.112 18.7626" fill="#7E57C2" fill-opacity="0.8"/>
<path fill-rule="evenodd" clip-rule="evenodd" d="M33.2193 17.1459C33.2761 17.5593 33.5663 17.8888 33.9481 17.9706C34.3168 18.0513 34.715 17.8888 34.9343 17.4851C35.1601 17.8593 35.4786 18.0589 35.9161 17.9684C36.347 17.88 36.5684 17.5735 36.6644 17.1568C36.6699 17.2157 36.6841 17.2713 36.6863 17.3269C36.7037 17.6771 36.6197 17.9946 36.3983 18.2706C36.2052 18.5073 35.9597 18.6437 35.6477 18.636C35.5234 18.6308 35.4014 18.6002 35.2894 18.5459C35.1774 18.4917 35.0777 18.4151 34.9964 18.3208L34.9386 18.2586C34.8721 18.3208 34.811 18.3895 34.7412 18.4429C34.3375 18.7582 33.7877 18.6819 33.4681 18.264C33.2183 17.9411 33.1441 17.5724 33.203 17.1753C33.203 17.1688 33.2084 17.1611 33.2084 17.1557C33.2124 17.1528 33.2161 17.1495 33.2193 17.1459" fill="#7E57C2" fill-opacity="0.8"/>
<path fill-rule="evenodd" clip-rule="evenodd" d="M37.7597 18.7637C37.776 18.7746 37.7859 18.7833 37.7935 18.7855C38.5266 19.2001 39.0993 19.7761 39.5597 20.4743C40.0506 21.2248 40.3659 22.0441 40.5393 22.9233C40.656 23.519 40.7019 24.1223 40.6757 24.731C40.6266 25.9004 40.3386 27.0033 39.7571 28.0255C39.6069 28.2912 39.4351 28.5441 39.2433 28.7815C39.2346 28.7924 39.2215 28.8077 39.2139 28.8219C39.4419 28.7728 40.3331 28.0146 40.6964 27.5663C41.1099 27.0557 41.4251 26.4939 41.6389 25.871C41.8495 25.2511 41.9488 24.5989 41.9324 23.9444C41.8593 21.2848 39.9611 19.2732 37.7597 18.7626" fill="#7E57C2" fill-opacity="0.8"/>
<path fill-rule="evenodd" clip-rule="evenodd" d="M39.2837 25.6811C39.6628 24.3818 39.6181 22.9955 39.156 21.7233C38.7708 20.6226 38.083 19.6528 37.1717 18.9251L37.1935 18.9622C37.756 19.7817 38.1321 20.7145 38.2953 21.695C38.3826 22.2197 38.4153 22.7521 38.3826 23.2833C38.2931 24.8248 37.7902 26.2113 36.8335 27.4288C36.5084 27.8422 36.1342 28.2142 35.7197 28.5404C35.7055 28.548 35.6935 28.559 35.6717 28.5753C35.7306 25.4477 35.7862 22.332 35.8451 19.2164C35.46 19.1062 35.1808 18.8586 34.9342 18.5542C34.6855 18.8586 34.4084 19.1073 34.0233 19.2164C34.0822 22.332 34.1378 25.4477 34.1968 28.5753C34.1749 28.5579 34.1629 28.548 34.1488 28.5404C33.7344 28.2157 33.3605 27.8425 33.0349 27.4288C32.0782 26.2113 31.5764 24.8248 31.4826 23.2833C31.4509 22.7521 31.4826 22.2197 31.5731 21.695C31.7354 20.7142 32.1116 19.7812 32.6749 18.9622L32.6978 18.9251C31.7858 19.6523 31.0975 20.6223 30.7124 21.7233C30.2509 22.9956 30.2062 24.3818 30.5848 25.6811C31.0898 27.4233 32.1546 28.7215 33.7528 29.5833C33.2073 29.7677 32.2353 29.963 31.1106 29.7873C31.1193 29.7895 31.1269 29.795 31.1335 29.7982C31.7051 30.0328 32.3008 30.1724 32.9193 30.2204C33.3557 30.2542 33.7953 30.2422 34.2295 30.1779C34.2699 30.1724 34.2895 30.1833 34.3102 30.215C34.5077 30.5302 34.7073 30.8422 34.9048 31.1575C34.9157 31.1706 34.9244 31.1837 34.9342 31.2L34.9637 31.1575C35.1611 30.8422 35.3619 30.5302 35.5593 30.215C35.5811 30.1833 35.5986 30.1724 35.6389 30.1779C36.0731 30.2422 36.5128 30.2542 36.9502 30.2204C37.5635 30.1738 38.1657 30.0313 38.7349 29.7982L38.7568 29.7873C37.8733 29.9263 36.9695 29.8564 36.1179 29.5833C37.7149 28.7215 38.784 27.4233 39.2859 25.6811" fill="#7E57C2" fill-opacity="0.8"/>
</svg>
