<svg width="100" height="100" viewBox="0 0 100 100" fill="none" xmlns="http://www.w3.org/2000/svg">
<g clip-path="url(#clip0)">
<path d="M0 75C0 77.9469 1.17063 80.773 3.25437 82.8568C5.33811 84.9405 8.16426 86.1111 11.1111 86.1111H88.8889C91.8357 86.1111 94.6619 84.9405 96.7456 82.8568C98.8294 80.773 100 77.9469 100 75V63.8889H0V75Z" fill="#673AB7" fill-opacity="0.8"/>
<path d="M0 36.1111H100V63.8889H0V36.1111Z" fill="#D1C4E9" fill-opacity="0.8"/>
<path d="M100 36.1111V25C100 22.0532 98.8294 19.227 96.7456 17.1433C94.6619 15.0595 91.8357 13.8889 88.8889 13.8889H11.1111C8.16426 13.8889 5.33811 15.0595 3.25437 17.1433C1.17063 19.227 0 22.0532 0 25L0 36.1111H100Z" fill="#9575CD" fill-opacity="0.8"/>
<path d="M0 63.8889H100V66.6667H0V63.8889Z" fill="#7E57C2" fill-opacity="0.8"/>
<path d="M54.0693 41.5806C56.7277 42.9417 62.5082 49.7834 56.286 57.5C60.1499 56.6445 65.0693 45.2556 54.0693 41.5806V41.5806ZM45.911 41.5806C34.9138 45.2556 39.8304 56.6445 43.6943 57.5C37.4721 49.7834 43.2527 42.9417 45.911 41.5806ZM49.9471 41.1834C50.0582 41.7306 53.0054 42.3945 52.6527 39.5917C52.186 40.725 50.836 40.6917 49.9638 40.1667C48.7638 40.8361 47.6443 40.6722 47.2193 39.5361C46.8082 41.6306 48.8499 42.2445 49.9471 41.1834Z" fill="#673AB7" fill-opacity="0.8"/>
<path d="M57.0497 49.7334C57.0081 46.2667 55.1692 43.2 53.3581 41.9584C54.5525 43.4223 58.2247 51.5028 51.1775 56.8223L51.3081 42.6639L49.9886 41.5028L48.6692 42.6084L48.8914 56.9028L48.8414 56.8611C41.722 51.5445 45.4164 43.425 46.6136 41.9584C44.8025 43.2 42.9609 46.2667 42.922 49.7334C42.8859 52.7084 44.247 55.9639 48.0164 58.6361C46.4944 59.0283 44.9269 59.216 43.3553 59.1945C44.6442 59.8973 47.0775 59.7278 48.9303 59.5584L48.9331 59.7473L50.0386 60.9611L51.1497 59.6973V59.5528C53.0164 59.725 55.5025 59.9111 56.8136 59.1973C55.1902 59.2241 53.571 59.025 52.0025 58.6056C55.7359 55.9361 57.0859 52.6973 57.0497 49.7334V49.7334Z" fill="#673AB7" fill-opacity="0.8"/>
<path d="M0 33.3334H100V36.1111H0V33.3334Z" fill="#B39DDB" fill-opacity="0.8"/>
</g>
<defs>
<clipPath id="clip0">
<rect width="100" height="100" fill="white"/>
</clipPath>
</defs>
</svg>
