<svg width="100" height="100" viewBox="0 0 100 100" fill="none" xmlns="http://www.w3.org/2000/svg">
<g clip-path="url(#clip0)">
<path d="M100 75C100 77.9469 98.8294 80.773 96.7456 82.8568C94.6619 84.9405 91.8358 86.1111 88.8889 86.1111H66.6667V13.8889H88.8889C91.8358 13.8889 94.6619 15.0595 96.7456 17.1433C98.8294 19.227 100 22.0532 100 25V75Z" fill="#9575CD" fill-opacity="0.8"/>
<path d="M11.1111 13.8889C8.16426 13.8889 5.33811 15.0595 3.25437 17.1433C1.17063 19.227 0 22.0532 0 25L0 75C0 77.9469 1.17063 80.773 3.25437 82.8568C5.33811 84.9405 8.16426 86.1111 11.1111 86.1111H33.3333V13.8889H11.1111Z" fill="#673AB7" fill-opacity="0.8"/>
<path d="M33.3333 13.8889H66.6667V86.1111H33.3333V13.8889Z" fill="#D1C4E9" fill-opacity="0.8"/>
</g>
<defs>
<clipPath id="clip0">
<rect width="100" height="100" fill="white"/>
</clipPath>
</defs>
</svg>
