<svg width="100" height="100" viewBox="0 0 100 100" fill="none" xmlns="http://www.w3.org/2000/svg">
<path d="M100 75C100 77.9469 98.8294 80.773 96.7456 82.8568C94.6619 84.9405 91.8357 86.1111 88.8889 86.1111H11.1111C8.16426 86.1111 5.33811 84.9405 3.25437 82.8568C1.17063 80.773 0 77.9469 0 75V25C0 22.0532 1.17063 19.227 3.25437 17.1433C5.33811 15.0595 8.16426 13.8889 11.1111 13.8889H88.8889C91.8357 13.8889 94.6619 15.0595 96.7456 17.1433C98.8294 19.227 100 22.0532 100 25V75Z" fill="#D1C4E9" fill-opacity="0.8"/>
<path d="M50 69.4444C60.7389 69.4444 69.4444 60.7389 69.4444 50C69.4444 39.2611 60.7389 30.5555 50 30.5555C39.2611 30.5555 30.5555 39.2611 30.5555 50C30.5555 60.7389 39.2611 69.4444 50 69.4444Z" fill="#673AB7" fill-opacity="0.8"/>
</svg>
