<svg width="71" height="51" viewBox="0 0 71 51" fill="none" xmlns="http://www.w3.org/2000/svg">
<path d="M0.800247 42.7524C0.800247 44.7929 1.61085 46.7499 3.05373 48.1928C4.49661 49.6357 6.45358 50.4463 8.49412 50.4463H62.3512C64.3918 50.4463 66.3487 49.6357 67.7916 48.1928C69.2345 46.7499 70.0451 44.7929 70.0451 42.7524V35.0585H0.800247V42.7524Z" fill="#9575CD" fill-opacity="0.8"/>
<path d="M0.800247 15.8239H70.0451V35.0585H0.800247V15.8239Z" fill="#D1C4E9" fill-opacity="0.8"/>
<path d="M70.0451 15.8238V8.12991C70.0451 6.08937 69.2345 4.1324 67.7916 2.68952C66.3487 1.24664 64.3918 0.436035 62.3512 0.436035H8.49412C6.45358 0.436035 4.49661 1.24664 3.05373 2.68952C1.61085 4.1324 0.800247 6.08937 0.800247 8.12991L0.800247 15.8238H70.0451Z" fill="#B39DDB" fill-opacity="0.8"/>
<path d="M35.4227 33.1351C39.6719 33.1351 43.1166 29.6904 43.1166 25.4412C43.1166 21.192 39.6719 17.7473 35.4227 17.7473C31.1735 17.7473 27.7288 21.192 27.7288 25.4412C27.7288 29.6904 31.1735 33.1351 35.4227 33.1351Z" fill="#7E57C2" fill-opacity="0.8"/>
<path d="M35.4227 31.2116C38.6096 31.2116 41.1931 28.6281 41.1931 25.4412C41.1931 22.2543 38.6096 19.6708 35.4227 19.6708C32.2358 19.6708 29.6523 22.2543 29.6523 25.4412C29.6523 28.6281 32.2358 31.2116 35.4227 31.2116Z" fill="#D1C4E9" fill-opacity="0.8"/>
<path d="M35.4227 19.6708L35.7035 24.0255L37.6289 20.1113L36.2248 24.241L39.5024 21.3596L36.6229 24.6391L40.7526 23.2331L36.8384 25.1604L41.1931 25.4412L36.8384 25.722L40.7526 27.6474L36.6229 26.2433L39.5024 29.5209L36.2248 26.6415L37.6289 30.7711L35.7035 26.8569L35.4227 31.2116L35.1419 26.8569L33.2145 30.7711L34.6206 26.6415L31.3411 29.5209L34.2224 26.2433L30.0928 27.6474L34.007 25.722L29.6523 25.4412L34.007 25.1604L30.0928 23.2331L34.2224 24.6391L31.3411 21.3596L34.6206 24.241L33.2145 20.1113L35.1419 24.0255L35.4227 19.6708Z" fill="#9575CD" fill-opacity="0.8"/>
<path d="M35.4227 27.3646C36.485 27.3646 37.3462 26.5034 37.3462 25.4411C37.3462 24.3788 36.485 23.5177 35.4227 23.5177C34.3604 23.5177 33.4992 24.3788 33.4992 25.4411C33.4992 26.5034 34.3604 27.3646 35.4227 27.3646Z" fill="#7E57C2" fill-opacity="0.8"/>
</svg>
