<svg width="100" height="100" viewBox="0 0 100 100" fill="none" xmlns="http://www.w3.org/2000/svg">
<g clip-path="url(#clip0)">
<path d="M88.8889 13.8889H11.1111C8.16426 13.8889 5.33811 15.0595 3.25437 17.1432C1.17063 19.227 0 22.0531 0 25L0 50H100V25C100 22.0531 98.8294 19.227 96.7456 17.1432C94.6619 15.0595 91.8357 13.8889 88.8889 13.8889V13.8889Z" fill="#D1C4E9" fill-opacity="0.8"/>
<path d="M0 75C0 77.9468 1.17063 80.773 3.25437 82.8567C5.33811 84.9405 8.16426 86.1111 11.1111 86.1111H88.8889C91.8357 86.1111 94.6619 84.9405 96.7456 82.8567C98.8294 80.773 100 77.9468 100 75V50H0V75Z" fill="#673AB7" fill-opacity="0.8"/>
</g>
<defs>
<clipPath id="clip0">
<rect width="100" height="100" fill="white"/>
</clipPath>
</defs>
</svg>
