<svg width="100" height="100" viewBox="0 0 100 100" fill="none" xmlns="http://www.w3.org/2000/svg">
<path d="M100 75C100 77.9469 98.8294 80.773 96.7456 82.8568C94.6619 84.9405 91.8357 86.1111 88.8889 86.1111H11.1111C8.16426 86.1111 5.33811 84.9405 3.25437 82.8568C1.17063 80.773 0 77.9469 0 75V25C0 22.0532 1.17063 19.227 3.25437 17.1433C5.33811 15.0595 8.16426 13.8889 11.1111 13.8889H88.8889C91.8357 13.8889 94.6619 15.0595 96.7456 17.1433C98.8294 19.227 100 22.0532 100 25V75Z" fill="#D1C4E9" fill-opacity="0.8"/>
<path d="M88.8889 13.8889H41.6667V86.1111H88.8889C91.8358 86.1111 94.6619 84.9405 96.7457 82.8568C98.8294 80.773 100 77.9469 100 75V25C100 22.0532 98.8294 19.227 96.7457 17.1433C94.6619 15.0595 91.8358 13.8889 88.8889 13.8889V13.8889Z" fill="#9575CD" fill-opacity="0.8"/>
<path d="M41.6667 27.7778C35.773 27.7778 30.1207 30.1191 25.9532 34.2866C21.7857 38.454 19.4445 44.1064 19.4445 50.0001C19.4445 55.8938 21.7857 61.5461 25.9532 65.7135C30.1207 69.881 35.773 72.2223 41.6667 72.2223C47.5604 72.2223 53.2127 69.881 57.3802 65.7135C61.5476 61.5461 63.8889 55.8938 63.8889 50.0001C63.8889 44.1064 61.5476 38.454 57.3802 34.2866C53.2127 30.1191 47.5604 27.7778 41.6667 27.7778V27.7778ZM24.6861 40.5389L29.1361 44.9889L22.3028 48.4056C22.5233 45.6427 23.3362 42.9597 24.6861 40.5389V40.5389ZM22.3028 51.5917L34.525 57.7223L27.0083 62.7334L27.0472 62.7917C24.3025 59.6657 22.6387 55.7381 22.3028 51.5917V51.5917ZM38.8889 69.2223C36.3425 68.8589 33.8945 67.99 31.6889 66.6667H38.8889V69.2223ZM38.8889 63.8889H30.2806L38.8889 58.1501V63.8889ZM38.8889 54.8112L37.2028 55.9362L25.3278 50.0001L31.2056 47.0612L38.8889 54.7417V54.8112ZM38.8889 50.8139L29.0472 40.9723L38.8889 42.6112V50.8139ZM38.8889 39.7251L26.5778 37.7445C29.6583 33.9554 34.0546 31.4676 38.8889 30.7778V39.7251V39.7251ZM58.6472 40.5389C59.9976 42.9605 60.8104 45.6445 61.0306 48.4084L54.1972 44.9917L58.6472 40.5389V40.5389ZM44.4445 30.7778C49.2784 31.4686 53.6744 33.9562 56.7556 37.7445L44.4445 39.7251V30.7778ZM44.4445 42.6112L54.2861 40.9695L44.4445 50.8139V42.6112ZM44.4445 54.7417L52.125 47.0612L58.0056 50.0001L46.1333 55.9362L44.4445 54.8112V54.7417ZM44.4445 69.2223V66.6667H51.6445C49.4388 67.99 46.9908 68.8589 44.4445 69.2223V69.2223ZM44.4445 63.8889V58.1501L53.0528 63.8889H44.4445ZM56.2889 62.7917L56.3278 62.7334L48.8111 57.7223L61.0333 51.5917C60.6949 55.7375 59.0315 59.6644 56.2889 62.7917V62.7917Z" fill="#673AB7" fill-opacity="0.8"/>
<path d="M30.5555 36.1111V55.5555C30.5555 58.5024 31.7262 61.3285 33.8099 63.4123C35.8936 65.496 38.7198 66.6666 41.6667 66.6666C44.6135 66.6666 47.4397 65.496 49.5234 63.4123C51.6071 61.3285 52.7778 58.5024 52.7778 55.5555V36.1111H30.5555Z" fill="#B39DDB" fill-opacity="0.8"/>
<path d="M33.3333 38.8889V55.5556C33.3333 57.7657 34.2113 59.8853 35.7741 61.4481C37.3369 63.0109 39.4565 63.8889 41.6666 63.8889C43.8768 63.8889 45.9964 63.0109 47.5592 61.4481C49.122 59.8853 50 57.7657 50 55.5556V38.8889H33.3333Z" fill="#D1C4E9" fill-opacity="0.8"/>
<path d="M36.1111 47.2222H47.2222V52.7777H36.1111V47.2222Z" fill="#9575CD" fill-opacity="0.8"/>
<path d="M38.8889 44.4445H44.4445V55.5556H38.8889V44.4445Z" fill="#9575CD" fill-opacity="0.8"/>
<path d="M33.3333 47.2222H36.1111V52.7778H33.3333V47.2222ZM38.8889 47.2222H44.4444V52.7778H38.8889V47.2222ZM47.2222 47.2222H50V52.7778H47.2222V47.2222ZM38.8889 55.5556H44.4444V61.1111H38.8889V55.5556ZM38.8889 38.8889H44.4444V44.4445H38.8889V38.8889Z" fill="#7E57C2" fill-opacity="0.8"/>
</svg>
