<svg width="76" height="52" viewBox="0 0 76 52" fill="none" xmlns="http://www.w3.org/2000/svg">
<path d="M75.6364 39C75.6364 46.1795 71.6501 52 63.8182 52H11.8182C3.98627 52 0 46.1795 0 39V13C0 5.82045 3.98627 0 11.8182 0H63.8182C71.6501 0 75.6364 5.82045 75.6364 13V39Z" fill="#D1C4E9" fill-opacity="0.8"/>
<path fill-rule="evenodd" clip-rule="evenodd" d="M49.6056 43.5358H28.0634C27.6096 43.5358 27.6557 43.5855 27.6557 43.0702C27.6534 32.019 27.6534 20.9737 27.6557 9.92019C27.6557 9.40374 27.6096 9.45574 28.0634 9.45574C42.4225 9.45337 56.784 9.45337 71.1443 9.45574C71.6099 9.45574 71.5496 9.40374 71.5496 9.92019V43.0702C71.5496 43.5878 71.6099 43.5358 71.1443 43.5358H49.6056Z" fill="#9575CD" fill-opacity="0.8"/>
<path fill-rule="evenodd" clip-rule="evenodd" d="M38.5686 30.5843C38.7719 30.7013 38.9598 30.8372 38.8629 31.1492C38.7778 31.4021 38.5781 31.4872 38.2685 31.4163C38.2247 31.4021 38.181 31.3938 38.1042 31.3761C38.1125 31.551 38.2082 31.655 38.298 31.7496C38.4646 31.9351 38.4694 32.1076 38.3216 32.3097C38.2229 32.4411 38.1598 32.5958 38.1383 32.7587C38.1167 32.9216 38.1376 33.0873 38.1987 33.2398C38.259 33.3876 38.3193 33.4927 38.4859 33.319C38.6608 33.1346 38.9161 33.1677 39.0697 33.3651C39.2375 33.5814 39.2328 33.813 39.0768 34.0316C38.9019 34.2834 38.6455 34.3945 38.3595 34.5174C38.5663 34.7053 38.7447 34.8719 38.9811 35.087L38.3122 35.1922C38.1574 35.217 38.0309 35.2726 37.9931 35.4806C37.9613 35.6332 37.8813 35.7715 37.765 35.8753C37.6055 36.0348 37.4057 36.0478 37.3419 35.8304C37.1635 35.2076 36.738 35.1118 36.2192 35.1177C36.3634 34.8329 36.6198 34.7502 36.7758 34.5126C36.5371 34.4134 36.3173 34.294 36.1483 34.0907C35.9734 33.8768 35.9521 33.5707 36.1093 33.3663C36.2854 33.1382 36.491 33.1571 36.6825 33.3415C36.8054 33.462 36.868 33.4029 36.9153 33.2765C37.0405 32.9526 37.0405 32.6182 36.8432 32.3381C36.6718 32.0946 36.6683 31.9044 36.881 31.7023C36.9413 31.6444 37.037 31.5676 37.0039 31.4695C36.9673 31.3666 36.8515 31.4246 36.7735 31.4092C36.5655 31.369 36.387 31.2875 36.3149 31.0428C36.2893 30.9621 36.2858 30.8761 36.3047 30.7936C36.3236 30.7111 36.3643 30.6351 36.4225 30.5736C36.5418 30.4389 36.6872 30.4342 36.8432 30.4838C36.9176 30.5027 37.0039 30.628 37.0654 30.5086C37.1221 30.3999 37.0914 30.2853 36.9945 30.2002C36.9566 30.1718 36.9046 30.1163 36.907 30.0773C36.9448 29.6908 36.6092 29.3694 36.7392 28.9687C36.7782 28.8517 36.6943 28.8234 36.6541 28.7572C36.5005 28.5019 36.4047 28.2632 36.6517 27.9914C36.8113 27.8117 36.7203 27.5045 36.5052 27.4206C36.3343 27.3617 36.1783 27.2665 36.0479 27.1414C35.9175 27.0163 35.8159 26.8644 35.75 26.6961C35.5113 26.0969 35.8457 25.4776 36.4603 25.4186C36.6647 25.3949 36.7167 25.3547 36.7144 25.1066C36.686 22.6188 36.6115 20.1252 36.9212 17.6457C37.0701 16.4403 37.375 15.2986 38.0049 14.2882C38.3476 13.741 38.7743 13.2978 39.2884 12.9575C39.3912 12.8877 39.4999 12.8346 39.6004 12.9409C39.689 13.0366 39.6606 13.1584 39.6169 13.2706C39.2435 14.1759 39.1761 15.1545 39.0827 16.1283C38.818 18.9032 38.7896 21.6911 38.7341 24.4719C38.7341 24.5369 38.7341 24.6007 38.7294 24.6657C38.7187 24.8655 38.6549 25.0841 38.7045 25.2661C38.7625 25.4918 39.0118 25.3866 39.1702 25.4682C39.7564 25.7778 39.8651 26.5354 39.3628 27.0766C39.1997 27.2445 39.2068 27.3201 39.3593 27.4867C39.949 28.1273 40.5328 28.7844 41.1166 29.4332C41.1426 29.458 41.1745 29.4757 41.2443 29.5289C41.1084 28.7158 41.2195 27.9784 41.4286 27.2551C41.8151 25.948 42.5774 24.9718 43.5937 24.2332C43.8419 24.0559 44.0818 23.8692 44.317 23.6718C44.3873 23.6141 44.4458 23.5435 44.4895 23.4638C44.5498 23.3563 44.5675 23.2357 44.4754 23.1412C44.3761 23.0348 44.2804 23.1223 44.2059 23.2038C44.1468 23.27 44.1114 23.3575 44.0712 23.439C43.9424 23.699 43.7816 23.7321 43.5973 23.5265C43.5287 23.452 43.4767 23.3622 43.4247 23.2724C43.3775 23.1944 43.342 23.1093 43.2853 23.0017C43.1683 23.1105 43.0891 23.2818 42.913 23.2357C42.7594 23.1967 42.6695 23.0738 42.5963 22.9356C42.523 22.789 42.4367 22.7961 42.315 22.8505C42.0243 22.9816 41.7217 23.0514 41.3885 23.0986C41.3979 22.8635 41.5716 22.7169 41.5905 22.4936C41.2596 22.5337 40.9323 22.5656 40.6085 22.6129C40.4572 22.6354 40.4099 22.5751 40.4666 22.4191C40.6333 21.9227 40.6924 21.385 40.9358 20.9206C40.9784 20.8378 40.976 20.7917 40.9169 20.7326C40.8737 20.6901 40.8334 20.6447 40.7964 20.5967C40.6664 20.3958 40.5234 20.1843 40.6746 19.929C40.833 19.6761 41.0445 19.7825 41.2395 19.8687C42.0455 20.2316 42.8374 20.6535 43.7013 20.8284C43.8301 20.8544 43.9625 20.8662 44.0948 20.8827C44.1279 20.8886 44.161 20.8756 44.2295 20.8662C44.0015 20.5436 43.797 20.2457 43.5878 19.9432C43.4082 20.2658 43.4082 20.2658 42.8527 20.0236C42.796 20.1429 42.9024 20.2729 42.8279 20.4183C42.4946 20.2138 42.1566 20.0484 41.9108 19.7009C41.6685 19.3594 41.3932 19.0521 41.1225 18.7389C40.7042 18.2461 40.5423 17.6422 40.5423 16.991C40.5387 16.2524 41.1816 15.8364 41.7702 16.1661C41.8809 16.2228 41.9748 16.3076 42.0426 16.4119C42.1104 16.5161 42.1497 16.6364 42.1566 16.7606C42.1732 17.0347 42.3008 17.0678 42.4923 17.0312C42.7085 16.9851 42.926 16.9615 43.1328 16.8894C43.4247 16.7854 43.7202 16.7227 44.0204 16.7204C44.2553 16.7216 44.4814 16.6308 44.6503 16.4675C44.8417 16.289 44.9493 16.0846 44.8051 15.8033C44.6869 15.5681 44.7626 15.4866 44.9871 15.4842C45.2116 15.4818 45.4362 15.4416 45.6643 15.4204C46.0472 15.3873 46.3923 15.4866 46.6877 15.7832C46.7622 15.8576 46.8449 15.9735 46.9572 15.9096C47.0517 15.8541 47.021 15.7229 47.0257 15.6166C47.0517 15.1036 47.1723 15.0067 47.6178 15.1226C47.9558 15.2029 48.2312 15.4062 48.4593 15.6827C48.6117 15.8565 48.6815 15.8068 48.7559 15.6142C49.0029 15.0067 49.0667 14.989 49.608 15.2821C49.8385 15.4062 50.0524 15.5622 50.2367 15.7643C50.4885 16.0314 50.8099 16.0456 51.0758 15.795C51.2909 15.5858 51.4918 15.3625 51.7435 15.0966C51.753 15.5208 51.6396 15.8777 51.5946 16.3256C51.7435 16.1306 51.8346 15.9888 51.9468 15.8636C52.7729 14.963 53.7739 14.5435 54.9144 14.4773C56.5866 14.378 58.0497 15.0008 59.4135 16.0337C60.0104 16.484 60.5753 16.9839 61.1355 17.4886C61.3009 17.6327 61.4652 17.7746 61.6389 17.9081C61.9521 18.1421 61.945 18.1338 62.0868 17.7509C62.1932 17.4696 62.3835 17.2782 62.6553 17.2309C62.9354 17.1896 63.1611 17.3113 63.3206 17.5642C63.5381 17.9105 63.5936 18.291 63.4365 18.6798C63.3662 18.8774 63.239 19.0498 63.071 19.1754C62.903 19.3009 62.7016 19.374 62.4922 19.3854C61.9675 19.4374 61.4947 19.2566 61.087 18.8985C60.749 18.6077 60.4311 18.2886 60.1061 17.9849C59.9577 17.8438 59.8056 17.7067 59.6499 17.5736C59.6735 17.8809 59.7657 18.0877 59.9146 18.2709C59.9891 18.3584 60.0458 18.4565 59.9737 18.5806C59.9016 18.6952 59.8012 18.6976 59.6936 18.6633C59.1736 18.4943 58.7163 18.2154 58.3464 17.68C58.1927 18.0724 57.9587 18.3501 57.6172 18.486C57.4907 18.5309 57.3655 18.59 57.2378 18.6018C57.0062 18.6266 56.9093 18.4458 57.0133 18.2166C57.0795 18.0641 57.1728 17.9223 57.2319 17.7686C57.4671 17.1588 57.2804 16.627 56.7048 16.3197C56.8313 16.9248 56.8313 17.5004 56.4224 17.9672C56.0406 18.3986 55.549 18.5226 55.0042 18.577C55.0692 18.3182 55.211 18.1445 55.3079 17.9424C55.7724 16.9508 55.3741 16.354 54.5858 15.9888C54.4369 15.925 54.3979 15.9888 54.4026 16.1448C54.4097 16.4285 54.3625 16.7003 54.2053 16.926C54.0599 17.1364 53.8507 17.1624 53.7621 16.9567C53.6345 16.6518 53.4371 16.5904 53.1842 16.6636C52.9053 16.7487 52.6772 16.9177 52.598 17.2486C52.5442 17.457 52.5704 17.6779 52.6713 17.8679C52.8497 18.2118 52.9372 18.2319 53.1771 17.9577C53.677 17.3916 54.4275 17.4212 55.0455 18.0464C54.8068 18.1835 54.5669 18.3064 54.3412 18.4576C54.0611 18.642 54.0115 18.889 54.1403 19.2211C54.1994 19.3771 54.2549 19.4291 54.379 19.279C54.483 19.1585 54.6 19.0486 54.7241 18.9505C54.9888 18.7543 55.1637 18.8276 55.2618 19.1644C55.4237 19.7116 55.6435 19.8841 56.1695 19.9184C57.1114 19.9739 58.0367 19.8203 58.9668 19.6903C59.5487 19.6135 60.1373 19.6016 60.7218 19.6548C61.5467 19.7293 62.4165 20.5128 62.6553 21.4027C62.9212 22.3955 62.608 23.1932 61.9627 23.8668C61.893 23.9377 61.8197 24.0075 61.7465 24.076C61.6673 24.1516 61.6602 24.2261 61.724 24.3218C61.7925 24.4246 61.8587 24.5286 61.9225 24.6338C62.3267 25.3169 62.6139 26.0366 62.6198 26.8876C62.6222 27.833 62.5548 28.7525 62.2712 29.6518C62.0124 30.4614 61.7405 31.2662 61.5928 32.1195C61.4746 32.799 61.4723 33.4715 61.7465 34.1167C61.8729 34.4146 62.0431 34.6497 62.3634 34.7053C62.7014 34.7679 62.8113 35.0303 62.6683 35.3872C62.5501 35.6838 62.3492 35.9226 62.1105 36.0998C61.3789 36.6376 61.4415 37.219 61.8209 37.9234C61.9273 38.1136 62.0431 38.3027 62.1175 38.5048C62.2393 38.8346 62.1081 39.0426 61.7925 39.0686C61.5218 39.082 61.2539 39.0074 61.0291 38.8558C60.9357 38.7944 60.8755 38.792 60.7868 38.8747C60.4689 39.1678 60.1356 39.13 59.8154 38.8842C59.6783 38.7766 59.5849 38.7814 59.4455 38.8901C59.1039 39.1572 58.8675 39.1477 58.5189 38.8523C58.4078 38.7648 58.3523 38.8275 58.2695 38.8736C57.7436 39.1477 57.2177 39.1785 56.6906 38.8736C56.5961 38.818 56.5311 38.7625 56.4212 38.8736C56.2975 38.995 56.1342 39.0678 55.9612 39.0787C55.7883 39.0895 55.6172 39.0377 55.4793 38.9326C55.3623 38.844 55.2878 38.8133 55.1625 38.9196C54.886 39.1477 54.5894 39.1336 54.3282 38.883C54.1935 38.7495 54.0954 38.7625 53.9595 38.8665C53.8176 38.9705 53.6664 39.0674 53.4879 39.0768C53.2716 39.0851 53.17 38.9705 53.1925 38.7246C53.235 38.1798 53.6463 37.6787 54.132 37.5996C54.4487 37.5511 54.7714 37.5416 55.0916 37.492C55.4793 37.4306 55.6164 37.2415 55.6057 36.8148C55.5927 36.283 55.6057 35.7547 55.5596 35.2206C55.532 34.8222 55.407 34.4367 55.1956 34.0978C54.9073 33.657 54.6142 33.2292 54.3376 32.7813C54.0445 32.3133 53.8484 31.798 53.8555 31.2106C53.8555 31.005 53.7645 31.0026 53.6203 31.0026C52.8497 31.0109 52.1324 31.2804 51.4315 31.6101C50.6196 31.9906 49.8349 32.4586 49.0017 32.7612C48.4439 32.968 48.1236 33.3438 47.8766 33.8875C47.7786 34.0919 47.6592 34.2869 47.5989 34.5126C47.5079 34.8826 47.5989 35.0776 47.9322 35.1851C48.1154 35.243 48.3033 35.2607 48.4888 35.308C48.7985 35.3825 48.8493 35.5337 48.6803 35.8256C48.3907 36.3232 48.0078 36.6943 47.4831 36.8314C47.1652 36.9117 47.0813 37.1126 47.1356 37.4518C47.2101 37.895 47.2444 38.324 46.9631 38.7246C46.7043 39.0946 46.5353 39.1903 46.0153 38.9823C45.7482 38.8759 45.5414 38.8535 45.2814 39.0024C45.019 39.156 44.7188 39.117 44.4683 38.9279C44.3395 38.8298 44.2449 38.8393 44.1137 38.9244C43.8088 39.1253 43.4838 39.1643 43.1836 38.9066C43.1021 38.8334 43.0347 38.8428 42.9532 38.8901C42.8575 38.9551 42.7544 39.0083 42.6459 39.0485C42.3906 39.13 42.237 38.9811 42.2618 38.688C42.3292 37.8501 42.874 37.2911 43.6197 37.2864C43.8667 37.2864 44.1137 37.2935 44.3548 37.2793C44.9103 37.2533 45.3121 36.7876 45.3251 36.1707C45.3357 35.5255 45.1065 34.9452 44.9705 34.3354C44.8665 33.8556 44.694 33.5116 44.2213 33.3592C43.9235 33.2658 43.6528 33.0306 43.3857 32.8345C43.2439 32.7305 43.1754 32.7482 43.0631 32.8912C42.7771 33.2469 42.4474 33.5471 42.0385 33.7196C41.7265 33.8532 41.4475 33.8047 41.1828 33.5885C40.7893 33.2706 40.4655 32.8664 40.0991 32.5083C39.9206 32.3334 39.7788 32.2388 39.6571 32.5733C39.5897 32.7588 39.4503 32.7246 39.3285 32.6229C39.1312 32.461 39.0957 32.2199 39.0863 31.9706C39.0768 31.6184 39.0863 31.2662 39.0697 30.9187C39.0508 30.5606 38.831 30.3916 38.5722 30.5181C38.5663 30.5259 38.5586 30.5323 38.5497 30.5366C38.5409 30.5409 38.5312 30.5431 38.5214 30.5429C38.3985 30.5512 38.2767 30.5181 38.1727 30.524C38.2885 30.5488 38.4375 30.5157 38.5686 30.5796" fill="#9575CD" fill-opacity="0.8"/>
<path fill-rule="evenodd" clip-rule="evenodd" d="M67.3388 14.781C67.3395 14.4931 67.3804 14.2066 67.4605 13.9301C67.7099 13.0662 67.7253 12.1562 67.8564 11.2674C68.0455 10.0029 68.9437 9.48645 69.9814 10.0029C70.213 10.1164 70.4588 10.1376 70.707 10.1329C70.8748 10.1305 70.9552 10.1944 70.9244 10.3929C70.8843 10.6612 70.9694 10.8893 71.071 11.1221C71.4468 12.012 71.214 12.6951 70.4068 13.0863C70.0419 13.253 69.6593 13.3779 69.2664 13.4585C68.4994 13.6311 67.9451 14.1085 67.5964 14.885C67.5728 14.9346 67.5515 14.9854 67.5208 15.0268C67.4794 15.0859 67.4653 15.21 67.3648 15.1651C67.2856 15.1332 67.3258 15.0374 67.3258 14.9654C67.3282 14.9063 67.3364 14.8424 67.3388 14.781Z" fill="#7E57C2" fill-opacity="0.8"/>
<path fill-rule="evenodd" clip-rule="evenodd" d="M67.3388 38.1846L67.3223 37.9955C67.3175 37.934 67.2963 37.856 67.3589 37.8253C67.4452 37.7816 67.4806 37.8749 67.5043 37.934C67.925 39.0083 68.7286 39.4621 69.6989 39.6559C69.9695 39.7126 70.2284 39.8084 70.4777 39.9431C71.1974 40.3248 71.4208 40.9559 71.1029 41.7796C70.9954 42.0621 70.8725 42.3316 70.9221 42.6542C70.9481 42.8149 70.8571 42.8551 70.7342 42.8504C70.3891 42.8456 70.0735 42.9532 69.7509 43.095C69.0501 43.4094 68.2535 43.0005 67.9675 42.2193C67.8695 41.9394 67.8126 41.6468 67.7985 41.3506C67.7698 40.6309 67.6668 39.9161 67.4913 39.2175C67.3981 38.8807 67.3469 38.5338 67.3388 38.1846Z" fill="#7E57C2" fill-opacity="0.8"/>
<path fill-rule="evenodd" clip-rule="evenodd" d="M29.9 43.1789C29.7676 43.1765 29.6329 43.1919 29.5088 43.1269C29.1766 42.9354 28.7977 42.8401 28.4144 42.8515C28.288 42.8586 28.2478 42.7842 28.2726 42.653C28.3293 42.3623 28.2348 42.12 28.1261 41.8635C27.7503 40.9878 27.9949 40.2823 28.795 39.9064C29.1271 39.7481 29.4745 39.6358 29.8255 39.5614C30.6528 39.3888 31.2614 38.8984 31.6337 38.0451C31.6739 37.96 31.7058 37.8004 31.8133 37.8312C31.9268 37.8631 31.8689 38.0132 31.8689 38.1113C31.861 38.4918 31.8034 38.8696 31.6975 39.2352C31.4765 40.0258 31.4517 40.846 31.3524 41.6532C31.2343 42.6577 30.7355 43.1671 29.9 43.1789Z" fill="#7E57C2" fill-opacity="0.8"/>
<path fill-rule="evenodd" clip-rule="evenodd" d="M31.8713 14.8271C31.8713 14.9146 31.8737 14.9666 31.8713 15.0209C31.8701 15.0741 31.8831 15.1344 31.8311 15.1568C31.7579 15.1923 31.7307 15.1249 31.6999 15.0741L31.4659 14.638C31.1681 14.0696 30.7439 13.6985 30.1719 13.5366C29.7062 13.4006 29.2335 13.2955 28.7868 13.0816C28.1911 12.7991 27.9004 12.3181 27.9595 11.7177C27.9808 11.4826 28.0481 11.258 28.1533 11.0571C28.2644 10.8444 28.3259 10.6316 28.2762 10.3917C28.2337 10.1837 28.3164 10.1306 28.483 10.1329C28.7974 10.1376 29.0929 10.0644 29.3895 9.91901C30.1423 9.5491 31.0086 10.01 31.2639 10.8834C31.3868 11.3017 31.4187 11.7378 31.4352 12.1739C31.4624 12.9681 31.746 13.702 31.8418 14.482C31.8536 14.6049 31.863 14.7337 31.8713 14.8271Z" fill="#7E57C2" fill-opacity="0.8"/>
<path fill-rule="evenodd" clip-rule="evenodd" d="M38.5686 30.5843H38.129C38.2803 30.381 38.4339 30.5583 38.5734 30.5252C38.5686 30.5441 38.5686 30.5606 38.5686 30.5843Z" fill="#7E57C2" fill-opacity="0.8"/>
<path fill-rule="evenodd" clip-rule="evenodd" d="M41.6473 30.3739C40.8295 28.2254 41.86 25.6916 43.6635 24.4176C43.9235 24.2367 44.1669 24.0406 44.4151 23.842C44.497 23.7684 44.5682 23.6837 44.6267 23.5903C44.7614 23.3799 44.7425 23.0774 44.5829 22.9568C44.3938 22.8115 44.239 22.932 44.0948 23.0632C44.0541 23.108 44.0185 23.1572 43.9885 23.2097C43.8088 23.517 43.758 23.5123 43.5807 23.1991C43.4614 22.9876 43.4117 22.7252 43.2179 22.5467C43.0997 22.6295 43.1281 22.7689 43.0997 22.8824C43.0513 23.0892 42.913 23.1424 42.8327 22.9568C42.6377 22.5089 42.3741 22.5893 42.068 22.7559C42.0054 22.789 41.9262 22.7914 41.8494 22.8138C41.6946 22.8635 41.6816 22.7973 41.7501 22.6614C41.8104 22.529 41.8659 22.3966 41.9439 22.2194C41.5752 22.2856 41.2467 22.3411 40.9193 22.4061C40.6877 22.451 40.6392 22.3742 40.7255 22.1296C40.8236 21.8412 40.8945 21.5446 40.9736 21.2491C41.041 20.9915 41.1864 20.917 41.4086 21.0092C41.7903 21.1699 42.1791 21.2893 42.5868 21.3295C42.8197 21.2976 43.0513 21.2999 43.2829 21.3519C43.6197 21.3732 43.6327 21.3874 43.6221 21.7242C43.6422 21.8743 43.7486 21.866 43.8384 21.8613C43.9802 21.8542 44.1185 21.892 44.2544 21.9227L44.408 21.9322C44.5191 21.9629 44.6349 22.0267 44.7271 21.8814C44.7838 21.7986 44.7767 21.7124 44.7354 21.6249C44.6869 21.5079 44.6337 21.3874 44.6727 21.2526C44.5061 20.891 44.2544 20.5991 44.0334 20.2824C43.8436 20.0175 43.6835 19.7325 43.5559 19.4326C43.4659 19.5368 43.4124 19.6675 43.4035 19.8049C43.368 20.1429 43.2345 20.059 43.0797 19.916C42.9508 19.7978 42.8291 19.6702 42.6861 19.5248C42.5998 19.7116 42.6908 19.8947 42.6459 20.0791C42.4415 20.0092 42.2636 19.878 42.1366 19.7033C41.8837 19.3497 41.6085 19.0126 41.3128 18.694C40.9217 18.2686 40.7751 17.7308 40.7089 17.1541C40.6463 16.5762 40.963 16.2228 41.4594 16.2736C41.821 16.3115 42.0574 16.5951 42.0042 17.0052C41.9687 17.3077 42.0479 17.2888 42.2713 17.2711C42.9248 17.2179 43.5287 16.8976 44.1941 16.8988C44.4707 16.9036 44.7117 16.7239 44.8997 16.4781C45.0379 16.2949 45.123 16.1058 45.0178 15.8683C44.9528 15.7276 45.0048 15.6804 45.1242 15.6662C45.6737 15.5976 46.2221 15.5066 46.6759 16.0101C46.7728 16.1212 46.9123 16.2193 47.0612 16.1283C47.1853 16.0479 47.1947 15.8813 47.2018 15.7347C47.2042 15.6686 47.2077 15.6059 47.2077 15.5386C47.2077 15.3211 47.2822 15.2455 47.4902 15.288C47.9062 15.3743 48.217 15.6402 48.4841 15.977C48.6496 16.1838 48.7406 16.1637 48.8221 15.9144C48.8658 15.7879 48.9427 15.6686 48.971 15.5362C49.0136 15.2963 49.1176 15.2596 49.3067 15.3459C49.5986 15.4783 49.8704 15.6426 50.102 15.886C50.4849 16.2819 50.8655 16.2843 51.2543 15.8978L51.5131 15.6331C51.5037 16.224 51.3039 16.6766 50.9659 17.0406C50.752 17.2676 50.726 17.4259 50.9281 17.6847C51.1243 17.9353 51.1716 18.2733 51.1798 18.6054C51.2011 19.4386 51.1798 20.267 51.1148 21.0978C51.0108 21.1534 50.9754 21.0186 50.8974 21.0033C50.4471 20.735 50.128 20.3545 50.0441 19.7624C50.0394 19.6736 50.0231 19.5858 49.9957 19.5012C49.9697 19.4007 49.9247 19.3121 49.8893 19.2164C49.7357 19.1596 49.7357 19.1596 49.7097 19.3665C49.7002 19.4078 49.7463 19.3665 49.7097 19.3688C49.7026 19.2306 49.7321 19.1431 49.8787 19.201C49.9295 19.3097 49.9744 19.4232 50.0075 19.5366C50.0441 19.6383 50.0299 19.7506 50.0713 19.8486C50.1162 20.2824 50.3561 20.5755 50.6397 20.8236C50.7248 20.8981 50.8099 20.9548 50.8288 21.0836C50.9045 21.5646 50.999 22.0433 51.1857 22.5515C50.8655 22.4475 50.6776 22.2146 50.4459 22.087C50.1446 21.9464 49.933 21.6852 49.7073 21.4441C49.6399 21.3767 49.6139 21.2526 49.4922 21.281C49.4189 21.3366 49.3906 21.4323 49.3551 21.515C49.2535 21.7348 49.1377 21.7384 48.9982 21.5564C48.949 21.5091 48.8969 21.4649 48.8422 21.424C48.7512 21.3484 48.6685 21.3247 48.6437 21.4985C48.6366 21.5528 48.6035 21.593 48.5798 21.6367C48.4416 21.9298 48.4416 21.9298 48.2076 21.6852C48.1875 21.6675 48.1721 21.6462 48.1556 21.6273C48.1284 21.6025 48.1721 21.6107 48.1367 21.6036C48.1201 21.6036 48.1272 21.5966 48.1485 21.6178C48.1639 21.6409 48.1818 21.6623 48.2017 21.6816C48.4321 21.9393 48.4321 21.9393 48.5763 21.6438C48.724 21.3484 48.737 21.346 48.9887 21.5457C49.2109 21.7703 49.2109 21.7667 49.3657 21.4866C49.4107 21.411 49.426 21.307 49.5265 21.2857C49.8125 21.5717 50.1245 21.8294 50.3821 22.1473C50.4718 22.2237 50.5444 22.3181 50.5953 22.4244C50.6462 22.5306 50.6743 22.6464 50.6776 22.7642C50.6965 23.0951 50.8407 23.3799 51.0439 23.6789H50.5038C50.4566 23.6624 50.4164 23.6553 50.4388 23.7356C50.7544 23.8101 51.0723 23.8869 51.2838 24.2013C51.3465 24.2261 51.3701 24.2096 51.3465 24.1316C51.3394 23.8916 51.4954 24.0382 51.5568 24.0382C52.598 24.0465 53.6392 24.1032 54.6792 24.0807C55.5738 24.0618 56.4543 23.803 57.3619 23.8503C57.9552 23.8786 58.5556 23.8869 59.1465 23.829C59.7161 23.7735 60.2562 23.5808 60.7857 23.3445C61.0267 23.2381 61.2158 23.0466 61.3707 22.8056C61.8576 22.0374 61.5893 21.0896 60.7857 20.8106C60.1108 20.5802 59.4171 20.6487 58.734 20.7858C57.5841 21.0175 56.4377 21.1782 55.2677 21.008C54.8116 20.9442 54.3849 20.787 53.9607 20.6062C53.7611 20.5112 53.5559 20.4287 53.3461 20.3592C52.9762 20.2469 52.7268 20.4266 52.6217 20.8437C52.5909 20.9737 52.6311 21.1226 52.5366 21.2373C52.3024 21.0441 52.1447 20.7739 52.0917 20.4751C52.0386 20.1763 52.0937 19.8683 52.247 19.6064C52.3699 19.3972 52.3557 19.2755 52.2092 19.097C51.8877 18.6964 51.6443 18.2414 51.5805 17.693C51.48 16.848 51.7991 16.198 52.377 15.6993C53.096 15.0787 54.0023 14.7171 54.951 14.6723C56.8159 14.5636 58.3736 15.3967 59.8248 16.5845C60.4075 17.0619 60.9629 17.5701 61.5385 18.0558C61.6945 18.1882 61.8611 18.3206 62.0691 18.3359C62.1743 18.3395 62.2464 18.3288 62.2464 18.1681C62.2511 17.6635 62.4697 17.3881 62.8184 17.4283C63.1398 17.4578 63.4081 17.9057 63.3656 18.3395C63.3464 18.566 63.2469 18.7783 63.0851 18.938C62.9232 19.0977 62.7096 19.1944 62.4827 19.2105C61.9545 19.2518 61.4995 19.0379 61.0953 18.6751C60.6214 18.2556 60.1912 17.7698 59.6948 17.3775C59.6121 17.3101 59.5365 17.2203 59.3958 17.2132C59.4171 17.6706 59.5719 18.057 59.8201 18.4848C59.137 18.3135 58.6584 17.9436 58.3133 17.2049C58.1549 17.9459 57.7992 18.3619 57.1197 18.4269C57.3797 17.862 57.7318 17.342 57.356 16.7062C57.252 16.5235 57.111 16.3646 56.9421 16.2394C56.7733 16.1143 56.5801 16.0257 56.3751 15.9794C56.641 16.6223 56.7817 17.2557 56.3125 17.8254C56.0548 18.1374 55.7239 18.2957 55.3079 18.3312C55.5065 17.9447 55.6778 17.5973 55.6696 17.1683C55.6507 16.5218 54.9877 15.7737 54.4121 15.7607C54.2348 15.7536 54.1982 15.8435 54.2207 16.0125C54.2537 16.2713 54.2348 16.523 54.1167 16.7535C54.0363 16.9024 53.9394 17.0158 53.8448 16.7629C53.7562 16.5136 53.5777 16.4556 53.3686 16.4604C53.1486 16.4672 52.9369 16.546 52.7661 16.6848C52.5953 16.8236 52.4748 17.0146 52.4231 17.2286C52.3297 17.6646 52.5626 18.2213 52.923 18.4553C53.0672 18.5475 53.0932 18.4104 53.1334 18.3383C53.214 18.1792 53.333 18.0427 53.4798 17.9414C53.6265 17.84 53.7963 17.777 53.9737 17.758C54.2467 17.719 54.4925 17.7982 54.7158 18.0286C54.5598 18.1185 54.4133 18.1929 54.2786 18.2827C53.82 18.59 53.7727 19.266 54.1769 19.6702C54.262 19.7541 54.3022 19.7234 54.3507 19.6359C54.4688 19.4256 54.6343 19.266 54.8092 19.123C54.9487 19.0107 55.0397 19.0143 55.1047 19.2199C55.3245 19.9018 55.5703 20.085 56.2274 20.1169C57.1516 20.1618 58.0592 20.0117 58.968 19.8876C59.5412 19.8144 60.1203 19.7683 60.6958 19.8522C61.36 19.9479 62.3646 20.5353 62.5489 21.6935C62.6754 22.49 62.4118 23.1294 61.9096 23.6695C61.7536 23.8408 61.4782 23.9815 61.4581 24.167C61.438 24.3443 61.6732 24.5594 61.7949 24.7615C62.2133 25.4646 62.4603 26.2151 62.4567 27.0861C62.4579 28.0715 62.3023 29.0509 61.9958 29.9875C61.7134 30.8419 61.4357 31.7035 61.3624 32.6265C61.3163 33.1866 61.3872 33.7267 61.6117 34.2373C61.7642 34.5824 61.9675 34.8589 62.348 34.8956C62.5714 34.9204 62.5986 35.0894 62.5253 35.2903C62.4189 35.5675 62.2321 35.8067 61.9887 35.9769C61.2253 36.5324 61.2442 37.2391 61.6685 38.0061C61.7725 38.1964 61.8753 38.389 61.9616 38.5864C62.0443 38.7743 61.9663 38.8736 61.7937 38.8854C61.5032 38.8994 61.2181 38.8027 60.996 38.6147C60.9287 38.558 60.8755 38.454 60.7679 38.5911C60.4725 38.9657 60.1936 39.0012 59.8402 38.6797C59.6783 38.5344 59.5802 38.5344 59.4207 38.6845C59.0815 38.9988 58.8309 38.9728 58.5709 38.6218C58.4776 38.5013 58.4267 38.5367 58.3405 38.5994C58.214 38.688 58.0852 38.7766 57.9493 38.8523C57.7827 38.9433 57.7129 38.8712 57.7531 38.6726C57.8217 38.3417 58.0119 38.1101 58.2483 37.9246C58.5485 37.6858 58.9007 37.5901 59.2481 37.492C59.9206 37.3065 59.9938 37.2096 59.9749 36.4213C59.9678 36.0585 59.9395 35.6956 59.9123 35.3411C59.8964 35.1189 59.8337 34.9025 59.7284 34.7062C59.6231 34.5099 59.4776 34.338 59.3013 34.2018C58.8034 33.8044 58.2888 33.4282 57.759 33.0744C57.4257 33.0011 57.2189 32.7151 56.9696 32.5036C56.7957 32.2705 56.6015 32.0534 56.3893 31.8547C56.0548 31.5061 55.7003 31.1929 55.237 31.0724C55.2113 31.0677 55.1863 31.0598 55.1626 31.0487C55.0692 31.0074 54.9711 31.005 54.8742 30.9896C54.6946 30.9282 54.5126 30.9518 54.3329 30.9246C54.0587 30.836 53.7798 30.7568 53.4903 30.8289C52.5874 30.8608 51.7684 31.2402 50.9541 31.629C50.2675 31.954 49.595 32.2991 48.9107 32.6288C48.7441 32.7056 48.5727 32.7529 48.399 32.812C48.3435 32.6962 48.4274 32.6146 48.4628 32.5284C48.6389 32.1348 48.8079 31.7389 48.9367 31.3241C49.2038 30.6092 49.3454 29.8536 49.3551 29.0905C49.3434 29.837 49.2088 30.5764 48.9568 31.2792C48.8207 31.6909 48.6612 32.0945 48.4794 32.4882C48.4309 32.5946 48.3978 32.708 48.2927 32.7565C48.0776 33.1571 47.8554 33.5554 47.6462 33.9572C47.567 34.1167 47.4926 34.2775 47.4429 34.4465C47.3058 34.9227 47.4524 35.2336 47.8837 35.3718C48.0279 35.4203 48.1792 35.4309 48.3257 35.4616C48.6519 35.5278 48.6543 35.542 48.4676 35.8339C48.2508 36.19 47.9232 36.4653 47.5351 36.6175C46.8733 36.8727 46.8733 36.8905 46.9891 37.6988C47.0364 37.9896 47.0364 38.2566 46.8804 38.519C46.6476 38.9102 46.5956 38.9421 46.1796 38.844C46.0496 38.8145 45.9125 38.7896 45.8097 38.6939C45.682 38.5805 45.578 38.6053 45.4551 38.6998C45.1017 38.9669 44.7496 38.9823 44.4198 38.6514C44.343 38.5746 44.291 38.5651 44.1988 38.6348C43.8608 38.909 43.5157 39.0827 43.1848 38.6195C43.1482 38.5663 43.108 38.5757 43.0643 38.6112C42.9993 38.6514 42.9367 38.701 42.8669 38.7329C42.731 38.7967 42.5916 38.9752 42.4616 38.844C42.3505 38.727 42.4616 38.5415 42.5112 38.3949C42.7594 37.6646 42.9946 37.4837 43.7048 37.4814C43.9365 37.4814 44.174 37.4908 44.4139 37.4731C45.0237 37.4294 45.4811 36.881 45.4988 36.1979C45.5154 35.6023 45.3464 35.0409 45.188 34.4902C44.9947 33.8554 44.8299 33.2122 44.694 32.5626C44.6172 32.3996 44.603 32.2223 44.5865 32.0403V31.4588C44.5735 31.1362 44.694 30.8289 44.7023 30.5642C44.6893 30.7143 44.6491 30.9187 44.6148 31.1196C44.5747 31.4943 44.5794 31.8654 44.6101 32.2329C44.6574 32.3877 44.6101 32.552 44.6408 32.7045C44.616 32.929 44.7295 33.1311 44.7224 33.3958C43.9837 33.1063 43.368 32.6359 42.7877 32.1065C42.51 32.0273 42.3658 31.7732 42.2004 31.5427C42.1153 31.4175 42.0349 31.2863 41.9227 31.1906C41.9078 31.1658 41.8974 31.1386 41.8919 31.1102C41.8246 30.8561 41.5976 30.6706 41.6449 30.3727" fill="#D1C4E9" fill-opacity="0.8"/>
<path fill-rule="evenodd" clip-rule="evenodd" d="M36.9791 25.7294C36.9004 25.4657 36.8625 25.1915 36.8668 24.9163C36.8502 22.8434 36.8112 20.7669 36.9767 18.6964C37.0831 17.342 37.284 16.0148 37.9009 14.82C38.2791 14.0885 38.7719 13.4881 39.468 13.0638C39.4573 13.2955 39.3427 13.455 39.2931 13.6394C39.0744 14.4572 38.9882 15.2998 38.9078 16.1448C38.6549 18.8607 38.6218 21.5859 38.5639 24.3088C38.5556 24.7638 38.5485 25.22 38.4504 25.6668C38.4657 25.693 38.4748 25.7225 38.4768 25.7528C38.4789 25.7832 38.4739 25.8136 38.4622 25.8417C38.3642 25.9776 38.3949 26.1088 38.4764 26.2376C38.4847 26.273 38.4906 26.3038 38.5001 26.3368C38.5308 26.5188 38.4386 26.6016 38.2992 26.6465C37.8725 26.7316 37.4435 26.7824 37.0169 26.6418C36.9152 26.5886 36.8916 26.4869 36.8916 26.3723C36.9488 26.1627 36.9782 25.9466 36.9791 25.7294Z" fill="#D1C4E9" fill-opacity="0.8"/>
<path fill-rule="evenodd" clip-rule="evenodd" d="M55.2335 30.9636H55.2252C55.653 31.1823 56.0714 31.4281 56.4058 31.8122C56.5997 32.0308 56.7911 32.2483 56.9873 32.4657C57.2095 32.7115 57.4955 32.8675 57.6976 33.1358C57.8122 33.2221 57.8725 33.3048 57.7448 33.4514C57.6211 33.5888 57.5252 33.7489 57.4624 33.9229C57.2887 34.4027 57.5758 34.8979 58.0308 34.9251C58.1798 34.9345 58.396 34.827 58.4693 35.0244C58.5437 35.2123 58.3688 35.3706 58.2731 35.5266C58.1041 35.7937 57.9127 36.0454 57.7401 36.3102C57.6245 36.4805 57.5491 36.6748 57.5196 36.8785C57.4901 37.0822 57.5073 37.29 57.5699 37.4861C57.6538 37.7709 57.7188 38.0593 57.694 38.3642C57.6562 38.8145 57.3962 39.0047 57.0216 38.8511C56.939 38.8209 56.8614 38.7787 56.7911 38.7258C56.6044 38.5675 56.4519 38.4363 56.2628 38.7754C56.1328 39.0142 55.6365 38.9184 55.4675 38.6478C55.3741 38.4954 55.3245 38.5154 55.2134 38.6218C54.8364 38.9929 54.6804 38.9929 54.314 38.6218C54.21 38.5178 54.1368 38.5036 54.0245 38.5911C53.8867 38.6998 53.7363 38.7915 53.5766 38.8641C53.4288 38.9326 53.3237 38.9066 53.3674 38.6608C53.456 38.2129 53.7657 37.8525 54.1687 37.7898C54.4866 37.7425 54.8092 37.7331 55.1295 37.6835C55.5786 37.6125 55.7878 37.3324 55.7748 36.8349C55.7641 36.3114 55.7665 35.7914 55.7322 35.2725C55.7067 34.789 55.5516 34.3212 55.2831 33.9182C55.0408 33.553 54.7938 33.1866 54.5539 32.8167C54.184 32.2506 53.9678 31.6349 54.0186 30.9175C54.1285 30.7958 54.2561 30.8454 54.379 30.8703C54.5516 30.8632 54.7229 30.8797 54.8931 30.9294C55.0054 30.927 55.1177 30.979 55.2335 30.9636Z" fill="#D1C4E9" fill-opacity="0.8"/>
<path fill-rule="evenodd" clip-rule="evenodd" d="M41.9782 31.1173L41.9687 31.1362C42.0644 31.2496 42.1283 31.3962 42.2263 31.5085C42.3528 31.7377 42.5915 31.8654 42.692 32.1242C42.6967 32.1336 42.6979 32.1431 42.7074 32.1502C43.1257 32.6536 43.1304 32.656 42.6341 33.0968C42.4906 33.2304 42.3347 33.3499 42.1684 33.4537C41.808 33.6936 41.47 33.6582 41.1568 33.3332C40.8173 32.9826 40.4729 32.6367 40.1239 32.2955C39.897 32.0722 39.6925 32.0935 39.5484 32.3842C39.4597 32.5591 39.4219 32.4858 39.3604 32.3948C39.2874 32.2788 39.2519 32.143 39.2588 32.006C39.2487 31.7193 39.2452 31.4325 39.2482 31.1456C39.2529 30.836 39.2316 30.55 38.9681 30.3633C38.8818 30.3054 38.844 30.2274 38.9433 30.1092C39.0059 30.0375 39.0474 29.9498 39.0631 29.8559C39.0788 29.7619 39.0679 29.6655 39.0319 29.5774C38.9941 29.4781 39.0236 29.3753 39.0508 29.2701C39.0827 29.1401 39.1276 28.9924 38.9681 28.9191C38.9137 28.9356 38.8877 28.9215 38.9066 28.8553C38.9066 28.8364 38.9066 28.8175 38.9114 28.7997C38.8664 28.6296 39.0532 28.4511 38.896 28.2868C38.8735 28.2679 38.8641 28.2384 38.8523 28.2124C38.8298 28.132 38.857 28.0599 38.8865 27.9902C38.9066 27.9346 38.9586 27.8767 38.9173 27.8153C38.8735 27.7503 38.8156 27.7905 38.7695 27.8188C38.6868 27.8708 38.6124 27.9417 38.5225 27.9831C38.3405 28.0682 38.2247 27.989 38.1692 27.781C38.129 27.7042 38.0285 27.6806 38.0073 27.5706C38.3004 27.4986 38.5887 27.4442 38.8653 27.3615C38.9846 27.3236 39.0402 27.3969 39.104 27.4714C39.793 28.2372 40.4855 29.0066 41.1722 29.7759C41.3471 29.9697 41.4924 30.1943 41.5834 30.4507C41.7631 30.6375 41.808 30.9246 41.9782 31.1173Z" fill="#D1C4E9" fill-opacity="0.8"/>
<path fill-rule="evenodd" clip-rule="evenodd" d="M38.5604 34.9641C38.4068 34.9901 38.3122 35.0078 38.2224 35.022C38.0191 35.0409 37.8525 35.1095 37.8442 35.3907C37.8379 35.4529 37.8155 35.5124 37.7792 35.5633C37.726 35.6649 37.6681 35.7866 37.5594 35.7866C37.4542 35.7843 37.4235 35.6484 37.3821 35.5609C37.1339 35.0645 37.1387 35.0645 36.6506 34.9724C36.673 34.8128 36.8125 34.7833 36.8858 34.6875C37.0548 34.4713 37.0347 34.3614 36.79 34.3023C36.5909 34.2481 36.4132 34.1343 36.2807 33.9761C36.1318 33.8165 36.1211 33.6298 36.257 33.4691C36.4048 33.2954 36.5501 33.4218 36.6352 33.5648C36.7711 33.7905 36.8527 33.6972 36.9626 33.5447C37.09 33.3571 37.1613 33.1371 37.1682 32.9104C37.1751 32.6838 37.1173 32.4598 37.0016 32.2648C36.8787 32.0663 36.8881 31.9386 37.0382 31.7909C37.0745 31.7552 37.1044 31.7137 37.1268 31.668C37.1859 31.564 37.2793 31.46 37.219 31.3229C37.1599 31.1941 37.0406 31.2331 36.9389 31.226C36.8834 31.226 36.8255 31.2284 36.7699 31.2189C36.6435 31.1953 36.5229 31.1527 36.478 31.0026C36.4426 30.8963 36.4556 30.7887 36.5383 30.7095C36.6506 30.5985 36.7676 30.6469 36.8787 30.7131C37.0973 30.8431 37.2438 30.8254 37.2498 30.4956C37.2521 30.3893 37.2994 30.3396 37.3963 30.3727C37.4128 30.3798 37.4329 30.3798 37.4518 30.3845C37.8218 30.5264 38.1456 30.8065 38.5628 30.8029C38.649 30.8029 38.7495 30.9246 38.7058 31.07C38.6656 31.2012 38.5698 31.2827 38.4434 31.2615C38.3217 31.2425 38.2047 31.1953 38.0841 31.1645C37.8891 31.1102 37.8489 31.2177 37.8974 31.4033C37.8974 31.4175 37.9045 31.4222 37.9068 31.434C37.9648 31.681 38.2354 31.8205 38.2378 32.0415C38.2425 32.2577 38.0085 32.435 37.9778 32.6926C37.9352 33.0661 37.9955 33.3887 38.2661 33.6369C38.3642 33.7244 38.4434 33.7504 38.5084 33.5849C38.6006 33.3509 38.7648 33.3296 38.922 33.4797C39.0875 33.6393 39.0367 33.8236 38.8937 33.9761C38.7476 34.1476 38.5452 34.2615 38.3228 34.2975C38.2496 34.307 38.1538 34.307 38.1255 34.3956C38.0971 34.4985 38.1728 34.5753 38.2295 34.6403C38.3264 34.7407 38.4245 34.8317 38.5604 34.9641Z" fill="#D1C4E9" fill-opacity="0.8"/>
<path fill-rule="evenodd" clip-rule="evenodd" d="M38.3973 25.7979L38.4528 25.6679C38.5387 25.6176 38.6349 25.5873 38.7341 25.5794C38.8334 25.5714 38.9331 25.5859 39.026 25.6218C39.4904 25.7956 39.6488 26.3096 39.377 26.7741C39.2439 27.0086 39.0261 27.1832 38.7684 27.2622C38.05 27.4926 37.2767 27.4868 36.5619 27.2457C36.3354 27.1698 36.1408 27.0205 36.0088 26.8214C35.7902 26.5023 35.7843 26.117 35.9923 25.8606C36.0984 25.7222 36.2548 25.6311 36.4276 25.6073C36.6003 25.5834 36.7756 25.6285 36.9153 25.7329C37.0831 25.8712 37.0405 26.0402 36.9779 26.2175C36.8656 26.3735 36.8503 26.5176 37.0417 26.6157C37.4684 26.7457 37.8985 26.7091 38.3204 26.6039C38.4327 26.5295 38.5994 26.4727 38.3925 26.3026L38.3996 26.3108C38.3394 26.1418 38.3075 25.9681 38.3973 25.7979Z" fill="#D1C4E9" fill-opacity="0.8"/>
<path fill-rule="evenodd" clip-rule="evenodd" d="M42.7109 21.2668C42.3434 21.1652 41.9758 21.0801 41.6118 20.9619C41.3078 20.8702 41.0469 20.6722 40.8767 20.4041C40.8117 20.3024 40.7337 20.1819 40.8117 20.0531C40.898 19.9101 41.0138 19.9881 41.1166 20.0306C41.7477 20.2859 42.3434 20.6239 42.9898 20.8307C43.4082 20.9607 43.8289 21.0742 44.2626 21.1014C44.3926 21.1061 44.5085 21.1321 44.5888 21.255C44.7224 21.3614 44.7472 21.541 44.811 21.6899C44.8228 21.7797 44.8855 21.866 44.8358 21.9629C44.7484 22.1106 44.629 22.0244 44.5215 22.0244C44.46 22.0196 44.4104 21.9924 44.3513 21.983C44.2122 21.9576 44.0723 21.9375 43.9317 21.9227C43.888 21.9133 43.8443 21.8979 43.7946 21.8979C43.6008 21.9003 43.433 21.8884 43.6008 21.593C43.641 21.5221 43.6103 21.4512 43.5465 21.4039C43.2664 21.3625 42.9756 21.424 42.7109 21.2668Z" fill="#D1C4E9" fill-opacity="0.8"/>
<path fill-rule="evenodd" clip-rule="evenodd" d="M38.2956 28.9297C38.1526 29.0538 37.9907 28.9959 37.8324 28.9853C37.6988 28.9416 37.5322 29.0526 37.4258 28.8683C37.2828 28.8328 37.1327 28.8033 36.9897 28.7619C36.7841 28.704 36.6494 28.5338 36.6754 28.3069C36.7061 28.0481 36.9153 28.1521 37.0642 28.1497C37.1091 28.1497 37.154 28.1545 37.2036 28.1592C37.2911 28.1226 37.3715 28.1616 37.4506 28.1828C37.7106 28.2336 37.947 28.3755 38.1905 28.4665C38.3925 28.5445 38.4221 28.7229 38.2956 28.9297Z" fill="#D1C4E9" fill-opacity="0.8"/>
<path fill-rule="evenodd" clip-rule="evenodd" d="M37.7237 29.0396C37.8619 29.1011 37.999 29.1566 38.1361 29.2264C38.2401 29.2796 38.3536 29.3493 38.3169 29.5017C38.2827 29.6601 38.1574 29.6908 38.0286 29.6885C37.9636 29.6885 37.895 29.6814 37.8312 29.6743C37.7083 29.7405 37.6126 29.6979 37.5417 29.5691C37.3975 29.5313 37.2509 29.5053 37.1091 29.4556C36.9709 29.4107 36.8302 29.3327 36.868 29.1306C36.9011 28.9581 37.0288 28.9144 37.1729 28.9203C37.2379 28.9226 37.3053 28.9274 37.3715 28.9274C37.4932 28.938 37.6279 28.9002 37.7237 29.0396Z" fill="#D1C4E9" fill-opacity="0.8"/>
<path fill-rule="evenodd" clip-rule="evenodd" d="M37.2048 28.0965C37.1966 28.0894 37.1895 28.0824 37.18 28.0776C37.0595 27.9819 36.8172 27.9618 36.8822 27.7278C36.9543 27.4702 37.1871 27.5718 37.3466 27.6049C37.6055 27.6616 37.8548 27.7585 38.1089 27.8377C38.2389 27.8625 38.3216 27.9606 38.3807 28.0812C38.428 28.1828 38.3736 28.2632 38.3181 28.34C38.2389 28.4535 38.1278 28.4629 38.0179 28.4204C37.8152 28.345 37.6098 28.2768 37.4022 28.2159C37.3263 28.196 37.2577 28.1545 37.2048 28.0965Z" fill="#D1C4E9" fill-opacity="0.8"/>
<path fill-rule="evenodd" clip-rule="evenodd" d="M37.83 29.7464C37.9388 29.8078 38.0475 29.8657 38.1515 29.939C38.2307 29.9945 38.3063 30.069 38.285 30.1943C38.2614 30.3266 38.1562 30.3361 38.0628 30.3455C37.7638 30.381 37.4897 30.2924 37.2226 30.147C37.0642 30.0654 36.985 29.9366 37.024 29.7464C37.0666 29.5348 37.2202 29.6565 37.3289 29.6364C37.3549 29.6341 37.3833 29.6341 37.4117 29.6341C37.5535 29.6589 37.7083 29.6093 37.83 29.7464Z" fill="#D1C4E9" fill-opacity="0.8"/>
<path fill-rule="evenodd" clip-rule="evenodd" d="M37.375 28.1592L37.9127 28.3069C38.0593 28.3412 38.2247 28.4038 38.3027 28.2017C38.3807 28.002 38.1916 27.9465 38.1089 27.8389L38.1692 27.7822C38.2779 27.8247 38.3524 27.9902 38.4966 27.8933C38.5415 27.8637 38.5687 27.8885 38.597 27.9205C38.6198 27.9783 38.6287 28.0406 38.623 28.1025C38.7282 28.0315 38.8003 27.9051 38.9303 27.9335C38.9705 27.9547 39 27.9807 38.9681 28.0339L38.896 28.2159C38.9456 28.353 38.9409 28.4712 38.8227 28.5752C38.6596 28.7288 38.5332 28.9274 38.3985 29.1117C38.3654 29.0494 38.3307 28.9879 38.2945 28.9274C38.3606 28.769 38.3063 28.6615 38.181 28.5941C37.921 28.4535 37.6598 28.3235 37.3726 28.2726C37.3443 28.236 37.3419 28.1994 37.375 28.1592Z" fill="#7E57C2" fill-opacity="0.8"/>
<path fill-rule="evenodd" clip-rule="evenodd" d="M38.9054 28.8588L38.9669 28.9226C38.9716 29.2666 38.8464 29.5384 38.5934 29.731C38.5426 29.77 38.4741 29.8244 38.4174 29.7582C38.3606 29.6991 38.3831 29.6116 38.4185 29.549C38.4705 29.4627 38.519 29.354 38.5934 29.3091C38.7672 29.2098 38.8487 29.0515 38.9054 28.8588Z" fill="#D1C4E9" fill-opacity="0.8"/>
<path fill-rule="evenodd" clip-rule="evenodd" d="M38.3996 29.1141C38.3797 29.0184 38.3906 28.9188 38.4307 28.8297C38.4708 28.7405 38.5381 28.6663 38.623 28.6177C38.7742 28.5232 38.8452 28.3837 38.896 28.2183C38.9208 28.223 38.9456 28.223 38.974 28.2254C39.0295 28.4227 39.0224 28.6024 38.8605 28.7383C38.727 28.8907 38.6419 29.1259 38.3996 29.1141Z" fill="#D1C4E9" fill-opacity="0.8"/>
<path fill-rule="evenodd" clip-rule="evenodd" d="M50.3762 22.1461C50.0454 21.9224 49.7573 21.6414 49.5253 21.3165C49.4733 21.2857 49.4248 21.2562 49.4591 21.1794C49.4804 21.1073 49.5276 21.0068 49.5808 21.1144C49.7853 21.5304 50.1457 21.7703 50.44 22.0858L50.3762 22.1461Z" fill="#7E57C2" fill-opacity="0.8"/>
<path fill-rule="evenodd" clip-rule="evenodd" d="M50.8181 21.0824C50.5818 20.8437 50.2946 20.6582 50.141 20.3296C50.0639 20.1919 50.0225 20.0371 50.0204 19.8794C50.0121 19.8155 49.9649 19.7364 50.0783 19.7269C50.1303 20.3273 50.5416 20.6369 50.8867 21.0009C50.8625 21.0269 50.8397 21.0542 50.8181 21.0824Z" fill="#7E57C2" fill-opacity="0.8"/>
<path fill-rule="evenodd" clip-rule="evenodd" d="M48.2903 32.7576L48.9048 31.2886C48.9722 31.2863 48.9899 31.3182 48.9675 31.3844C48.8445 31.8949 48.5668 32.3298 48.399 32.8132C48.3647 32.7943 48.3269 32.7765 48.2903 32.7576Z" fill="#7E57C2" fill-opacity="0.8"/>
<path fill-rule="evenodd" clip-rule="evenodd" d="M38.9669 29.77C38.9622 29.9378 38.6053 30.3574 38.5037 30.3479C38.4067 30.3361 38.4091 30.2522 38.4375 30.1801C38.5157 29.9832 38.6656 29.8232 38.857 29.7322C38.9267 29.7003 38.9622 29.7286 38.9669 29.77Z" fill="#D1C4E9" fill-opacity="0.8"/>
<path fill-rule="evenodd" clip-rule="evenodd" d="M57.6975 33.1382C57.4188 32.9658 57.1694 32.75 56.9589 32.4988C56.9506 32.4374 56.966 32.4114 57.0239 32.4326C57.2685 32.6442 57.512 32.8593 57.7578 33.0743C57.7377 33.0933 57.7176 33.1157 57.6975 33.1382Z" fill="#7E57C2" fill-opacity="0.8"/>
<path fill-rule="evenodd" clip-rule="evenodd" d="M42.7109 21.2668C43.0217 21.3035 43.3349 21.3365 43.6493 21.3696C43.5406 21.4843 43.3964 21.3696 43.2806 21.4417C43.0434 21.4505 42.8068 21.4124 42.5845 21.3295C42.6258 21.3082 42.6672 21.2857 42.7109 21.2668Z" fill="#7E57C2" fill-opacity="0.8"/>
<path fill-rule="evenodd" clip-rule="evenodd" d="M41.9782 31.1173C41.7347 30.9802 41.6804 30.6989 41.5835 30.4519C41.6071 30.4259 41.6236 30.3964 41.6449 30.3727C41.7572 30.6209 41.9167 30.8407 41.9782 31.1173Z" fill="#7E57C2" fill-opacity="0.8"/>
<path fill-rule="evenodd" clip-rule="evenodd" d="M54.3542 30.8927C54.2431 30.9045 54.1308 30.9116 54.0185 30.9199C53.8578 30.7674 53.6581 30.9033 53.4891 30.8324C53.7707 30.7562 54.0679 30.7586 54.3483 30.8395C54.3884 30.8525 54.392 30.8726 54.3542 30.8927Z" fill="#7E57C2" fill-opacity="0.8"/>
<path fill-rule="evenodd" clip-rule="evenodd" d="M42.6873 32.1218C42.4931 31.9554 42.3292 31.7567 42.2027 31.5344C42.2065 31.5244 42.2129 31.5155 42.2212 31.5086C42.2295 31.5018 42.2394 31.4972 42.25 31.4955C42.4261 31.6999 42.6022 31.902 42.7807 32.1053C42.7499 32.1112 42.7168 32.1147 42.6873 32.1218Z" fill="#7E57C2" fill-opacity="0.8"/>
<path fill-rule="evenodd" clip-rule="evenodd" d="M38.8629 28.7418C38.9527 28.5858 38.9042 28.3896 38.9763 28.2289C39.2068 28.4546 39.0271 28.6236 38.9101 28.8068C38.8948 28.7855 38.8771 28.7643 38.8629 28.7418Z" fill="#7E57C2" fill-opacity="0.8"/>
<path fill-rule="evenodd" clip-rule="evenodd" d="M36.92 26.2364C36.9569 26.1566 36.9756 26.0696 36.9748 25.9817C36.974 25.8939 36.9537 25.8072 36.9153 25.7282C36.9377 25.7258 36.9602 25.7258 36.9803 25.7258C37.1729 25.9208 37.0689 26.1158 36.985 26.3132C36.9472 26.3073 36.9247 26.2813 36.92 26.2364Z" fill="#7E57C2" fill-opacity="0.8"/>
<path fill-rule="evenodd" clip-rule="evenodd" d="M51.3382 24.1316C51.4469 24.2025 51.5604 24.2698 51.6431 24.4589C51.4947 24.417 51.365 24.3257 51.2756 24.2001C51.2956 24.1777 51.3157 24.154 51.3382 24.1316Z" fill="#7E57C2" fill-opacity="0.8"/>
<path fill-rule="evenodd" clip-rule="evenodd" d="M44.6373 32.7068C44.5652 32.565 44.59 32.4043 44.5794 32.2554C44.5723 32.1797 44.5014 32.0864 44.6325 32.0604C44.6526 32.2294 44.6692 32.3948 44.6905 32.565C44.6709 32.6116 44.6532 32.6589 44.6373 32.7068Z" fill="#7E57C2" fill-opacity="0.8"/>
<path fill-rule="evenodd" clip-rule="evenodd" d="M37.7236 29.0396L37.3702 28.9286C37.3903 28.9092 37.4093 28.8887 37.427 28.8671C37.5705 28.8691 37.7109 28.9095 37.8335 28.9841C37.7965 29.0019 37.7599 29.0204 37.7236 29.0396Z" fill="#7E57C2" fill-opacity="0.8"/>
<path fill-rule="evenodd" clip-rule="evenodd" d="M44.7649 21.7029L44.59 21.2562C44.6183 21.2562 44.6432 21.2514 44.6692 21.2514C44.7188 21.3555 44.7649 21.4654 44.8133 21.5717C44.8441 21.6367 44.863 21.6982 44.7649 21.7029Z" fill="#7E57C2" fill-opacity="0.8"/>
<path fill-rule="evenodd" clip-rule="evenodd" d="M37.83 29.7464C37.6907 29.7084 37.5512 29.671 37.4116 29.6341C37.453 29.6105 37.4979 29.5892 37.5393 29.5679C37.6437 29.5753 37.744 29.6117 37.8288 29.6731L37.83 29.7464Z" fill="#7E57C2" fill-opacity="0.8"/>
<path fill-rule="evenodd" clip-rule="evenodd" d="M51.4682 16.7227C51.4481 16.7251 51.4256 16.7251 51.4008 16.7298C51.4504 16.6187 51.4965 16.5076 51.5403 16.3965C51.5852 16.5324 51.5284 16.627 51.4682 16.7227Z" fill="#7E57C2" fill-opacity="0.8"/>
<path fill-rule="evenodd" clip-rule="evenodd" d="M50.4329 23.7309C50.3473 23.7024 50.2619 23.6737 50.1765 23.6446C50.3195 23.5784 50.4093 23.6198 50.4968 23.6742C50.4743 23.6954 50.4518 23.712 50.4329 23.7309Z" fill="#7E57C2" fill-opacity="0.8"/>
<path fill-rule="evenodd" clip-rule="evenodd" d="M37.375 28.1592V28.2738C37.3159 28.236 37.2616 28.197 37.2048 28.1592V28.0966C37.271 28.0883 37.323 28.1202 37.375 28.1592Z" fill="#7E57C2" fill-opacity="0.8"/>
<path fill-rule="evenodd" clip-rule="evenodd" d="M67.47 14.7408C67.4913 14.5659 67.4913 14.3863 67.5327 14.2244C67.7797 13.2907 67.8707 12.3287 67.9794 11.3715C68.1188 10.1282 68.939 9.64128 69.9566 10.1471C70.161 10.2487 70.3761 10.2818 70.5912 10.27C70.7638 10.2594 70.85 10.3114 70.7968 10.5194C70.7519 10.7061 70.8122 10.8692 70.8914 11.0299C70.9564 11.1599 71.0108 11.2982 71.0498 11.4388C71.227 12.0226 71.0616 12.5119 70.5865 12.8251C70.3002 13.0028 69.9856 13.1303 69.6564 13.2021C68.7665 13.4172 67.9298 13.7186 67.47 14.7408Z" fill="#D1C4E9" fill-opacity="0.8"/>
<path fill-rule="evenodd" clip-rule="evenodd" d="M67.5763 38.376C67.9699 39.1536 68.5986 39.5342 69.355 39.7091C69.6882 39.7859 70.018 39.8828 70.3312 40.0293C71.0899 40.3862 71.3026 40.989 70.9481 41.8233C70.8512 42.055 70.7259 42.2713 70.7956 42.5431C70.8346 42.6908 70.7554 42.7274 70.6396 42.7192C70.3205 42.7026 70.0333 42.8102 69.7379 42.952C69.0725 43.2675 68.302 42.8515 68.0621 42.0833C67.979 41.8198 67.9313 41.5464 67.9202 41.2703C67.8934 40.5401 67.786 39.8152 67.6 39.1087C67.5574 38.9338 67.5042 38.7612 67.5161 38.5769C67.5007 38.4965 67.4369 38.3961 67.5763 38.376Z" fill="#D1C4E9" fill-opacity="0.8"/>
<path fill-rule="evenodd" clip-rule="evenodd" d="M67.5764 38.376C67.5563 38.4457 67.5338 38.5095 67.5173 38.5769C67.4695 38.4707 67.4531 38.353 67.47 38.2377C67.5586 38.2365 67.5586 38.311 67.5764 38.376Z" fill="#7E57C2" fill-opacity="0.8"/>
<path fill-rule="evenodd" clip-rule="evenodd" d="M31.7058 38.4469C31.6893 38.5734 31.6822 38.7022 31.6538 38.8251C31.4387 39.7209 31.3111 40.625 31.2378 41.5516C31.1574 42.562 30.6469 43.0643 29.8184 43.0395C29.6652 43.0413 29.5146 42.999 29.3847 42.9177C29.1573 42.7714 28.8886 42.703 28.6189 42.7227C28.4475 42.7346 28.3695 42.6778 28.4074 42.4722C28.444 42.2736 28.3766 42.1035 28.2963 41.9274C27.8637 40.989 28.0894 40.3343 28.9723 39.9833C29.2925 39.8556 29.6211 39.7469 29.9508 39.6713C30.6989 39.4999 31.2721 39.0733 31.642 38.3145C31.7519 38.3098 31.7306 38.3784 31.7058 38.4469Z" fill="#D1C4E9" fill-opacity="0.8"/>
<path fill-rule="evenodd" clip-rule="evenodd" d="M31.7058 38.4469C31.6862 38.4024 31.6649 38.3586 31.642 38.3157C31.6491 38.2566 31.6987 38.1928 31.7223 38.2188C31.7791 38.2862 31.7377 38.3736 31.7058 38.4469Z" fill="#7E57C2" fill-opacity="0.8"/>
<path fill-rule="evenodd" clip-rule="evenodd" d="M31.642 14.6782C31.2721 13.9147 30.6989 13.4964 29.9555 13.3203C29.5561 13.2245 29.1613 13.117 28.7879 12.9267C28.1095 12.5745 27.9122 11.9966 28.2218 11.232C28.3258 10.9744 28.4653 10.7297 28.4062 10.4201C28.3778 10.2794 28.4723 10.27 28.5622 10.2724C28.8824 10.2913 29.1696 10.1719 29.4615 10.0395C30.134 9.724 30.8998 10.14 31.1362 10.9141C31.213 11.1694 31.2603 11.4294 31.2673 11.6929C31.2839 12.5403 31.473 13.351 31.655 14.1688C31.6798 14.2905 31.6881 14.4205 31.7046 14.5434C31.7306 14.612 31.7519 14.6817 31.642 14.6782Z" fill="#D1C4E9" fill-opacity="0.8"/>
<path fill-rule="evenodd" clip-rule="evenodd" d="M31.642 14.6782C31.6656 14.6333 31.6869 14.5884 31.7058 14.5446C31.7424 14.6179 31.7791 14.7054 31.7235 14.7716C31.7034 14.7952 31.6491 14.7385 31.642 14.6782Z" fill="#7E57C2" fill-opacity="0.8"/>
<path fill-rule="evenodd" clip-rule="evenodd" d="M45.0864 25.4764L45.0958 25.5048C45.1585 25.6372 45.1218 25.8783 45.2377 25.8924C45.3937 25.9114 45.5497 25.7695 45.6643 25.6254C45.8557 25.3795 45.9314 25.0817 45.9763 24.7047C46.1512 24.9872 46.1784 25.2602 46.2493 25.5143C46.2954 25.6892 46.3698 25.6584 46.4679 25.6041L46.4608 25.5946C46.4582 25.6671 46.4282 25.736 46.3769 25.7873C46.3214 25.8381 46.2741 25.9385 46.1949 25.9161C46.0838 25.883 46.1228 25.7577 46.1146 25.6738C46.1051 25.5178 46.1193 25.3618 45.9988 25.1656C45.8877 25.6904 45.5284 25.896 45.201 26.1264C45.0734 26.2174 45.0344 26.1844 45.0438 26.0224C45.0486 25.8842 45.0403 25.7459 45.0379 25.61C45.0096 25.545 44.9895 25.4835 45.0864 25.4764Z" fill="#7E57C2" fill-opacity="0.8"/>
<path fill-rule="evenodd" clip-rule="evenodd" d="M46.6487 20.4218C46.6865 20.3249 46.7196 20.2292 46.7693 20.0933C46.9395 20.2493 47.0966 20.3935 47.2515 20.54C47.3779 20.6606 47.424 20.6015 47.4488 20.4443C47.4843 20.2044 47.3803 19.9869 47.372 19.7257C47.5256 19.8522 47.6119 20.0141 47.7088 20.1618C47.723 20.2304 47.7006 20.2611 47.6356 20.2398C47.5646 20.3899 47.554 20.5601 47.5339 20.7244C47.5174 20.8792 47.4689 20.9099 47.359 20.8106C47.2302 20.6913 47.086 20.5873 46.9655 20.4573C46.8579 20.3426 46.7764 20.371 46.6806 20.4526C46.6511 20.4608 46.6416 20.4537 46.6487 20.4218Z" fill="#7E57C2" fill-opacity="0.8"/>
<path fill-rule="evenodd" clip-rule="evenodd" d="M48.9628 31.3844C48.9403 31.3525 48.9226 31.3182 48.9001 31.2886C49.148 30.5588 49.292 29.7978 49.3279 29.0278C49.4638 29.861 49.2192 30.6245 48.9628 31.3844Z" fill="#7E57C2" fill-opacity="0.8"/>
<path fill-rule="evenodd" clip-rule="evenodd" d="M47.9393 23.5288C47.7644 23.517 47.6486 23.2511 47.4926 23.3279C47.3614 23.4 47.4252 23.66 47.3531 23.8148C47.3082 23.9035 47.3129 24.0618 47.2101 24.0689C47.0978 24.0784 47.1049 23.92 47.0683 23.829L46.9643 23.569C46.9288 23.4934 46.9714 23.4934 47.0187 23.4946C47.0825 23.5926 47.1428 23.6943 47.2172 23.8148C47.3082 23.621 47.2988 23.4319 47.3236 23.2523C47.3448 23.1022 47.3779 23.0029 47.5292 23.1306C47.6687 23.2535 47.8578 23.309 47.9476 23.5064L47.9393 23.5288Z" fill="#7E57C2" fill-opacity="0.8"/>
<path fill-rule="evenodd" clip-rule="evenodd" d="M48.6909 23.0396C48.5526 23.1707 48.646 23.3445 48.6176 23.5005C48.5999 23.6305 48.6318 23.7699 48.5739 23.8964C48.5278 23.8916 48.5254 23.8526 48.5136 23.816C48.5183 23.6021 48.5254 23.3941 48.5183 23.1826C48.5113 22.9178 48.334 22.7807 48.1733 22.6366C48.0527 22.5231 48.0196 22.6968 47.9452 22.7335C47.8849 22.7547 47.8707 22.7216 47.8802 22.6602L47.9404 22.5231C47.97 22.4427 47.97 22.3151 48.0693 22.3009C48.152 22.2891 48.1733 22.4049 48.2134 22.4711C48.3446 22.7004 48.5644 22.815 48.7299 22.9982C48.7346 23.0301 48.7204 23.0466 48.6909 23.0396Z" fill="#7E57C2" fill-opacity="0.8"/>
<path fill-rule="evenodd" clip-rule="evenodd" d="M48.9922 21.5564C48.7819 21.4169 48.6755 21.5304 48.5975 21.7478C48.5585 21.8613 48.4959 21.9653 48.4226 22.1177C48.3245 21.97 48.243 21.8424 48.1567 21.7147C48.1378 21.645 48.1638 21.632 48.2182 21.6426L48.4073 21.8211C48.5881 21.5918 48.5952 21.3354 48.5562 20.9962C48.7122 21.2266 48.9166 21.3235 48.9899 21.5611L48.9922 21.5564Z" fill="#7E57C2" fill-opacity="0.8"/>
<path fill-rule="evenodd" clip-rule="evenodd" d="M47.8778 22.6555L47.9428 22.7287C47.8754 22.8493 47.8057 22.9391 47.7561 22.7169C47.7142 22.568 47.6457 22.4279 47.554 22.3033C47.2833 21.8967 47.2774 21.8967 46.9761 22.2229C46.9454 22.1981 46.9418 22.1685 46.9654 22.1378C47.0151 21.9901 46.9867 21.762 47.1226 21.7195C47.2585 21.6769 47.3495 21.8814 47.4488 21.9901C47.6202 22.1875 47.7844 22.3978 47.8778 22.6555Z" fill="#7E57C2" fill-opacity="0.8"/>
<path fill-rule="evenodd" clip-rule="evenodd" d="M50.2627 25.6585C50.1185 25.6171 49.9602 25.5994 49.8325 25.5261C49.5205 25.3417 49.2475 25.3169 49.0206 25.6703C48.9592 25.6904 48.9403 25.6608 48.9509 25.597C49.296 25.1692 49.2995 25.1621 49.7746 25.3725C49.9401 25.4434 50.1292 25.4386 50.2639 25.5911C50.3053 25.6171 50.3029 25.6372 50.2627 25.6585Z" fill="#7E57C2" fill-opacity="0.8"/>
<path fill-rule="evenodd" clip-rule="evenodd" d="M50.2628 25.6585C50.2628 25.6372 50.2628 25.6124 50.2651 25.5899C50.5074 25.6372 50.5913 25.5001 50.5984 25.2472C50.6031 25.0475 50.5263 24.7686 50.6492 24.6716C50.7615 24.5795 50.9872 24.6787 51.1669 24.6929L51.194 24.7059C51.2484 24.6976 51.3217 24.6315 51.3382 24.7626C51.246 24.7674 51.1468 24.7946 51.0581 24.7768C50.7532 24.7059 50.7107 24.9423 50.6646 25.1798C50.6622 25.2082 50.6776 25.2425 50.6776 25.2708C50.6906 25.779 50.6906 25.779 50.2628 25.6585Z" fill="#7E57C2" fill-opacity="0.8"/>
<path fill-rule="evenodd" clip-rule="evenodd" d="M47.9795 19.9656V19.5094C48.1485 19.7092 48.2726 19.8569 48.3966 20.0094C48.4853 20.1275 48.5633 20.1382 48.6295 19.9845C48.6885 19.9774 48.7075 20.007 48.6862 20.0696C48.6626 20.1973 48.5987 20.3024 48.5337 20.4159C48.4144 20.3367 48.3766 20.1843 48.2962 20.0708C48.1898 19.9243 48.1154 19.9597 48.0421 20.1039C47.931 20.1051 47.9676 20.0247 47.9795 19.9656Z" fill="#7E57C2" fill-opacity="0.8"/>
<path fill-rule="evenodd" clip-rule="evenodd" d="M56.3834 31.8642C56.0631 31.5569 55.7298 31.2591 55.3209 31.1007C55.2547 31.0759 55.2346 31.0286 55.2263 30.966C55.7263 31.07 56.1092 31.3962 56.4495 31.7956C56.4614 31.8571 56.4472 31.8843 56.3834 31.8642Z" fill="#7E57C2" fill-opacity="0.8"/>
<path fill-rule="evenodd" clip-rule="evenodd" d="M45.0863 25.4764C45.071 25.519 45.0532 25.5651 45.0379 25.6124C45.0296 25.5946 45.0131 25.5793 45.0095 25.5568C44.8559 25.0829 44.8559 25.0829 44.4162 25.207C44.3737 25.1834 44.3713 25.155 44.4068 25.1278C44.4162 25.1207 44.4233 25.1101 44.4316 25.1077C44.6124 25.0191 44.8299 24.8158 44.954 24.8737C45.1029 24.9411 45.0308 25.2673 45.0863 25.4764Z" fill="#7E57C2" fill-opacity="0.8"/>
<path fill-rule="evenodd" clip-rule="evenodd" d="M48.6909 23.0395C48.706 23.0279 48.7192 23.0139 48.7299 22.9982C48.854 23.0715 48.9769 23.1435 49.1034 23.2215C49.2239 23.0998 49.1696 22.8694 49.322 22.7654C49.3374 22.7878 49.3539 22.7973 49.3539 22.8138C49.3421 23.0277 49.3421 23.3338 49.1861 23.3799C49.0112 23.439 48.8398 23.2003 48.6909 23.0395Z" fill="#7E57C2" fill-opacity="0.8"/>
<path fill-rule="evenodd" clip-rule="evenodd" d="M49.4804 17.2427C49.1247 17.3302 48.7666 17.4306 48.4049 17.3597L48.3955 17.238C48.7158 17.2179 49.036 17.2014 49.3575 17.1789C49.3918 17.2155 49.4556 17.1789 49.4804 17.2427Z" fill="#7E57C2" fill-opacity="0.8"/>
<path fill-rule="evenodd" clip-rule="evenodd" d="M49.8491 19.2282C49.712 19.2766 49.7817 19.4031 49.7746 19.4953C49.7676 19.6111 49.8077 19.7269 49.7262 19.8912C49.673 19.5142 49.6281 19.1821 49.5749 18.8181C49.7439 18.9245 49.842 19.0533 49.9082 19.2199C49.894 19.2613 49.8727 19.266 49.8491 19.2282Z" fill="#7E57C2" fill-opacity="0.8"/>
<path fill-rule="evenodd" clip-rule="evenodd" d="M46.8544 18.3028C46.9867 18.1563 47.1924 18.3867 47.3153 18.187C47.3193 18.1731 47.326 18.1602 47.3352 18.149C47.3443 18.1378 47.3557 18.1286 47.3685 18.122C47.4429 18.1941 47.5221 18.265 47.6356 18.369C47.3306 18.4694 47.0907 18.4434 46.8579 18.291L46.8544 18.3028Z" fill="#7E57C2" fill-opacity="0.8"/>
<path fill-rule="evenodd" clip-rule="evenodd" d="M47.3673 18.1232C47.3519 18.1468 47.3318 18.1681 47.3141 18.1882L47.0175 17.6753L47.0553 17.6256C47.2337 17.7308 47.411 17.8396 47.5906 17.9459C47.593 18.0038 47.5847 18.0428 47.5197 18.0086C47.463 18.031 47.3295 17.9376 47.3673 18.1232Z" fill="#7E57C2" fill-opacity="0.8"/>
<path fill-rule="evenodd" clip-rule="evenodd" d="M48.9923 21.5564L48.9899 21.5611C49.3362 21.7301 49.3102 21.3141 49.4591 21.1794C49.4804 21.2254 49.5016 21.2715 49.5253 21.3164C49.4224 21.3649 49.439 21.4925 49.3846 21.5764C49.3338 21.6651 49.3421 21.8459 49.2133 21.8223C49.1164 21.8045 48.9899 21.7265 48.9923 21.5564Z" fill="#7E57C2" fill-opacity="0.8"/>
<path fill-rule="evenodd" clip-rule="evenodd" d="M48.7264 25.9196C48.4427 26.1643 48.4427 26.1643 48.3754 25.7908C48.3588 25.7089 48.3407 25.6274 48.321 25.5462C48.295 25.4788 48.269 25.4185 48.3754 25.4185C48.4865 25.5485 48.4108 25.8393 48.6661 25.8606C48.7264 25.8346 48.7382 25.8617 48.7264 25.9196Z" fill="#7E57C2" fill-opacity="0.8"/>
<path fill-rule="evenodd" clip-rule="evenodd" d="M45.11 18.5014C45.4941 18.3962 45.5295 18.2816 45.279 17.8833C45.4775 17.8573 45.5343 17.9826 45.5485 18.1563C45.5638 18.3572 45.5095 18.5179 45.3204 18.577C45.2287 18.6035 45.1311 18.6002 45.0415 18.5676C45.0355 18.5061 45.0485 18.4683 45.11 18.5014Z" fill="#7E57C2" fill-opacity="0.8"/>
<path fill-rule="evenodd" clip-rule="evenodd" d="M49.3007 19.916C49.4449 19.9656 49.5501 20.2445 49.7451 19.9964C49.7699 20.1914 49.7061 20.3391 49.6174 20.5199C49.538 20.311 49.409 20.1244 49.2416 19.9763C49.231 19.9195 49.2381 19.8865 49.3007 19.916Z" fill="#7E57C2" fill-opacity="0.8"/>
<path fill-rule="evenodd" clip-rule="evenodd" d="M47.0848 25.0191C47.2266 25.1125 47.229 25.4221 47.4819 25.3453C47.5056 25.3252 47.5221 25.3252 47.5457 25.3453C47.5041 25.4772 47.4357 25.5991 47.3448 25.7034C47.2361 25.4883 47.1297 25.2897 47.0257 25.0877C47.0261 25.0711 47.0321 25.0552 47.0429 25.0427C47.0537 25.0302 47.0685 25.0219 47.0848 25.0191Z" fill="#7E57C2" fill-opacity="0.8"/>
<path fill-rule="evenodd" clip-rule="evenodd" d="M50.1209 23.5666C49.9776 23.5315 49.8431 23.4672 49.7257 23.3777C49.6084 23.2883 49.5108 23.1755 49.439 23.0466C49.6966 23.1601 49.8834 23.4083 50.1209 23.5666Z" fill="#7E57C2" fill-opacity="0.8"/>
<path fill-rule="evenodd" clip-rule="evenodd" d="M56.3833 31.8642L56.4495 31.7956C56.6398 32.0084 56.8336 32.2187 57.0239 32.4326L56.9589 32.4988C56.7449 32.3085 56.5519 32.0957 56.3833 31.8642Z" fill="#7E57C2" fill-opacity="0.8"/>
<path fill-rule="evenodd" clip-rule="evenodd" d="M44.6325 32.0627C44.614 32.1275 44.5962 32.1925 44.5794 32.2577C44.5022 31.8697 44.5006 31.4704 44.5746 31.0818C44.6621 31.1775 44.5746 31.3123 44.6373 31.4127C44.6325 31.6278 44.6325 31.8429 44.6325 32.0627Z" fill="#7E57C2" fill-opacity="0.8"/>
<path fill-rule="evenodd" clip-rule="evenodd" d="M45.1337 22.9911C45.201 23.1885 45.2566 23.3882 45.3369 23.5808C45.3688 23.6541 45.3665 23.6931 45.3133 23.7333C45.2258 23.7912 45.1868 23.7215 45.1738 23.647C45.1384 23.4532 45.1124 23.2535 45.0817 23.0561C45.0533 22.9887 45.0864 22.9816 45.1337 22.9911Z" fill="#7E57C2" fill-opacity="0.8"/>
<path fill-rule="evenodd" clip-rule="evenodd" d="M47.7573 24.4388C47.7856 24.3714 47.8093 24.3005 47.8471 24.2426C47.8766 24.1942 47.9204 24.1386 47.9806 24.1646C48.0303 24.1859 48.035 24.2403 48.0433 24.2958C48.0622 24.427 48.0882 24.5605 48.1165 24.6929C48.1449 24.7673 48.1094 24.7756 48.0551 24.7685C48.0149 24.6645 47.9877 24.5523 47.9322 24.4613C47.8636 24.3478 47.8447 24.4683 47.8116 24.5109C47.7596 24.518 47.7265 24.505 47.7573 24.4388Z" fill="#7E57C2" fill-opacity="0.8"/>
<path fill-rule="evenodd" clip-rule="evenodd" d="M45.845 23.2381C45.6678 23.0514 45.7009 23.3586 45.6087 23.3657C45.552 23.3787 45.52 23.3657 45.5425 23.2925L45.7529 22.7949C45.8066 22.8541 45.8466 22.9244 45.8703 23.0007C45.894 23.0771 45.9007 23.1577 45.89 23.2369C45.8758 23.2688 45.8616 23.2712 45.845 23.2381Z" fill="#7E57C2" fill-opacity="0.8"/>
<path fill-rule="evenodd" clip-rule="evenodd" d="M44.4044 25.1255C44.4092 25.1515 44.4115 25.1786 44.4139 25.2046C44.2756 25.2555 44.1385 25.3299 43.9624 25.272C44.0901 25.0876 44.2224 24.9139 44.3075 24.7095C44.3619 24.6976 44.3926 24.7189 44.369 24.791L44.2922 25.0179C44.2106 25.2259 44.343 25.1278 44.4044 25.1255Z" fill="#7E57C2" fill-opacity="0.8"/>
<path fill-rule="evenodd" clip-rule="evenodd" d="M43.2805 21.4382C43.3964 21.3531 43.524 21.398 43.6493 21.3661C43.7497 21.3744 43.745 21.4311 43.7072 21.5185C43.6658 21.6143 43.5701 21.6864 43.5724 21.8235C43.693 21.84 43.8123 21.8577 43.9293 21.8802C43.7568 21.9097 43.5653 22.0575 43.4531 21.7667C43.6079 21.4689 43.6079 21.4689 43.2805 21.4382Z" fill="#7E57C2" fill-opacity="0.8"/>
<path fill-rule="evenodd" clip-rule="evenodd" d="M47.0848 25.0191C47.0659 25.0451 47.0446 25.0652 47.0257 25.0876C46.9489 25.0321 46.8721 24.8666 46.7929 25.0876C46.7373 25.09 46.7042 25.0782 46.735 25.0061C46.7551 24.8584 46.7929 24.7224 46.9241 24.6173C46.9843 24.7614 47.0328 24.8891 47.0848 25.0191Z" fill="#7E57C2" fill-opacity="0.8"/>
<path fill-rule="evenodd" clip-rule="evenodd" d="M49.8609 17.0477C50.089 16.9237 50.3183 16.7996 50.544 16.6743C50.3939 16.9367 50.1741 17.0477 49.9319 17.1151C49.868 17.1506 49.8574 17.1127 49.8609 17.0477Z" fill="#7E57C2" fill-opacity="0.8"/>
<path fill-rule="evenodd" clip-rule="evenodd" d="M44.6373 31.4104C44.5593 31.3123 44.6065 31.1882 44.5746 31.0795C44.5793 30.849 44.6136 30.6292 44.7413 30.4318C44.7732 30.7675 44.6373 31.0795 44.6373 31.4104Z" fill="#7E57C2" fill-opacity="0.8"/>
<path fill-rule="evenodd" clip-rule="evenodd" d="M45.8451 23.2381H45.89C45.9367 23.3202 45.9577 23.4145 45.9503 23.5087C45.9432 23.6813 46.0318 23.6541 46.1275 23.621L46.1181 23.6092C46.1027 23.7581 45.9999 23.8574 45.9006 23.8337C45.7647 23.8089 45.8463 23.6494 45.8368 23.5501C45.8321 23.4461 45.8404 23.3421 45.8451 23.2381Z" fill="#7E57C2" fill-opacity="0.8"/>
<path fill-rule="evenodd" clip-rule="evenodd" d="M43.4519 21.7703C43.5843 21.9523 43.7627 21.8944 43.9282 21.8837C44.0806 21.8837 44.2331 21.866 44.3737 21.9487C44.3489 22.0161 44.2851 21.9794 44.2496 22.0114C44.0097 21.9806 43.7698 21.9487 43.5252 21.9664C43.3467 21.9794 43.3562 21.892 43.4519 21.7703Z" fill="#7E57C2" fill-opacity="0.8"/>
<path fill-rule="evenodd" clip-rule="evenodd" d="M46.9643 22.1414L46.9749 22.2264C46.8591 22.6094 46.8142 22.6094 46.5093 22.2264C46.4809 22.1626 46.514 22.1532 46.5601 22.1532C46.6995 22.3387 46.8343 22.3352 46.9643 22.1414Z" fill="#7E57C2" fill-opacity="0.8"/>
<path fill-rule="evenodd" clip-rule="evenodd" d="M48.5136 23.8136C48.5349 23.8408 48.5514 23.8704 48.5739 23.894C48.5774 24.0051 48.5644 24.1292 48.4687 24.1646C48.3458 24.2084 48.3943 24.0358 48.3364 23.9791C48.2891 23.933 48.2595 23.8668 48.2229 23.8065C48.204 23.7498 48.2205 23.7321 48.2702 23.7498C48.3553 23.7427 48.4073 23.9342 48.5136 23.8136Z" fill="#7E57C2" fill-opacity="0.8"/>
<path fill-rule="evenodd" clip-rule="evenodd" d="M45.6784 17.6729C45.8805 17.7545 46.0909 17.8183 46.2292 18.0263L46.2315 18.0192C45.9893 18.0263 45.8155 17.8254 45.6087 17.7391C45.6064 17.68 45.6146 17.6398 45.6784 17.6729Z" fill="#7E57C2" fill-opacity="0.8"/>
<path fill-rule="evenodd" clip-rule="evenodd" d="M46.5164 20.7515C46.5081 20.9064 46.4526 20.9785 46.3249 20.8745C46.228 20.7965 46.1441 20.7066 46.0401 20.6097C46.2233 20.4975 46.2883 20.8532 46.449 20.6806C46.5081 20.6641 46.5353 20.6806 46.5164 20.7515Z" fill="#7E57C2" fill-opacity="0.8"/>
<path fill-rule="evenodd" clip-rule="evenodd" d="M48.6909 20.0696L48.6342 19.9845C48.6602 19.7765 48.6933 19.5662 48.724 19.3582C48.8481 19.6135 48.8043 19.8475 48.6909 20.0696Z" fill="#7E57C2" fill-opacity="0.8"/>
<path fill-rule="evenodd" clip-rule="evenodd" d="M48.9627 18.0109C48.9474 17.8041 48.7347 17.758 48.6815 17.5559C48.8788 17.589 49.0017 17.7379 49.0951 17.8939C49.1636 18.0062 49.0786 18.0712 48.9592 18.0475L48.9627 18.0109Z" fill="#7E57C2" fill-opacity="0.8"/>
<path fill-rule="evenodd" clip-rule="evenodd" d="M50.8182 19.1809C50.6454 19.0588 50.5116 18.8893 50.4329 18.6928C50.6433 18.7566 50.7213 18.9434 50.8324 19.0757C50.8572 19.1171 50.8501 19.1502 50.8182 19.1809Z" fill="#7E57C2" fill-opacity="0.8"/>
<path fill-rule="evenodd" clip-rule="evenodd" d="M47.5445 25.3476H47.4807C47.5398 25.1349 47.5965 24.9234 47.6533 24.7071C47.7644 24.7118 47.7325 24.7863 47.7147 24.8548C47.701 25.0309 47.6424 25.2006 47.5445 25.3476Z" fill="#7E57C2" fill-opacity="0.8"/>
<path fill-rule="evenodd" clip-rule="evenodd" d="M48.9627 18.0109C48.9674 18.0239 48.9674 18.0357 48.958 18.0475C48.8953 18.1338 48.8138 18.1291 48.7263 18.1137C48.5112 18.0653 48.2938 18.1066 48.0787 18.0889C48.0444 18.0735 48.0314 18.0499 48.0444 18.0109H48.9627Z" fill="#7E57C2" fill-opacity="0.8"/>
<path fill-rule="evenodd" clip-rule="evenodd" d="M46.41 22.0858C46.2502 21.9475 46.1419 21.7593 46.1027 21.5516C46.2812 21.7171 46.371 21.8731 46.4596 22.0362C46.4644 22.0823 46.4596 22.113 46.41 22.0858Z" fill="#7E57C2" fill-opacity="0.8"/>
<path fill-rule="evenodd" clip-rule="evenodd" d="M45.3582 17.6327C45.1727 17.6103 45.0119 17.6847 44.8678 17.8065C44.9718 17.472 45.1963 17.5039 45.4327 17.5677C45.4386 17.6327 45.4173 17.6564 45.3582 17.6327Z" fill="#7E57C2" fill-opacity="0.8"/>
<path fill-rule="evenodd" clip-rule="evenodd" d="M46.1263 23.6198C46.144 23.4071 46.2882 23.3161 46.4312 23.2239C46.3544 23.3787 46.3296 23.5844 46.1169 23.608L46.1263 23.6198Z" fill="#7E57C2" fill-opacity="0.8"/>
<path fill-rule="evenodd" clip-rule="evenodd" d="M47.0186 23.4957C47.0009 23.5205 46.9844 23.5454 46.9643 23.5702C46.8473 23.3976 46.7303 23.2251 46.6168 23.0537C46.6393 23.0147 46.6664 23.0135 46.6936 23.0395C46.8414 23.1577 46.9465 23.3137 47.0186 23.4957Z" fill="#7E57C2" fill-opacity="0.8"/>
<path fill-rule="evenodd" clip-rule="evenodd" d="M48.2182 21.6426C48.1958 21.6651 48.178 21.6887 48.1568 21.7147L47.8377 21.32C47.9963 21.3831 48.13 21.4965 48.2182 21.6426Z" fill="#7E57C2" fill-opacity="0.8"/>
<path fill-rule="evenodd" clip-rule="evenodd" d="M42.2536 31.499C42.237 31.512 42.2216 31.5274 42.2063 31.538C42.0881 31.4364 41.9782 31.3194 41.9687 31.1362C42.1342 31.1917 42.1897 31.3454 42.2536 31.499Z" fill="#7E57C2" fill-opacity="0.8"/>
<path fill-rule="evenodd" clip-rule="evenodd" d="M48.0528 18.0594C48.2749 18.096 48.5066 18.0109 48.7228 18.1161C48.4623 18.1549 48.1973 18.1541 47.9369 18.1137C47.9417 18.0085 47.9948 18.0263 48.0528 18.0594Z" fill="#7E57C2" fill-opacity="0.8"/>
<path fill-rule="evenodd" clip-rule="evenodd" d="M47.6391 20.2445L47.7124 20.1665C47.7691 20.2091 47.8246 20.254 47.8778 20.2965C47.9062 20.2717 47.9381 20.2741 47.9676 20.3036C47.7904 20.7385 47.7372 20.3344 47.6391 20.2445Z" fill="#7E57C2" fill-opacity="0.8"/>
<path fill-rule="evenodd" clip-rule="evenodd" d="M48.0527 18.0594L47.9369 18.1137C47.7924 18.1085 47.6506 18.0727 47.5209 18.0085C47.5457 17.9885 47.5682 17.9636 47.5918 17.9459C47.7431 17.9684 47.892 17.9885 48.0409 18.0133C48.0433 18.0286 48.0504 18.044 48.0527 18.0594Z" fill="#7E57C2" fill-opacity="0.8"/>
<path fill-rule="evenodd" clip-rule="evenodd" d="M54.3542 30.8927C54.3542 30.875 54.3542 30.8585 54.3471 30.8396C54.5386 30.8396 54.7312 30.8112 54.9156 30.8998C54.9557 30.9235 54.9557 30.9388 54.9156 30.9625L54.3542 30.8927Z" fill="#7E57C2" fill-opacity="0.8"/>
<path fill-rule="evenodd" clip-rule="evenodd" d="M48.3813 25.4174C48.3624 25.4575 48.347 25.5001 48.3269 25.545C48.2631 25.3772 48.1709 25.2188 48.178 25.0262C48.1898 25.0262 48.1981 25.0285 48.2064 25.0297C48.3222 25.1278 48.3317 25.2815 48.3813 25.4174Z" fill="#7E57C2" fill-opacity="0.8"/>
<path fill-rule="evenodd" clip-rule="evenodd" d="M44.369 24.7933C44.3478 24.7662 44.33 24.7378 44.3076 24.7118C44.3478 24.5747 44.3891 24.4423 44.4329 24.3112L44.4979 24.336C44.473 24.492 44.4659 24.6503 44.369 24.7933Z" fill="#7E57C2" fill-opacity="0.8"/>
<path fill-rule="evenodd" clip-rule="evenodd" d="M51.3382 24.7614C51.2885 24.7402 51.2389 24.7236 51.194 24.7047C51.3476 24.6326 51.5131 24.6421 51.6762 24.6326C51.6892 24.6468 51.6951 24.6586 51.6915 24.6775C51.6845 24.6917 51.6821 24.6976 51.6762 24.6976C51.5651 24.7319 51.4564 24.7756 51.3382 24.7614Z" fill="#7E57C2" fill-opacity="0.8"/>
<path fill-rule="evenodd" clip-rule="evenodd" d="M46.2327 18.0227L46.2303 18.0298C46.3923 18.0074 46.5104 18.1196 46.6475 18.1835C46.6404 18.2319 46.5955 18.2307 46.5719 18.2532C46.4513 18.1917 46.2977 18.1917 46.2327 18.0227Z" fill="#7E57C2" fill-opacity="0.8"/>
<path fill-rule="evenodd" clip-rule="evenodd" d="M44.525 21.9724C44.6184 21.957 44.7188 22.0445 44.8051 21.9464C44.8441 21.9535 44.8512 21.9925 44.863 22.0267C44.7117 22.1544 44.5581 22.0941 44.4044 22.0338C44.4293 21.9724 44.4907 22.0055 44.525 21.9724Z" fill="#7E57C2" fill-opacity="0.8"/>
<path fill-rule="evenodd" clip-rule="evenodd" d="M48.2678 23.7546L48.2205 23.8113C48.1012 23.7481 48.0036 23.6505 47.9405 23.5312L47.9476 23.5099C48.0976 23.5206 48.1804 23.6387 48.2678 23.7546Z" fill="#7E57C2" fill-opacity="0.8"/>
<path fill-rule="evenodd" clip-rule="evenodd" d="M48.7264 25.9196C48.7039 25.8995 48.6862 25.8771 48.6661 25.8594C48.7583 25.7695 48.854 25.6833 48.9462 25.597L49.0159 25.6703C48.9398 25.7745 48.8407 25.8598 48.7264 25.9196Z" fill="#7E57C2" fill-opacity="0.8"/>
<path fill-rule="evenodd" clip-rule="evenodd" d="M49.8609 17.0477C49.8857 17.0725 49.9082 17.0926 49.933 17.1151C49.8396 17.1907 49.7321 17.2014 49.6281 17.2191C49.5962 17.1919 49.5323 17.2238 49.5075 17.1612C49.6257 17.1234 49.7463 17.0879 49.8609 17.0477Z" fill="#7E57C2" fill-opacity="0.8"/>
<path fill-rule="evenodd" clip-rule="evenodd" d="M51.6786 24.6976V24.6326C51.6786 24.557 51.6845 24.4766 51.772 24.4861C51.8039 24.4861 51.8665 24.5452 51.8618 24.57C51.8452 24.6882 51.7554 24.6834 51.6786 24.6976Z" fill="#7E57C2" fill-opacity="0.8"/>
<path fill-rule="evenodd" clip-rule="evenodd" d="M44.863 22.0267C44.8441 21.9972 44.8228 21.9724 44.8051 21.9464C44.7909 21.8672 44.7803 21.7868 44.7649 21.7041L44.8134 21.5729C44.8796 21.7171 44.9576 21.8589 44.863 22.0267Z" fill="#7E57C2" fill-opacity="0.8"/>
<path fill-rule="evenodd" clip-rule="evenodd" d="M46.4691 25.6041C46.4596 25.4564 46.5554 25.3701 46.6227 25.2673C46.6629 25.2744 46.67 25.3145 46.6854 25.3453C46.6298 25.4516 46.5979 25.5781 46.4632 25.5946L46.4691 25.6041Z" fill="#7E57C2" fill-opacity="0.8"/>
<path fill-rule="evenodd" clip-rule="evenodd" d="M44.7484 18.2662C44.6751 18.1539 44.6668 18.0499 44.7625 17.9282C44.8382 18.0192 44.8027 18.109 44.8051 18.1953C44.7956 18.2272 44.7862 18.2591 44.7484 18.2662Z" fill="#7E57C2" fill-opacity="0.8"/>
<path fill-rule="evenodd" clip-rule="evenodd" d="M47.71 24.8536C47.6876 24.8064 47.671 24.7579 47.6486 24.7059C47.6552 24.608 47.6906 24.5143 47.7502 24.4364L47.8057 24.5097C47.775 24.6255 47.7407 24.7378 47.71 24.8536Z" fill="#7E57C2" fill-opacity="0.8"/>
<path fill-rule="evenodd" clip-rule="evenodd" d="M46.6818 25.3453C46.6594 25.3205 46.6417 25.2921 46.6192 25.2673L46.735 25.0073C46.7527 25.0333 46.7752 25.0605 46.7929 25.0888C46.7785 25.1824 46.7403 25.2707 46.6818 25.3453Z" fill="#7E57C2" fill-opacity="0.8"/>
<path fill-rule="evenodd" clip-rule="evenodd" d="M48.2063 25.0309C48.1969 25.0297 48.1886 25.0274 48.178 25.0274C48.0846 24.973 48.0823 24.8607 48.0539 24.7697C48.0775 24.7461 48.0941 24.7201 48.1154 24.6941C48.1843 24.7922 48.2165 24.9114 48.2063 25.0309Z" fill="#7E57C2" fill-opacity="0.8"/>
<path fill-rule="evenodd" clip-rule="evenodd" d="M46.5754 18.2484C46.6002 18.226 46.6298 18.2035 46.651 18.1787C46.735 18.1846 46.82 18.1964 46.8602 18.3016L46.865 18.2898C46.761 18.3335 46.67 18.2981 46.5754 18.2484Z" fill="#7E57C2" fill-opacity="0.8"/>
<path fill-rule="evenodd" clip-rule="evenodd" d="M46.5164 20.7515L46.4478 20.6806C46.5128 20.5944 46.5814 20.5105 46.6464 20.4265C46.6653 20.4265 46.6771 20.4372 46.6771 20.4573C46.6629 20.5861 46.5731 20.657 46.5164 20.7515Z" fill="#7E57C2" fill-opacity="0.8"/>
<path fill-rule="evenodd" clip-rule="evenodd" d="M54.9191 30.9637V30.901C55.0297 30.8912 55.1406 30.9155 55.237 30.9707C55.1282 31.0677 55.0231 31.0015 54.9191 30.9637Z" fill="#7E57C2" fill-opacity="0.8"/>
<path fill-rule="evenodd" clip-rule="evenodd" d="M49.3007 19.916C49.2783 19.9361 49.2605 19.9562 49.2404 19.9775C49.1506 19.9356 49.0744 19.8693 49.0206 19.786C49.0288 19.7622 49.0457 19.7423 49.0679 19.7305C49.1609 19.7701 49.2414 19.8342 49.3007 19.916Z" fill="#7E57C2" fill-opacity="0.8"/>
<path fill-rule="evenodd" clip-rule="evenodd" d="M50.0854 19.7269C50.0665 19.7777 50.05 19.8285 50.0275 19.8794C49.972 19.7825 49.9791 19.669 49.9649 19.5567C49.9448 19.4929 49.9696 19.4705 50.0275 19.4728C50.0453 19.5567 50.0642 19.6395 50.0854 19.7269Z" fill="#7E57C2" fill-opacity="0.8"/>
<path fill-rule="evenodd" clip-rule="evenodd" d="M45.5425 23.2936L45.6087 23.3669L45.4303 23.6293C45.4149 23.439 45.4858 23.3657 45.5425 23.2936Z" fill="#7E57C2" fill-opacity="0.8"/>
<path fill-rule="evenodd" clip-rule="evenodd" d="M45.7434 19.9444C45.7836 20.0637 45.8297 20.1287 45.7907 20.2646C45.7009 20.1677 45.7103 20.085 45.7434 19.9444Z" fill="#7E57C2" fill-opacity="0.8"/>
<path fill-rule="evenodd" clip-rule="evenodd" d="M44.7484 18.2662C44.7661 18.2414 44.7862 18.2201 44.8051 18.1941C44.8441 18.2615 44.8831 18.33 44.9233 18.3962C44.928 18.4482 44.928 18.4872 44.8677 18.4505C44.8053 18.4072 44.7624 18.3409 44.7484 18.2662Z" fill="#7E57C2" fill-opacity="0.8"/>
<path fill-rule="evenodd" clip-rule="evenodd" d="M46.6948 23.0395C46.67 23.0443 46.6416 23.0466 46.618 23.0537C46.5707 23.0714 46.5376 23.1577 46.4797 23.1081C46.4431 23.0773 46.4762 23.0313 46.4986 23.0041C46.579 22.8989 46.6393 22.9603 46.6948 23.0395Z" fill="#7E57C2" fill-opacity="0.8"/>
<path fill-rule="evenodd" clip-rule="evenodd" d="M50.0264 19.4728C50.0039 19.5023 49.9862 19.5295 49.9638 19.5567C49.9283 19.4468 49.8893 19.3333 49.8503 19.2223L49.9106 19.2128C49.9862 19.279 50.0051 19.3759 50.0264 19.4728Z" fill="#7E57C2" fill-opacity="0.8"/>
<path fill-rule="evenodd" clip-rule="evenodd" d="M45.3582 17.6327C45.383 17.6103 45.4078 17.5878 45.4326 17.5677C45.5213 17.5807 45.6087 17.6032 45.6796 17.6729C45.656 17.6942 45.6324 17.7202 45.6087 17.7391L45.3582 17.6327Z" fill="#7E57C2" fill-opacity="0.8"/>
<path fill-rule="evenodd" clip-rule="evenodd" d="M47.9629 20.3036C47.931 20.3036 47.9015 20.2989 47.8731 20.2965C47.9085 20.1843 47.9428 20.0755 47.9795 19.9656C48.0031 20.0094 48.0196 20.0566 48.0421 20.1051C48.0125 20.1677 47.9877 20.2375 47.9629 20.3036Z" fill="#7E57C2" fill-opacity="0.8"/>
<path fill-rule="evenodd" clip-rule="evenodd" d="M50.8182 19.1809C50.8253 19.1478 50.8276 19.1088 50.8324 19.0757C50.8997 19.1419 50.9931 19.188 50.9931 19.318C50.9009 19.3121 50.8678 19.2364 50.8182 19.1809Z" fill="#7E57C2" fill-opacity="0.8"/>
<path fill-rule="evenodd" clip-rule="evenodd" d="M44.8678 18.4506C44.8842 18.4304 44.9028 18.4122 44.9233 18.3962C44.9883 18.4293 45.0462 18.4659 45.1124 18.5014C45.0876 18.525 45.0675 18.5463 45.0415 18.5687C44.967 18.5581 44.9032 18.5297 44.8678 18.4506Z" fill="#7E57C2" fill-opacity="0.8"/>
<path fill-rule="evenodd" clip-rule="evenodd" d="M49.0691 19.7293L49.0218 19.7848C48.9651 19.7647 48.8765 19.734 48.9249 19.6584C48.9651 19.5993 49.0289 19.6749 49.0691 19.7293Z" fill="#7E57C2" fill-opacity="0.8"/>
<path fill-rule="evenodd" clip-rule="evenodd" d="M45.1336 22.9911C45.1147 23.0135 45.1029 23.0324 45.0816 23.0561C45.0485 22.9982 45.0249 22.9355 45.0532 22.8599C45.1112 22.8788 45.123 22.9355 45.1336 22.9911Z" fill="#7E57C2" fill-opacity="0.8"/>
<path fill-rule="evenodd" clip-rule="evenodd" d="M49.5123 17.1612C49.5525 17.1848 49.5927 17.2014 49.6329 17.2191C49.582 17.2309 49.53 17.2356 49.4816 17.2439C49.4401 17.2236 49.3991 17.2023 49.3587 17.1801C49.4083 17.1765 49.4603 17.1671 49.5123 17.1612Z" fill="#7E57C2" fill-opacity="0.8"/>
<path fill-rule="evenodd" clip-rule="evenodd" d="M46.41 22.0858C46.4242 22.0716 46.4396 22.0527 46.4597 22.0362C46.5152 22.0504 46.5483 22.0929 46.566 22.1544L46.5152 22.2276C46.4644 22.1945 46.4207 22.1567 46.41 22.0858Z" fill="#7E57C2" fill-opacity="0.8"/>
<path fill-rule="evenodd" clip-rule="evenodd" d="M44.525 21.9723L44.4044 22.0338C44.3524 22.0267 44.3004 22.0196 44.2484 22.0102C44.291 21.9913 44.3312 21.97 44.3725 21.9475C44.4234 21.957 44.4753 21.9629 44.525 21.9723Z" fill="#7E57C2" fill-opacity="0.8"/>
<path fill-rule="evenodd" clip-rule="evenodd" d="M38.3973 26.6122C37.9234 26.8096 37.4495 26.8438 36.9744 26.624C36.9886 26.598 37.0051 26.5779 37.0347 26.5685C37.4625 26.6642 37.8939 26.6287 38.3193 26.5484C38.3772 26.52 38.3997 26.5484 38.3973 26.6122Z" fill="#7E57C2" fill-opacity="0.8"/>
<path fill-rule="evenodd" clip-rule="evenodd" d="M37.0382 26.5673C37.0169 26.5885 36.9992 26.6039 36.9779 26.6228C36.8314 26.52 36.6151 26.4278 36.9247 26.2387C36.9451 26.2654 36.9668 26.291 36.9897 26.3155C36.9944 26.403 36.9495 26.5046 37.0382 26.5673Z" fill="#7E57C2" fill-opacity="0.8"/>
<path fill-rule="evenodd" clip-rule="evenodd" d="M38.3973 25.7979C38.3973 25.9681 38.3973 26.1418 38.3997 26.3096C38.259 26.1418 38.1858 25.9728 38.3973 25.7979Z" fill="#7E57C2" fill-opacity="0.8"/>
<path fill-rule="evenodd" clip-rule="evenodd" d="M38.3973 26.6122C38.3709 26.5914 38.3449 26.5701 38.3193 26.5484C38.3819 26.4834 38.5202 26.4444 38.3938 26.3014C38.4659 26.2872 38.5521 26.2553 38.5663 26.3746C38.5888 26.5176 38.4942 26.572 38.3973 26.6122Z" fill="#7E57C2" fill-opacity="0.8"/>
<path fill-rule="evenodd" clip-rule="evenodd" d="M38.9693 28.0363C38.9503 28.0126 38.9362 27.9914 38.9196 27.9677C38.8014 27.8945 38.6868 28.0741 38.5686 27.9701C38.544 27.9455 38.52 27.9202 38.4965 27.8944C38.5745 27.8354 38.6454 27.7609 38.7282 27.729C38.831 27.69 38.9303 27.5044 39.0425 27.6498C39.1383 27.7763 39.065 27.9216 38.9693 28.0363Z" fill="#7E57C2" fill-opacity="0.8"/>
<path fill-rule="evenodd" clip-rule="evenodd" d="M38.5687 27.9701C38.6478 27.9134 38.7223 27.8472 38.8086 27.8082C39.0024 27.7125 38.9575 27.8472 38.9197 27.9677C38.8086 28.0942 38.7022 28.2265 38.5899 28.3506C38.545 28.3991 38.48 28.4641 38.4221 28.4038C38.3666 28.353 38.3973 28.2679 38.4316 28.2017C38.4717 28.1225 38.5226 28.0434 38.5687 27.9701Z" fill="#D1C4E9" fill-opacity="0.8"/>
<path fill-rule="evenodd" clip-rule="evenodd" d="M14.1818 9.45454H23.6364V43.7273H14.1818V9.45454Z" fill="#B39DDB" fill-opacity="0.8"/>
<path fill-rule="evenodd" clip-rule="evenodd" d="M4.72728 9.45454H14.1818V43.7273H4.72728V9.45454Z" fill="#9575CD" fill-opacity="0.8"/>
</svg>
