<svg width="71" height="49" viewBox="0 0 71 49" fill="none" xmlns="http://www.w3.org/2000/svg">
<path d="M0 16.5L70.5 16.5V33.0469H0V16.5Z" fill="#B39DDB" fill-opacity="0.8"/>
<path d="M59.4844 0H11.0156C3.71557 0 0 5.4252 0 12.1172V16.5234H70.5V12.1172C70.5 5.4252 66.7844 0 59.4844 0Z" fill="#D1C4E9" fill-opacity="0.8"/>
<path d="M0 36.3516C0 43.0436 3.71557 48.4688 11.0156 48.4688H59.4844C66.7844 48.4688 70.5 43.0436 70.5 36.3516V33.0469H0V36.3516Z" fill="#9575CD" fill-opacity="0.8"/>
<path fill-rule="evenodd" clip-rule="evenodd" d="M29.7158 18.3983C29.6629 16.5102 29.6012 14.6233 29.4437 12.7429C29.4283 12.5424 29.3545 12.5116 29.1771 12.5116C27.4554 12.5182 25.7336 12.516 24.0119 12.516C19.8579 12.516 15.7061 12.516 11.551 12.5138C11.377 12.5138 11.2613 12.516 11.2503 12.7484C11.204 13.7332 11.1346 14.7158 11.0806 15.6984C10.9982 17.3543 10.9538 19.0118 10.9473 20.6697C10.9308 22.2989 10.8372 23.9282 11.1368 25.5475C11.4188 27.0797 11.9465 28.5206 12.8002 29.8336C13.1439 30.4549 13.5878 31.0057 14.056 31.5378C15.7755 33.4985 17.9103 34.892 20.2269 36.0387C20.2662 36.06 20.3103 36.071 20.355 36.0706C20.3997 36.0702 20.4435 36.0585 20.4825 36.0365C22.571 35.0033 24.5164 33.764 26.1489 32.0797C26.8098 31.4001 27.4223 30.6796 27.896 29.8546C29.1452 27.9037 29.7389 25.7579 29.7653 23.4567C29.7786 21.7691 29.7653 20.0837 29.7158 18.3994" fill="#D1C4E9" fill-opacity="0.8"/>
<path fill-rule="evenodd" clip-rule="evenodd" d="M13.6032 28.9601C12.8409 27.7891 12.3716 26.5047 12.115 25.1333C11.8495 23.6913 11.9343 22.2362 11.9475 20.7843C11.955 19.3075 11.995 17.831 12.0676 16.356C12.115 15.4759 12.1777 14.6001 12.2174 13.7211C12.2295 13.5151 12.3331 13.514 12.4873 13.514C16.1918 13.5162 19.8986 13.5162 23.6021 13.5162C25.1409 13.5162 26.6765 13.5184 28.2132 13.5118C28.374 13.5118 28.4379 13.5404 28.4522 13.7178C28.5921 15.3977 28.6483 17.0808 28.6957 18.7651C28.7397 20.2666 28.7541 21.7724 28.7375 23.2749C28.7144 25.3293 28.1824 27.245 27.0687 28.9854C26.9277 28.927 26.8803 28.7882 26.8032 28.6748C26.5671 28.3185 26.2747 28.003 25.9374 27.7407C25.2478 27.2196 24.1639 27.365 23.5514 27.9301C23.4121 28.0575 23.2839 28.1964 23.168 28.3454C23.0336 28.5239 22.9753 28.5173 22.8772 28.3223C22.6518 27.8476 22.3628 27.4058 22.018 27.0092C21.8068 26.7682 21.5584 26.5625 21.2822 26.4001C21.1819 26.3417 21.0729 26.2998 21.0365 26.1731C20.9914 25.6907 21.0222 25.2038 21.0156 24.7202C21.009 24.1863 21.009 23.6524 21.0156 23.1185C21.0178 22.8156 21.0762 22.7462 21.3813 22.7616C22.636 22.8156 23.894 22.82 25.1178 23.1703C25.3712 23.2408 25.38 23.2232 25.3679 22.9621C25.3422 22.3793 25.3429 21.7956 25.3701 21.2128C25.3811 20.976 25.3657 20.9484 25.1266 21.0145C24.2209 21.2558 23.288 21.3802 22.3507 21.3846C22.0555 21.3868 21.7635 21.443 21.4661 21.4221C21.0916 21.399 21.0156 21.3263 21.0134 20.9627C21.0112 20.4208 21.009 19.8766 21.0156 19.3357C21.0178 19.0097 21.096 18.9513 21.4166 18.9656C22.3694 19.0119 23.3167 19.1055 24.2377 19.3776C24.4029 19.4272 24.4679 19.3666 24.4657 19.2024C24.4613 19.0703 24.4833 18.9381 24.4547 18.8092C24.3765 18.4005 24.4514 17.9907 24.4613 17.5809C24.4767 17.1557 24.4701 17.1568 24.0691 17.2582C23.2925 17.451 22.5093 17.5942 21.7074 17.5809C21.5983 17.5787 21.4959 17.603 21.389 17.6129C21.0982 17.6426 21.0068 17.571 21.0178 17.2736C21.0343 16.887 21.085 16.5025 21.1357 16.1225C21.2029 15.64 21.2833 15.163 21.3813 14.6893C21.4397 14.404 21.4022 14.3501 21.1257 14.382C20.5942 14.4415 20.0578 14.4415 19.5263 14.382C19.2652 14.3534 19.2377 14.3919 19.2872 14.6475C19.4536 15.5122 19.6056 16.3769 19.653 17.2571C19.6684 17.5193 19.6012 17.6239 19.3765 17.614C18.6153 17.5754 17.8497 17.5534 17.1028 17.3728C16.8792 17.3166 16.6501 17.2802 16.432 17.2064C16.2866 17.1557 16.2249 17.1833 16.2282 17.354C16.2414 17.9797 16.2392 18.6043 16.2282 19.2278C16.2238 19.393 16.28 19.4316 16.432 19.3831C17.3573 19.0846 18.3168 19.0262 19.2762 18.9656C19.5791 18.9469 19.6783 19.0383 19.6827 19.3468C19.6893 19.9063 19.6893 20.4637 19.6827 21.0222C19.6783 21.3086 19.6111 21.3769 19.3192 21.4144C19.2222 21.4243 19.122 21.4287 19.024 21.4243C17.8585 21.3769 16.6942 21.3362 15.5573 21.02C15.3249 20.955 15.2897 20.9793 15.3029 21.2183C15.3238 21.801 15.3238 22.3816 15.3029 22.9654C15.2897 23.2088 15.3381 23.2298 15.5838 23.1648C16.4818 22.9278 17.4067 22.8082 18.3355 22.809C18.677 22.809 19.0085 22.7429 19.3445 22.7616C19.5847 22.7748 19.6772 22.8431 19.6772 23.0667C19.6838 24.1 19.708 25.1344 19.6651 26.1676C19.6419 26.2679 19.5648 26.313 19.4822 26.3538C18.9469 26.627 18.5635 27.061 18.2374 27.5534C18.0821 27.7845 17.9433 28.0264 17.8222 28.2771C17.712 28.5107 17.6371 28.5206 17.4829 28.3069C17.1678 27.8784 16.7691 27.5953 16.2458 27.4763C15.4582 27.2956 14.827 27.56 14.2983 28.1306C14.1003 28.35 13.9219 28.5863 13.7651 28.8367C13.7243 28.8973 13.688 28.9612 13.601 28.9656" fill="#7E57C2" fill-opacity="0.8"/>
<path fill-rule="evenodd" clip-rule="evenodd" d="M13.6032 28.9601C13.818 28.6528 14.0229 28.3366 14.2729 28.0546C15.3591 26.8495 16.9255 27.3386 17.5413 28.2804C17.5754 28.3322 17.6129 28.3873 17.6647 28.4567C18.1174 27.5226 18.6395 26.6689 19.6122 26.2084C19.957 25.9231 20.7689 25.9264 21.0806 26.2117C22.0401 26.6733 22.5622 27.5193 23.0017 28.4369C23.0954 28.3961 23.1174 28.3124 23.1626 28.2496C23.8059 27.3243 25.2919 26.931 26.2921 27.9445C26.5994 28.2584 26.8561 28.6032 27.0709 28.9821C26.6457 29.7191 26.1037 30.3624 25.5133 30.9705C24.0559 32.4741 22.3221 33.5812 20.456 34.5021C20.3745 34.5406 20.3117 34.5428 20.2313 34.5021C18.1626 33.482 16.2558 32.235 14.7235 30.4858C14.3049 30.0121 13.9105 29.5208 13.6065 28.9634" fill="#B39DDB" fill-opacity="0.8"/>
<path fill-rule="evenodd" clip-rule="evenodd" d="M21.0839 26.2128C20.6119 26.0294 20.0884 26.0282 19.6155 26.2095C19.6133 25.1828 19.6023 24.1551 19.6133 23.1284C19.6155 22.9125 19.5737 22.8332 19.3346 22.8376C17.9786 22.8596 16.6281 22.907 15.3161 23.3113C15.293 23.3201 15.2655 23.3113 15.2203 23.3113C15.2412 22.6382 15.2743 21.9663 15.2368 21.2921C15.2126 20.846 15.2225 20.8394 15.6532 20.9528C16.876 21.2833 18.1306 21.334 19.3897 21.323C19.5483 21.3207 19.6188 21.2855 19.6144 21.1048C19.6034 20.488 19.6034 19.8711 19.6144 19.2553C19.6166 19.0769 19.5561 19.0361 19.3897 19.0383C18.352 19.0625 17.3254 19.1672 16.3329 19.4844C16.15 19.5428 16.1313 19.5054 16.1412 19.328C16.1853 18.6329 16.1875 17.9334 16.139 17.2373C16.1247 17.0412 16.1765 17.0368 16.3417 17.0874C17.3342 17.4003 18.3598 17.5171 19.3985 17.5314C19.5572 17.5314 19.61 17.4961 19.5979 17.3221C19.5285 16.3791 19.3908 15.4494 19.1892 14.5241C19.1452 14.328 19.1782 14.2663 19.3864 14.2917C20.0404 14.3605 20.6998 14.3605 21.3538 14.2917C21.508 14.2763 21.5488 14.3005 21.5124 14.4723C21.3097 15.3947 21.1706 16.3299 21.096 17.2714C21.0795 17.4741 21.1291 17.5358 21.3417 17.5314C22.375 17.5082 23.3895 17.3937 24.3765 17.0808C24.5263 17.0324 24.5594 17.0643 24.5516 17.213C24.5098 17.929 24.5098 18.6429 24.5516 19.3567C24.5594 19.5087 24.5285 19.534 24.3765 19.4877C23.3895 19.1727 22.3728 19.0681 21.3417 19.0372C21.1357 19.0306 21.0828 19.0912 21.0872 19.295C21.1015 19.9008 21.0971 20.5111 21.0872 21.117C21.085 21.2613 21.1181 21.3174 21.2767 21.3196C22.6184 21.3395 23.9535 21.2789 25.2489 20.8911C25.4296 20.8394 25.4924 20.835 25.4736 21.0542C25.4153 21.7429 25.4153 22.4353 25.4736 23.124C25.4847 23.2837 25.4736 23.3388 25.282 23.2837C23.9678 22.8938 22.6173 22.8475 21.2569 22.8387C21.0762 22.8387 21.0894 22.9378 21.0894 23.0579L21.0839 26.2128" fill="#D1C4E9" fill-opacity="0.8"/>
</svg>
