<svg width="100" height="100" viewBox="0 0 100 100" fill="none" xmlns="http://www.w3.org/2000/svg">
<path d="M100 75V63.8889H0V75C0 77.9469 1.17063 80.773 3.25437 82.8568C5.33811 84.9405 8.16426 86.1111 11.1111 86.1111H88.8889C91.8357 86.1111 94.6619 84.9405 96.7456 82.8568C98.8294 80.773 100 77.9469 100 75Z" fill="#7E57C2" fill-opacity="0.8"/>
<path d="M100 63.8889H0V25C0 22.0532 1.17063 19.227 3.25437 17.1433C5.33811 15.0595 8.16426 13.8889 11.1111 13.8889H88.8889C91.8357 13.8889 94.6619 15.0595 96.7456 17.1433C98.8294 19.227 100 22.0532 100 25V63.8889Z" fill="#B39DDB" fill-opacity="0.8"/>
<path d="M0 36.1111H100V63.8889H0V36.1111Z" fill="#673AB7" fill-opacity="0.8"/>
<path d="M32.8805 69.6944C29.7444 67.9 22.7749 63.3667 20.2277 57.2278C17.6583 51.0417 18.2305 42.1639 18.8916 31.8833L19.0583 29.2833H52.2888L52.4583 31.8833C53.1194 42.1611 53.6916 51.0361 51.1221 57.225C48.5721 63.3667 41.6055 67.9028 38.4666 69.6944L35.6777 71.2833L32.8805 69.6944V69.6944Z" fill="#D1C4E9" fill-opacity="0.8"/>
<path d="M49.6832 32.0611H21.661C20.9999 42.3583 20.4888 50.6167 22.7916 56.1611C25.6277 62.9944 35.336 67.8833 35.6555 68.0389V68.0555L35.6694 68.0472L35.6832 68.0555V68.0389C36.0027 67.8805 45.711 62.9944 48.5499 56.1611C50.8555 50.6167 50.3471 42.3555 49.6832 32.0611V32.0611Z" fill="#7E57C2" fill-opacity="0.8"/>
<path d="M44.0693 44.7472C44.0693 44.7472 40.1777 45.1167 36.7582 45.2055C36.7023 44.0154 36.7051 42.8232 36.7666 41.6333C39.4693 41.8 41.336 42.3167 41.336 42.3167C42.0221 42.3167 42.5777 41.7611 42.5777 41.075V39.3917C42.5777 38.7055 42.0221 38.15 41.336 38.15C41.336 38.15 39.2832 38.5 36.9805 38.6472C37.1777 36.475 37.4138 34.6611 37.4138 34.6611C37.4138 33.975 36.8582 33.4194 36.1721 33.4194H34.4916C33.8055 33.4194 33.2499 33.975 33.2499 34.6611C33.2499 34.6611 33.5055 36.5111 33.7221 38.6694C32.2474 38.584 30.779 38.4105 29.3249 38.15C28.6388 38.15 28.0832 38.7055 28.0832 39.3917V41.075C28.0832 41.7611 28.6388 42.3167 29.3249 42.3167C29.3249 42.3167 31.0999 41.7444 33.9638 41.6083C34.0027 42.2472 34.0305 42.8667 34.0305 43.4028C34.0305 43.85 34.0138 44.4805 33.986 45.2055C30.536 45.1139 26.5055 44.75 26.5055 44.75C25.8193 44.75 25.2638 45.3055 25.2638 45.9917V47.675C25.2638 48.3611 25.8193 48.9167 26.5055 48.9167C26.5055 48.9167 30.1693 48.6167 33.8249 48.5611C33.5943 52.8139 33.2499 57.7889 33.2499 57.7889C33.2499 58.475 33.8055 59.0305 34.4916 59.0305H36.1721C36.8582 59.0305 37.4138 58.475 37.4138 57.7889C37.4138 57.7889 37.1055 52.8639 36.8999 48.575C40.4332 48.6583 44.0693 48.9167 44.0693 48.9167C44.7555 48.9167 45.311 48.3611 45.311 47.675V45.9917C45.311 45.3055 44.7555 44.7472 44.0693 44.7472V44.7472Z" fill="#D1C4E9" fill-opacity="0.8"/>
<path d="M47.4416 58.2362C46.0304 55.2196 42.1499 54.3668 40.3082 58.0529C39.0915 53.6251 35.6388 53.6251 35.6388 53.6251C35.6388 53.6251 32.1832 53.6251 30.9693 58.0529C29.1415 54.3973 25.3027 55.2085 23.8638 58.1668C27.5138 63.9279 35.3721 67.9001 35.661 68.0418V68.0557L35.6749 68.0473L35.6888 68.0557V68.039C35.9749 67.8973 43.7721 63.9585 47.4416 58.2362Z" fill="#673AB7" fill-opacity="0.8"/>
</svg>
