<svg width="100" height="100" viewBox="0 0 100 100" fill="none" xmlns="http://www.w3.org/2000/svg">
<path d="M100 75C100 77.9469 98.8294 80.773 96.7456 82.8568C94.6619 84.9405 91.8357 86.1111 88.8889 86.1111H11.1111C8.16426 86.1111 5.33811 84.9405 3.25437 82.8568C1.17063 80.773 0 77.9469 0 75V25C0 22.0532 1.17063 19.227 3.25437 17.1433C5.33811 15.0595 8.16426 13.8889 11.1111 13.8889H88.8889C91.8357 13.8889 94.6619 15.0595 96.7456 17.1433C98.8294 19.227 100 22.0532 100 25V75Z" fill="#673AB7" fill-opacity="0.8"/>
<path d="M0 33.3333H100V66.6666H0V33.3333Z" fill="#D1C4E9" fill-opacity="0.8"/>
<path d="M25 47.2222V55.5556C25 57.7657 25.878 59.8853 27.4408 61.4481C29.0036 63.0109 31.1232 63.8889 33.3333 63.8889C35.5435 63.8889 37.6631 63.0109 39.2259 61.4481C40.7887 59.8853 41.6667 57.7657 41.6667 55.5556V47.2222H25Z" fill="#7E57C2" fill-opacity="0.8"/>
<path d="M33.3334 44.4445H41.6667V52.7778H33.3334V44.4445Z" fill="#B39DDB" fill-opacity="0.8"/>
<path d="M25 44.4445H33.3333V52.7778H25V44.4445Z" fill="#673AB7" fill-opacity="0.8"/>
<path d="M33.3333 44.4444C37.9357 44.4444 41.6667 42.5789 41.6667 40.2778C41.6667 37.9766 37.9357 36.1111 33.3333 36.1111C28.731 36.1111 25 37.9766 25 40.2778C25 42.5789 28.731 44.4444 33.3333 44.4444Z" fill="#7E57C2" fill-opacity="0.8"/>
<path d="M33.3333 40.2778C37.9357 40.2778 41.6667 39.345 41.6667 38.1944C41.6667 37.0438 37.9357 36.1111 33.3333 36.1111C28.731 36.1111 25 37.0438 25 38.1944C25 39.345 28.731 40.2778 33.3333 40.2778Z" fill="#D1C4E9" fill-opacity="0.8"/>
<path d="M19.4445 44.4445H22.2222V63.8889H19.4445V44.4445ZM44.4445 44.4445H47.2222V63.8889H44.4445V44.4445Z" fill="#B39DDB" fill-opacity="0.8"/>
<path d="M16.6666 61.1111H25V63.8889H16.6666V61.1111ZM41.6666 61.1111H50V63.8889H41.6666V61.1111ZM19.4444 41.6667H22.2222V44.4445H19.4444V41.6667ZM44.4444 41.6667H47.2222V44.4445H44.4444V41.6667Z" fill="#9575CD" fill-opacity="0.8"/>
</svg>
