<svg width="100" height="100" viewBox="0 0 100 100" fill="none" xmlns="http://www.w3.org/2000/svg">
<g clip-path="url(#clip0)">
<path d="M0 75C0 77.9469 1.17063 80.773 3.25437 82.8568C5.33811 84.9405 8.16426 86.1111 11.1111 86.1111H88.8889C91.8357 86.1111 94.6619 84.9405 96.7456 82.8568C98.8294 80.773 100 77.9469 100 75V63.8889H0V75Z" fill="#9575CD" fill-opacity="0.8"/>
<path d="M0 36.1111H100V63.8889H0V36.1111Z" fill="#D1C4E9" fill-opacity="0.8"/>
<path d="M100 36.1111V25C100 22.0532 98.8294 19.227 96.7456 17.1433C94.6619 15.0595 91.8357 13.8889 88.8889 13.8889H11.1111C8.16426 13.8889 5.33811 15.0595 3.25437 17.1433C1.17063 19.227 0 22.0532 0 25L0 36.1111H100Z" fill="#B39DDB" fill-opacity="0.8"/>
<path d="M50 61.1111C56.1365 61.1111 61.1111 56.1365 61.1111 50C61.1111 43.8635 56.1365 38.8889 50 38.8889C43.8635 38.8889 38.8889 43.8635 38.8889 50C38.8889 56.1365 43.8635 61.1111 50 61.1111Z" fill="#673AB7" fill-opacity="0.8"/>
<path d="M50 58.3334C54.6023 58.3334 58.3333 54.6024 58.3333 50C58.3333 45.3976 54.6023 41.6667 50 41.6667C45.3976 41.6667 41.6666 45.3976 41.6666 50C41.6666 54.6024 45.3976 58.3334 50 58.3334Z" fill="#D1C4E9" fill-opacity="0.8"/>
<path d="M50 41.6667L50.4055 47.9556L53.1861 42.3028L51.1583 48.2667L55.8916 44.1056L51.7333 48.8417L57.6972 46.8111L52.0444 49.5945L58.3333 50L52.0444 50.4056L57.6972 53.1861L51.7333 51.1584L55.8916 55.8917L51.1583 51.7334L53.1861 57.6972L50.4055 52.0445L50 58.3334L49.5944 52.0445L46.8111 57.6972L48.8416 51.7334L44.1055 55.8917L48.2666 51.1584L42.3027 53.1861L47.9555 50.4056L41.6666 50L47.9555 49.5945L42.3027 46.8111L48.2666 48.8417L44.1055 44.1056L48.8416 48.2667L46.8111 42.3028L49.5944 47.9556L50 41.6667Z" fill="#7E57C2" fill-opacity="0.8"/>
<path d="M49.9999 52.7778C51.5341 52.7778 52.7777 51.5341 52.7777 50C52.7777 48.4659 51.5341 47.2222 49.9999 47.2222C48.4658 47.2222 47.2222 48.4659 47.2222 50C47.2222 51.5341 48.4658 52.7778 49.9999 52.7778Z" fill="#673AB7" fill-opacity="0.8"/>
</g>
<defs>
<clipPath id="clip0">
<rect width="100" height="100" fill="white"/>
</clipPath>
</defs>
</svg>
