<svg width="100" height="100" viewBox="0 0 100 100" fill="none" xmlns="http://www.w3.org/2000/svg">
<path d="M0 73.661V74.9999C0 77.9467 1.17063 80.7729 3.25437 82.8566C5.33811 84.9404 8.16426 86.111 11.1111 86.111H88.8889C91.8357 86.111 94.6619 84.9404 96.7456 82.8566C98.8294 80.7729 100 77.9467 100 74.9999V73.661H0Z" fill="#9575CD" fill-opacity="0.8"/>
<path d="M0 61.614H100V74.0723H0V61.614Z" fill="#D1C4E9" fill-opacity="0.8"/>
<path d="M0 37.536H100V62.0388H0V37.536Z" fill="#673AB7" fill-opacity="0.8"/>
<path d="M0 25.5028H100V37.9611H0V25.5028Z" fill="#D1C4E9" fill-opacity="0.8"/>
<path d="M0 25.925V25C0 22.0532 1.17063 19.227 3.25437 17.1433C5.33811 15.0595 8.16426 13.8889 11.1111 13.8889H88.8889C91.8357 13.8889 94.6619 15.0595 96.7456 17.1433C98.8294 19.227 100 22.0532 100 25V25.925H0Z" fill="#9575CD" fill-opacity="0.8"/>
</svg>
