<svg width="70" height="48" viewBox="0 0 70 48" fill="none" xmlns="http://www.w3.org/2000/svg">
<path d="M69.8182 36C69.8182 42.6273 66.1385 48 58.9091 48H10.9091C3.67964 48 0 42.6273 0 36V12C0 5.37273 3.67964 0 10.9091 0H58.9091C66.1385 0 69.8182 5.37273 69.8182 12V36Z" fill="#9575CD" fill-opacity="0.8"/>
<path fill-rule="evenodd" clip-rule="evenodd" d="M43.3942 30.8946C40.8829 34.812 35.6542 37.2829 30.1832 35.6847C25.02 34.1727 21.4734 29.1698 21.7669 23.7742C22.0527 18.3546 26.124 13.7455 31.4149 12.8106C37.0211 11.8146 41.5243 14.82 43.4476 17.9662C41.1687 15.7255 38.5189 14.7164 35.4163 15.0709C32.9858 15.3502 30.9545 16.4487 29.364 18.3033C26.2505 21.9273 26.3651 27.3622 29.616 30.7822C31.4803 32.7437 33.7734 33.7702 36.48 33.7953C39.1843 33.8149 41.4785 32.7917 43.4007 30.9" fill="#D1C4E9" fill-opacity="0.8"/>
<path d="M48.2509 20.0684L50.4655 22.1236L53.4196 21.4691L52.1465 24.2182L53.6836 26.8156L50.6836 26.4545L48.6775 28.7236L48.0982 25.7542L45.3185 24.5498L47.9607 23.0836L48.2509 20.0684Z" fill="#D1C4E9" fill-opacity="0.8"/>
</svg>
