<svg width="73" height="53" viewBox="0 0 73 53" fill="none" xmlns="http://www.w3.org/2000/svg">
<path d="M64.8889 0H8.11111C5.95991 0 3.89682 0.854561 2.37569 2.37569C0.854561 3.89682 0 5.95991 0 8.11111L0 26.3611H73V8.11111C73 5.95991 72.1454 3.89682 70.6243 2.37569C69.1032 0.854561 67.0401 0 64.8889 0Z" fill="#9575CD" fill-opacity="0.8"/>
<path d="M73 44.25C73 46.4012 72.1454 48.4643 70.6243 49.9854C69.1032 51.5065 67.0401 52.3611 64.8889 52.3611H8.11111C5.95991 52.3611 3.89682 51.5065 2.37569 49.9854C0.854561 48.4643 0 46.4012 0 44.25V26H73V44.25Z" fill="#B39DDB" fill-opacity="0.8"/>
</svg>
