<svg width="70" height="50" viewBox="0 0 70 50" fill="none" xmlns="http://www.w3.org/2000/svg">
<path d="M61.5385 0H7.69231C5.65218 0 3.69561 0.810437 2.25303 2.25302C0.810437 3.69561 0 5.65218 0 7.69231L0 25H69.2308V7.69231C69.2308 5.65218 68.4203 3.69561 66.9777 2.25302C65.5352 0.810437 63.5786 0 61.5385 0V0Z" fill="#D1C4E9" fill-opacity="0.8"/>
<path d="M0 42.3077C0 44.3478 0.810437 46.3044 2.25303 47.747C3.69561 49.1896 5.65218 50 7.69231 50H61.5385C63.5786 50 65.5352 49.1896 66.9777 47.747C68.4203 46.3044 69.2308 44.3478 69.2308 42.3077V25H0V42.3077Z" fill="#9575CD" fill-opacity="0.8"/>
</svg>
