<svg width="21" height="26" viewBox="0 0 21 26" fill="none" xmlns="http://www.w3.org/2000/svg">
<path fill-rule="evenodd" clip-rule="evenodd" d="M2.625 0H15.75L21 5.2V23.4C21 24.0896 20.7234 24.7509 20.2312 25.2385C19.7389 25.7261 19.0712 26 18.375 26H2.625C1.92881 26 1.26113 25.7261 0.768845 25.2385C0.276562 24.7509 0 24.0896 0 23.4V2.6C0 1.91044 0.276562 1.24912 0.768845 0.761522C1.26113 0.273928 1.92881 0 2.625 0V0ZM14.4375 2.6H2.625V23.4H18.375V6.5H14.4375V2.6ZM3.9375 13H6.5625L7.875 16.9L9.1875 13H11.8125L13.125 16.9L14.4375 13H17.0625L14.4375 20.8H11.8125L10.5 16.9L9.1875 20.8H6.5625L3.9375 13Z" fill="white" fill-opacity="0.8"/>
</svg>
