<svg width="31" height="18" viewBox="0 0 31 18" fill="none" xmlns="http://www.w3.org/2000/svg">
<path d="M31 18H0C0.307483 15.2099 1.28715 12.5347 2.85587 10.2014C4.06153 8.34918 5.67897 6.79721 7.58338 5.6653L8.11328 5.37432L5.50444 0.993298C5.413 0.844759 5.38449 0.666225 5.42516 0.496819C5.46584 0.327413 5.57238 0.180953 5.72144 0.0895363C5.79533 0.0463038 5.87707 0.0179894 5.96197 0.00621381C6.04688 -0.00556175 6.13329 -0.000567186 6.21625 0.0209115C6.29922 0.0423902 6.37711 0.0799313 6.44546 0.131386C6.51382 0.182841 6.57131 0.247199 6.61463 0.320776L9.29903 4.81742C11.2869 4.02982 13.4108 3.63766 15.5504 3.66315C17.6545 3.6381 19.7383 4.02928 21.6855 4.81742L24.3592 0.320776C24.4033 0.246679 24.462 0.182143 24.5316 0.130993C24.6013 0.079842 24.6806 0.0431163 24.7648 0.0229909C24.849 0.00286548 24.9364 -0.000250169 25.0218 0.0138284C25.1072 0.027907 25.1889 0.0588936 25.2621 0.104953C25.335 0.150361 25.3982 0.209612 25.4481 0.279322C25.498 0.349031 25.5336 0.427833 25.5528 0.511224C25.5721 0.594615 25.5746 0.680962 25.5603 0.765331C25.546 0.8497 25.5151 0.930438 25.4694 1.00293L22.8606 5.39841L23.5067 5.7549C25.4042 6.9314 27.0073 8.52221 28.1945 10.4067C29.6778 12.7024 30.6356 15.2943 31 17.999V18ZM21.3125 12.2441C21.3124 12.4126 21.3456 12.5795 21.4104 12.7353C21.4751 12.891 21.57 13.0326 21.6898 13.1518C21.8095 13.2711 21.9517 13.3657 22.1082 13.4303C22.2647 13.495 22.4325 13.5283 22.6019 13.5284C22.7714 13.5285 22.9392 13.4955 23.0958 13.4311C23.2524 13.3667 23.3947 13.2723 23.5146 13.1532C23.6345 13.0341 23.7297 12.8927 23.7947 12.737C23.8596 12.5814 23.8931 12.4145 23.8932 12.246C23.8933 12.0775 23.86 11.9106 23.7952 11.7548C23.7304 11.5991 23.6354 11.4576 23.5157 11.3384C23.3959 11.2191 23.2537 11.1246 23.0971 11.06C22.9406 10.9954 22.7728 10.9622 22.6034 10.9621C22.4339 10.9621 22.2661 10.9952 22.1095 11.0596C21.9529 11.1241 21.8107 11.2186 21.6908 11.3377C21.5709 11.4568 21.4758 11.5983 21.4109 11.7539C21.346 11.9096 21.3126 12.0765 21.3125 12.245V12.2441ZM7.10384 12.2441C7.10359 12.5844 7.23929 12.911 7.4811 13.1518C7.72291 13.3927 8.05102 13.5281 8.39325 13.5284C8.73548 13.5287 9.06379 13.3937 9.30597 13.1532C9.54814 12.9127 9.68434 12.5864 9.68459 12.246C9.68485 11.9056 9.54915 11.5791 9.30734 11.3382C9.06553 11.0974 8.73742 10.9619 8.39519 10.9616C8.22573 10.9615 8.05791 10.9946 7.90131 11.059C7.7447 11.1233 7.60238 11.2178 7.48247 11.3369C7.2403 11.5774 7.1041 11.9037 7.10384 12.2441V12.2441Z" fill="#9575CD" fill-opacity="0.8"/>
</svg>
