<svg width="21" height="26" viewBox="0 0 21 26" fill="none" xmlns="http://www.w3.org/2000/svg">
<path fill-rule="evenodd" clip-rule="evenodd" d="M2.625 0H15.75L21 5.2V23.4C21 24.0896 20.7234 24.7509 20.2312 25.2385C19.7389 25.7261 19.0712 26 18.375 26H2.625C1.92881 26 1.26113 25.7261 0.768845 25.2385C0.276562 24.7509 0 24.0896 0 23.4V2.6C0 1.91044 0.276562 1.24912 0.768845 0.761522C1.26113 0.273928 1.92881 0 2.625 0V0ZM14.6632 2.6H2.625V23.4H18.375V6.2764H14.6632V2.6ZM5.25 2.6H7.875V5.2H5.25V2.6ZM7.875 5.2H10.5V7.8H7.875V5.2ZM5.25 7.8H7.875V10.4H5.25V7.8ZM7.875 10.4H10.5V13H7.875V10.4ZM6.5625 15.6L7.875 14.3L9.1875 15.6V20.8H6.5625V15.6Z" fill="white" fill-opacity="0.8"/>
</svg>
