<svg width="23" height="17" viewBox="0 0 23 17" fill="none" xmlns="http://www.w3.org/2000/svg">
<path d="M21.8778 6.52713C21.3318 7.07313 20.4646 7.12666 19.8758 6.63419C14.8761 2.52312 7.61749 2.52312 2.60713 6.62348C2.0076 7.11596 1.12971 7.07313 0.583709 6.52713C-0.04794 5.89548 -0.00511593 4.8463 0.690768 4.27889C6.80384 -0.720771 15.6469 -0.720771 21.7707 4.27889C22.4666 4.8356 22.5201 5.88478 21.8778 6.52713V6.52713ZM13.57 14.8349L11.9962 16.4087C11.5787 16.8262 10.9042 16.8262 10.4867 16.4087L8.91291 14.8349C8.40973 14.3317 8.51679 13.4646 9.15914 13.1327C9.80672 12.8002 10.5242 12.6267 11.2521 12.6267C11.9801 12.6267 12.6976 12.8002 13.3452 13.1327C13.9554 13.4646 14.0732 14.3317 13.57 14.8349ZM17.5633 10.8416C17.0387 11.3662 16.2143 11.4197 15.6041 10.9808C14.3268 10.0771 12.8007 9.59181 11.2361 9.59181C9.67146 9.59181 8.14534 10.0771 6.86808 10.9808C6.25784 11.409 5.43349 11.3662 4.9089 10.8416L4.89819 10.8309C4.25584 10.1886 4.29866 9.09655 5.03737 8.57196C8.7202 5.90619 13.7413 5.90619 17.4348 8.57196C18.1735 9.10726 18.2163 10.1886 17.5633 10.8416V10.8416Z" fill="white" fill-opacity="0.8"/>
</svg>
