<svg width="14" height="14" viewBox="0 0 14 14" fill="none" xmlns="http://www.w3.org/2000/svg">
<path d="M8 6.641L9.121 5.521C9.30947 5.3387 9.562 5.23773 9.82421 5.23982C10.0864 5.24191 10.3373 5.3469 10.5228 5.53218C10.7084 5.71746 10.8137 5.9682 10.8162 6.2304C10.8186 6.49259 10.718 6.74527 10.536 6.934L7.707 9.763C7.61435 9.85618 7.50419 9.93013 7.38285 9.9806C7.26152 10.0311 7.13141 10.057 7 10.057C6.86859 10.057 6.73848 10.0311 6.61715 9.9806C6.49581 9.93013 6.38565 9.85618 6.293 9.763L3.464 6.934C3.37116 6.84102 3.29753 6.73067 3.24734 6.60924C3.19714 6.48781 3.17135 6.35769 3.17144 6.22629C3.17163 5.96093 3.27723 5.70651 3.465 5.519C3.65277 5.33149 3.90734 5.22626 4.17271 5.22644C4.43807 5.22663 4.69249 5.33223 4.88 5.52L6 6.641V1C6 0.734784 6.10536 0.48043 6.29289 0.292893C6.48043 0.105357 6.73478 0 7 0C7.26522 0 7.51957 0.105357 7.70711 0.292893C7.89464 0.48043 8 0.734784 8 1V6.641ZM1 12H13C13.2652 12 13.5196 12.1054 13.7071 12.2929C13.8946 12.4804 14 12.7348 14 13C14 13.2652 13.8946 13.5196 13.7071 13.7071C13.5196 13.8946 13.2652 14 13 14H1C0.734784 14 0.48043 13.8946 0.292893 13.7071C0.105357 13.5196 0 13.2652 0 13C0 12.7348 0.105357 12.4804 0.292893 12.2929C0.48043 12.1054 0.734784 12 1 12Z" fill="#512DA8"/>
</svg>
