<svg width="18" height="17" viewBox="0 0 18 17" fill="none" xmlns="http://www.w3.org/2000/svg">
<path d="M15.3505 3.94042L15.7081 2.77055C15.7741 2.55503 15.9233 2.37452 16.1227 2.26873C16.3221 2.16294 16.5555 2.14053 16.7715 2.20644C16.9875 2.27234 17.1684 2.42116 17.2744 2.62016C17.3804 2.81916 17.4029 3.05204 17.3368 3.26755L16.3407 6.51718C16.2747 6.73253 16.1256 6.91292 15.9264 7.0187C15.7272 7.12448 15.494 7.147 15.2781 7.0813L12.0214 6.08729C11.9122 6.05663 11.8102 6.0045 11.7215 5.93398C11.6328 5.86346 11.5591 5.77596 11.5048 5.67662C11.4504 5.57728 11.4165 5.46811 11.405 5.35551C11.3935 5.24291 11.4047 5.12916 11.4379 5.02094C11.4711 4.91271 11.5256 4.81219 11.5983 4.72528C11.6709 4.63837 11.7602 4.56682 11.861 4.51484C11.9618 4.46286 12.0719 4.43148 12.185 4.42257C12.2981 4.41365 12.4118 4.42736 12.5195 4.46291L13.943 4.89704C13.3137 3.94458 12.4359 3.18147 11.4041 2.68991C10.3724 2.19836 9.22578 1.99697 8.08782 2.10744C6.94986 2.21791 5.86366 2.63606 4.94621 3.31684C4.02876 3.99763 3.31482 4.91526 2.88128 5.9709L2.65991 6.50868C2.61965 6.61484 2.55848 6.71187 2.48001 6.79405C2.40154 6.87622 2.30736 6.94188 2.20304 6.98713C2.09872 7.03238 1.98637 7.05632 1.87262 7.05752C1.75888 7.05872 1.64604 7.03717 1.54078 6.99414C1.43552 6.9511 1.33997 6.88746 1.25977 6.80696C1.17957 6.72647 1.11635 6.63075 1.07384 6.52547C1.03134 6.42019 1.0104 6.30747 1.01228 6.19399C1.01415 6.0805 1.0388 5.96853 1.08476 5.86471L1.30614 5.32692C1.85636 3.98738 2.76184 2.82268 3.92537 1.95787C5.0889 1.09306 6.46652 0.560812 7.91032 0.418275C9.35412 0.275738 10.8096 0.528295 12.1204 1.14883C13.4312 1.76936 14.5478 2.73443 15.3505 3.94042ZM2.13458 12.957L1.85616 14.0708C1.83125 14.1812 1.78446 14.2856 1.71855 14.3778C1.65263 14.4699 1.56892 14.548 1.47233 14.6074C1.37574 14.6668 1.26823 14.7064 1.1561 14.7238C1.04397 14.7411 0.929496 14.736 0.8194 14.7085C0.709305 14.6811 0.60581 14.632 0.514998 14.5642C0.424187 14.4963 0.34789 14.411 0.290593 14.3132C0.233296 14.2155 0.196154 14.1073 0.18135 13.9951C0.166546 13.8828 0.174378 13.7687 0.204387 13.6596L1.02772 10.3632C1.0555 10.251 1.10594 10.1456 1.17595 10.0535C1.24597 9.96136 1.33409 9.88448 1.43492 9.82754C1.53575 9.77059 1.64716 9.73478 1.76234 9.72229C1.87752 9.7098 1.99404 9.7209 2.10478 9.75491L5.36405 10.5654C5.5832 10.6199 5.77167 10.7591 5.88799 10.9523C6.00431 11.1455 6.03896 11.3768 5.98431 11.5955C5.92967 11.8142 5.7902 12.0022 5.5966 12.1183C5.40299 12.2344 5.17111 12.269 4.95196 12.2144L3.4313 11.8364C4.08138 12.8294 5.00028 13.6182 6.08141 14.1112C7.16254 14.6042 8.36161 14.7814 9.53952 14.622C10.7174 14.4626 11.8259 13.9733 12.7365 13.2108C13.647 12.4483 14.3222 11.4438 14.6838 10.3139C14.7178 10.2076 14.7724 10.109 14.8446 10.0238C14.9168 9.9385 15.0051 9.86827 15.1045 9.81707C15.2039 9.76587 15.3124 9.7347 15.4238 9.72535C15.5353 9.716 15.6475 9.72864 15.754 9.76256C15.8606 9.79647 15.9594 9.851 16.0448 9.92302C16.1303 9.99505 16.2007 10.0832 16.252 10.1823C16.3033 10.2815 16.3345 10.3898 16.3439 10.501C16.3533 10.6122 16.3406 10.7241 16.3066 10.8305C15.9522 11.94 15.3583 12.9585 14.5669 13.8144C13.7755 14.6703 12.8058 15.3427 11.7259 15.7843C10.0433 16.4721 8.17601 16.5668 6.43221 16.0528C4.68842 15.5388 3.17244 14.4467 2.13458 12.957Z" fill="white" fill-opacity="0.8"/>
</svg>
