<svg width="15" height="15" viewBox="0 0 15 15" fill="none" xmlns="http://www.w3.org/2000/svg">
<path d="M7.48753 0.31601C3.48173 0.31439 0.237244 3.55726 0.237244 7.55982C0.237244 10.7249 2.26687 13.4154 5.09345 14.4035C5.4741 14.4991 5.41579 14.2286 5.41579 14.0439V12.7886C3.2177 13.0461 3.12861 11.5915 2.98121 11.3486C2.68316 10.8399 1.97854 10.7104 2.18912 10.4674C2.68964 10.2098 3.19988 10.5322 3.79112 11.4053C4.21875 12.0386 5.05295 11.9317 5.47572 11.8264C5.56805 11.4458 5.76567 11.1056 6.0378 10.8416C3.76034 10.4334 2.81113 9.04357 2.81113 7.39136C2.81113 6.58955 3.07516 5.85253 3.5935 5.25806C3.26306 4.27808 3.62428 3.43901 3.67287 3.31429C4.61398 3.23006 5.59235 3.98813 5.66848 4.04806C6.20302 3.9039 6.81369 3.82777 7.49725 3.82777C8.18405 3.82777 8.79634 3.90714 9.33574 4.05292C9.51878 3.91362 10.4259 3.26245 11.3006 3.34182C11.3475 3.46655 11.7007 4.28617 11.3897 5.2532C11.9145 5.8493 12.1818 6.59279 12.1818 7.39622C12.1818 9.05167 11.2261 10.4431 8.94213 10.8448C9.13775 11.0372 9.29308 11.2666 9.39904 11.5197C9.505 11.7728 9.55948 12.0445 9.55927 12.3188V14.1411C9.57223 14.2869 9.55927 14.4311 9.80225 14.4311C12.6709 13.464 14.7362 10.7541 14.7362 7.56144C14.7362 3.55726 11.4901 0.31601 7.48753 0.31601Z" fill="#512DA8"/>
</svg>
