<svg width="73" height="74" viewBox="0 0 73 74" fill="none" xmlns="http://www.w3.org/2000/svg">
<path d="M0 36.75C0 43.4579 5.77988 48.9167 12.8824 48.9167C16.2919 48.9167 19.3751 47.6392 21.681 45.5911L47.4071 59.4773C47.3298 60.0046 47.2353 60.5318 47.2353 61.0833C47.2353 67.7912 53.0152 73.25 60.1176 73.25C67.2201 73.25 73 67.7912 73 61.0833C73 54.3754 67.2201 48.9167 60.1176 48.9167C56.7081 48.9167 53.6249 50.1942 51.319 52.2422L25.5929 38.3601C25.6702 37.8288 25.7647 37.3016 25.7647 36.75C25.7647 36.1984 25.6702 35.6712 25.5929 35.1399L51.319 21.2578C53.6249 23.3058 56.7081 24.5833 60.1176 24.5833C67.2201 24.5833 73 19.1246 73 12.4167C73 5.70878 67.2201 0.25 60.1176 0.25C53.0152 0.25 47.2353 5.70878 47.2353 12.4167C47.2353 12.9682 47.3298 13.4954 47.4071 14.0267L21.681 27.9089C19.3064 25.7784 16.1576 24.5883 12.8824 24.5833C5.77988 24.5833 0 30.0421 0 36.75Z" fill="white" fill-opacity="0.8"/>
</svg>
