<svg width="18" height="14" viewBox="0 0 18 14" fill="none" xmlns="http://www.w3.org/2000/svg">
<path d="M0.271862 6.51214C2.11332 5.55961 4.16888 4.76454 6.08948 3.96546C9.39369 2.65662 12.711 1.37045 16.0618 0.173052C16.7137 -0.0309617 17.8851 -0.230451 18 0.676842C17.9371 1.96115 17.6783 3.23796 17.5009 4.51473C17.0505 7.32253 16.5298 10.1207 16.0221 12.9193C15.8472 13.8514 14.6038 14.334 13.8081 13.7374C11.8961 12.5246 9.9693 11.3234 8.08163 10.0823C7.46328 9.49232 8.03669 8.64492 8.58893 8.22355C10.1638 6.76604 11.8339 5.5277 13.3264 3.99486C13.729 3.08185 12.5395 3.85132 12.1471 4.0871C9.99113 5.48237 7.88791 6.96281 5.61485 8.18905C4.45376 8.78928 3.1005 8.27635 1.93994 7.94143C0.899373 7.53681 -0.625472 7.12917 0.271757 6.51227L0.271862 6.51214Z" fill="#512DA8"/>
</svg>
