<svg width="15" height="15" viewBox="0 0 15 15" fill="none" xmlns="http://www.w3.org/2000/svg">
<path d="M7.76308 0.299377C3.88127 0.299377 0.737854 3.44983 0.737854 7.33164C0.737854 11.2134 3.88127 14.3639 7.76308 14.3639C11.6519 14.3639 14.8024 11.2134 14.8024 7.33164C14.8024 3.44983 11.6519 0.299377 7.76308 0.299377ZM12.6364 4.51873H10.5619C10.3418 3.64776 10.0159 2.80701 9.59147 2.01525C10.8742 2.45688 11.9551 3.34556 12.6364 4.51873ZM7.77012 1.73396C8.35379 2.57783 8.81089 3.51312 9.11328 4.51873H6.42695C6.72934 3.51312 7.18644 2.57783 7.77012 1.73396ZM2.32715 8.73809C2.21463 8.28803 2.14431 7.81687 2.14431 7.33164C2.14431 6.84641 2.21463 6.37525 2.32715 5.92519H4.70405C4.64779 6.38932 4.6056 6.85345 4.6056 7.33164C4.6056 7.80983 4.64779 8.27396 4.70405 8.73809H2.32715ZM2.90379 10.1445H4.97831C5.20334 11.0236 5.52682 11.8674 5.94876 12.648C4.66465 12.2088 3.58299 11.3195 2.90379 10.1445ZM4.97831 4.51873H2.90379C3.58299 3.34377 4.66465 2.45446 5.94876 2.01525C5.52431 2.80701 5.1984 3.64776 4.97831 4.51873ZM7.77012 12.9293C7.18644 12.0854 6.72934 11.1502 6.42695 10.1445H9.11328C8.81089 11.1502 8.35379 12.0854 7.77012 12.9293ZM9.41567 8.73809H6.12457C6.06128 8.27396 6.01205 7.80983 6.01205 7.33164C6.01205 6.85345 6.06128 6.38228 6.12457 5.92519H9.41567C9.47896 6.38228 9.52818 6.85345 9.52818 7.33164C9.52818 7.80983 9.47896 8.27396 9.41567 8.73809ZM9.59147 12.648C10.0134 11.8674 10.3369 11.0236 10.5619 10.1445H12.6364C11.9551 11.3177 10.8742 12.2064 9.59147 12.648ZM10.8362 8.73809C10.8924 8.27396 10.9346 7.80983 10.9346 7.33164C10.9346 6.85345 10.8924 6.38932 10.8362 5.92519H13.2131C13.3256 6.37525 13.3959 6.84641 13.3959 7.33164C13.3959 7.81687 13.3256 8.28803 13.2131 8.73809H10.8362Z" fill="#512DA8"/>
</svg>
