<svg width="12" height="16" viewBox="0 0 12 16" fill="none" xmlns="http://www.w3.org/2000/svg">
<path d="M2.41254 2.40274L2.41243 2.40284C1.94156 2.84034 1.57206 3.3489 1.31205 3.91906C1.04087 4.51343 0.903296 5.14354 0.903296 5.7939V6.28448C0.903296 6.45236 1.03892 6.58799 1.2068 6.58799H2.18797C2.35585 6.58799 2.49147 6.45236 2.49147 6.28448V5.7939C2.49147 4.04961 4.04778 2.61607 5.98182 2.61607C7.91586 2.61607 9.47217 4.04961 9.47217 5.7939C9.47217 6.51044 9.21785 7.18524 8.73319 7.7492L8.73314 7.74926C8.25361 8.30813 7.57514 8.70977 6.82285 8.8797L6.82281 8.87971C6.35918 8.98465 5.9413 9.24599 5.64537 9.6202L5.71102 9.67212L5.64537 9.62021C5.35078 9.99274 5.19022 10.4536 5.18955 10.9285V10.9287V11.4992C5.18955 11.6671 5.32517 11.8027 5.49305 11.8027H6.47422C6.6421 11.8027 6.77772 11.6671 6.77772 11.4992V10.9287C6.77772 10.6892 6.94435 10.4797 7.1721 10.4285L7.17218 10.4284C8.25352 10.184 9.23558 9.60072 9.93865 8.7845L9.93883 8.78429C10.2931 8.37072 10.5698 7.91027 10.7612 7.41048C10.96 6.89207 11.0603 6.34756 11.0603 5.7939C11.0603 5.1436 10.9228 4.51163 10.6515 3.91895C10.3916 3.35084 10.0222 2.84044 9.55117 2.40462C8.59447 1.51653 7.32529 1.0279 5.98182 1.0279C4.63835 1.0279 3.36921 1.51652 2.41254 2.40274ZM5.98182 13.0563C5.36514 13.0563 4.86431 13.5571 4.86431 14.1738C4.86431 14.7905 5.36514 15.2913 5.98182 15.2913C6.59849 15.2913 7.09932 14.7905 7.09932 14.1738C7.09932 13.5571 6.59849 13.0563 5.98182 13.0563Z" fill="#512DA8" stroke="#512DA8" stroke-width="0.2"/>
</svg>
