<svg width="13" height="17" viewBox="0 0 13 17" fill="none" xmlns="http://www.w3.org/2000/svg">
<path d="M11 5.72448H10.25V4.20067C10.25 2.09781 8.57 0.391144 6.5 0.391144C4.43 0.391144 2.75 2.09781 2.75 4.20067V5.72448H2C1.175 5.72448 0.5 6.41019 0.5 7.24829V14.8673C0.5 15.7054 1.175 16.3911 2 16.3911H11C11.825 16.3911 12.5 15.7054 12.5 14.8673V7.24829C12.5 6.41019 11.825 5.72448 11 5.72448ZM4.25 4.20067C4.25 2.93591 5.255 1.91495 6.5 1.91495C7.745 1.91495 8.75 2.93591 8.75 4.20067V5.72448H4.25V4.20067ZM11 14.8673H2V7.24829H11V14.8673ZM6.5 12.5816C7.325 12.5816 8 11.8959 8 11.0578C8 10.2197 7.325 9.534 6.5 9.534C5.675 9.534 5 10.2197 5 11.0578C5 11.8959 5.675 12.5816 6.5 12.5816Z" fill="white" fill-opacity="0.8"/>
</svg>
