<svg width="15" height="15" viewBox="0 0 15 15" fill="none" xmlns="http://www.w3.org/2000/svg">
<path d="M1.3125 1.77736V14.1262C1.31258 14.1529 1.32057 14.1791 1.33547 14.2014C1.35037 14.2237 1.37151 14.241 1.39624 14.2513C1.42097 14.2616 1.44819 14.2644 1.47449 14.2593C1.50079 14.2542 1.525 14.2414 1.54408 14.2226L7.97394 7.95207L1.54408 1.6809C1.525 1.66209 1.50079 1.64933 1.47449 1.64422C1.44819 1.63911 1.42097 1.64188 1.39624 1.65218C1.37151 1.66249 1.35037 1.67986 1.33547 1.70213C1.32057 1.7244 1.31258 1.75057 1.3125 1.77736Z" fill="#512DA8"/>
<path d="M10.6699 5.37551L2.60771 0.933717L2.60268 0.930889C2.4638 0.855476 2.33183 1.04338 2.44557 1.15273L8.76545 7.19578L10.6699 5.37551Z" fill="#512DA8"/>
<path d="M2.44625 14.7515C2.33187 14.8609 2.46384 15.0488 2.60336 14.9733L2.60838 14.9705L10.67 10.5287L8.7655 8.70782L2.44625 14.7515Z" fill="#512DA8"/>
<path d="M13.9246 7.1666L11.6732 5.9267L9.55634 7.95215L11.6732 9.97666L13.9246 8.7377C14.537 8.39928 14.537 7.50502 13.9246 7.1666Z" fill="#512DA8"/>
</svg>
