<svg width="21" height="26" viewBox="0 0 21 26" fill="none" xmlns="http://www.w3.org/2000/svg">
<path d="M2.625 0C1.92881 0 1.26113 0.273928 0.768845 0.761522C0.276562 1.24912 0 1.91044 0 2.6V23.4C0 24.0896 0.276562 24.7509 0.768845 25.2385C1.26113 25.7261 1.92881 26 2.625 26H18.375C19.0712 26 19.7389 25.7261 20.2312 25.2385C20.7234 24.7509 21 24.0896 21 23.4V7.8L13.125 0H2.625ZM2.625 2.6H11.8125V9.1H18.375V23.4H2.625V2.6Z" fill="white" fill-opacity="0.8"/>
<path d="M16 21H4C4.11903 19.915 4.49825 18.8746 5.1055 17.9672C5.5722 17.2469 6.19831 16.6434 6.9355 16.2032L7.14062 16.09L6.13075 14.3863C6.09535 14.3285 6.08432 14.2591 6.10006 14.1932C6.11581 14.1273 6.15705 14.0704 6.21475 14.0348C6.24335 14.018 6.27499 14.007 6.30786 14.0024C6.34073 13.9978 6.37418 13.9998 6.40629 14.0081C6.43841 14.0165 6.46856 14.0311 6.49502 14.0511C6.52148 14.0711 6.54373 14.0961 6.5605 14.1247L7.59962 15.8734C8.36911 15.5672 9.19126 15.4146 10.0195 15.4246C10.834 15.4148 11.6406 15.5669 12.3944 15.8734L13.4294 14.1247C13.4465 14.0959 13.4692 14.0708 13.4961 14.0509C13.5231 14.031 13.5538 14.0168 13.5864 14.0089C13.619 14.0011 13.6528 13.9999 13.6859 14.0054C13.7189 14.0109 13.7506 14.0229 13.7789 14.0408C13.8071 14.0585 13.8316 14.0815 13.8509 14.1086C13.8702 14.1357 13.884 14.1664 13.8914 14.1988C13.8989 14.2312 13.8998 14.2648 13.8943 14.2976C13.8888 14.3304 13.8768 14.3618 13.8591 14.39L12.8492 16.0994L13.0994 16.238C13.8339 16.6955 14.4544 17.3142 14.914 18.047C15.4882 18.9398 15.859 19.9478 16 20.9996V21ZM12.25 18.7616C12.25 18.8271 12.2628 18.892 12.2879 18.9526C12.3129 19.0132 12.3497 19.0682 12.396 19.1146C12.4424 19.161 12.4974 19.1978 12.558 19.2229C12.6186 19.248 12.6835 19.261 12.7491 19.261C12.8147 19.2611 12.8797 19.2482 12.9403 19.2232C13.0009 19.1982 13.056 19.1614 13.1024 19.1151C13.1489 19.0688 13.1857 19.0138 13.2108 18.9533C13.236 18.8928 13.249 18.8279 13.249 18.7623C13.249 18.6968 13.2361 18.6319 13.211 18.5713C13.186 18.5108 13.1492 18.4557 13.1028 18.4094C13.0565 18.363 13.0014 18.3262 12.9408 18.3011C12.8802 18.276 12.8153 18.2631 12.7497 18.2631C12.6841 18.263 12.6191 18.2759 12.5585 18.301C12.4979 18.326 12.4428 18.3628 12.3964 18.4091C12.35 18.4554 12.3132 18.5104 12.2881 18.571C12.263 18.6315 12.25 18.6964 12.25 18.762V18.7616ZM6.74988 18.7616C6.74978 18.8939 6.80231 19.0209 6.89591 19.1146C6.98951 19.2083 7.11652 19.2609 7.249 19.261C7.38148 19.2611 7.50856 19.2087 7.60231 19.1151C7.69605 19.0216 7.74878 18.8947 7.74887 18.7623C7.74897 18.63 7.69644 18.503 7.60284 18.4093C7.50924 18.3156 7.38223 18.263 7.24975 18.2629C7.18415 18.2628 7.11919 18.2757 7.05857 18.3007C6.99795 18.3257 6.94286 18.3625 6.89644 18.4088C6.8027 18.5023 6.74997 18.6292 6.74988 18.7616V18.7616Z" fill="white" fill-opacity="0.8"/>
</svg>
