<svg width="15" height="15" viewBox="0 0 15 15" fill="none" xmlns="http://www.w3.org/2000/svg">
<path d="M7.46089 3.73595C5.46648 3.73595 3.8569 5.34553 3.8569 7.33993C3.8569 9.33433 5.46648 10.9439 7.46089 10.9439C9.45529 10.9439 11.0649 9.33433 11.0649 7.33993C11.0649 5.34553 9.45529 3.73595 7.46089 3.73595ZM7.46089 9.68226C6.17111 9.68226 5.11856 8.6297 5.11856 7.33993C5.11856 6.05016 6.17111 4.99761 7.46089 4.99761C8.75066 4.99761 9.80321 6.05016 9.80321 7.33993C9.80321 8.6297 8.75066 9.68226 7.46089 9.68226ZM11.2125 2.74841C10.7468 2.74841 10.3708 3.12445 10.3708 3.5901C10.3708 4.05576 10.7468 4.43179 11.2125 4.43179C11.6781 4.43179 12.0542 4.05751 12.0542 3.5901C12.0543 3.47953 12.0326 3.37002 11.9904 3.26784C11.9481 3.16566 11.8861 3.07281 11.8079 2.99463C11.7298 2.91644 11.6369 2.85445 11.5347 2.8122C11.4326 2.76995 11.323 2.74827 11.2125 2.74841ZM14.4861 7.33993C14.4861 6.36997 14.4949 5.40879 14.4404 4.44058C14.3859 3.31598 14.1294 2.3179 13.307 1.49554C12.4829 0.671422 11.4866 0.416631 10.362 0.362158C9.39203 0.307685 8.43085 0.316471 7.46264 0.316471C6.49268 0.316471 5.5315 0.307685 4.56329 0.362158C3.43869 0.416631 2.44061 0.673179 1.61825 1.49554C0.794133 2.31966 0.539342 3.31598 0.484869 4.44058C0.430396 5.41054 0.439182 6.37172 0.439182 7.33993C0.439182 8.30814 0.430396 9.27108 0.484869 10.2393C0.539342 11.3639 0.795891 12.362 1.61825 13.1843C2.44237 14.0084 3.43869 14.2632 4.56329 14.3177C5.53326 14.3722 6.49443 14.3634 7.46264 14.3634C8.43261 14.3634 9.39379 14.3722 10.362 14.3177C11.4866 14.2632 12.4847 14.0067 13.307 13.1843C14.1312 12.3602 14.3859 11.3639 14.4404 10.2393C14.4966 9.27108 14.4861 8.3099 14.4861 7.33993ZM12.9398 11.4834C12.8115 11.8032 12.6569 12.0422 12.4091 12.2882C12.1614 12.5359 11.9241 12.6906 11.6043 12.8188C10.68 13.1861 8.48532 13.1035 7.46089 13.1035C6.43645 13.1035 4.23997 13.1861 3.31569 12.8206C2.99588 12.6923 2.75691 12.5377 2.5109 12.2899C2.26314 12.0422 2.10851 11.8049 1.98023 11.4851C1.61474 10.5591 1.69733 8.36437 1.69733 7.33993C1.69733 6.31549 1.61474 4.11902 1.98023 3.19474C2.10851 2.87493 2.26314 2.63595 2.5109 2.38995C2.75866 2.14394 2.99588 1.98755 3.31569 1.85928C4.23997 1.49378 6.43645 1.57637 7.46089 1.57637C8.48532 1.57637 10.6818 1.49378 11.6061 1.85928C11.9259 1.98755 12.1649 2.14218 12.4109 2.38995C12.6586 2.63771 12.8133 2.87493 12.9415 3.19474C13.307 4.11902 13.2244 6.31549 13.2244 7.33993C13.2244 8.36437 13.307 10.5591 12.9398 11.4834Z" fill="#512DA8"/>
</svg>
